<svg width="198" height="205" viewBox="0 0 198 205" fill="none" xmlns="http://www.w3.org/2000/svg">
<path d="M98.7718 204.7C153.322 204.7 197.544 179.253 197.544 147.862C197.544 116.472 153.322 91.0249 98.7718 91.0249C44.2216 91.0249 0 116.472 0 147.862C0 179.253 44.2216 204.7 98.7718 204.7Z" fill="#F5F5F5"/>
<path d="M67.917 176.487C83.4478 176.487 96.0381 169.218 96.0381 160.252C96.0381 151.285 83.4478 144.017 67.917 144.017C52.3861 144.017 39.7959 151.285 39.7959 160.252C39.7959 169.218 52.3861 176.487 67.917 176.487Z" fill="#E0E0E0"/>
<path d="M106.285 196.166L166.149 161.612C166.26 161.573 166.356 161.5 166.424 161.404C166.492 161.309 166.528 161.194 166.528 161.076C166.528 160.959 166.492 160.844 166.424 160.748C166.356 160.652 166.26 160.579 166.149 160.54L134.557 142.314C134.27 142.167 133.952 142.09 133.63 142.09C133.308 142.09 132.99 142.167 132.703 142.314L72.8528 176.877C72.7396 176.913 72.641 176.985 72.571 177.081C72.5011 177.177 72.4634 177.293 72.4634 177.412C72.4634 177.531 72.5011 177.647 72.571 177.743C72.641 177.84 72.7396 177.911 72.8528 177.948L104.444 196.179C104.732 196.319 105.047 196.39 105.366 196.388C105.686 196.386 106 196.31 106.285 196.166Z" fill="#E0E0E0"/>
<path d="M145.99 150.619C145.445 146.883 147.011 138.751 150.179 133.335C153.348 127.919 157.541 123.564 162.083 124.411C166.314 125.199 166.364 130.762 161.987 134.983C157.61 139.205 149.872 146.887 148.609 153.242L147.876 158.855L145.99 150.619Z" fill="#64CF83"/>
<path opacity="0.15" d="M145.99 150.619C145.445 146.883 147.011 138.751 150.179 133.335C153.348 127.919 157.541 123.564 162.083 124.411C166.314 125.199 166.364 130.762 161.987 134.983C157.61 139.205 149.872 146.887 148.609 153.242L147.876 158.855L145.99 150.619Z" fill="black"/>
<path d="M146.462 155.77C146.52 155.756 146.573 155.724 146.612 155.677C146.651 155.631 146.673 155.574 146.677 155.513C147.313 142.401 156.108 130.529 161.941 127.337C161.974 127.32 162.002 127.297 162.025 127.268C162.048 127.24 162.065 127.208 162.075 127.173C162.085 127.138 162.088 127.101 162.084 127.065C162.08 127.029 162.069 126.994 162.051 126.962C162.035 126.93 162.012 126.901 161.984 126.878C161.957 126.854 161.924 126.837 161.89 126.827C161.855 126.817 161.818 126.813 161.782 126.818C161.747 126.822 161.712 126.834 161.681 126.852C155.728 130.103 146.768 142.172 146.114 155.486C146.112 155.522 146.117 155.558 146.129 155.592C146.141 155.626 146.16 155.658 146.184 155.684C146.209 155.711 146.238 155.733 146.27 155.748C146.303 155.764 146.339 155.773 146.375 155.774L146.462 155.77Z" fill="white"/>
<path d="M146.374 166.795C146.667 164.606 148.723 160.765 152.455 157.299C156.575 153.462 162.17 151.154 163.145 148.494C164.322 145.289 161.419 142.872 156.791 144.145C152.162 145.418 144.822 153.059 144.914 162.917L146.374 166.795Z" fill="#64CF83"/>
<path opacity="0.3" d="M146.374 166.795C146.667 164.606 148.723 160.765 152.455 157.299C156.575 153.462 162.17 151.154 163.145 148.494C164.322 145.289 161.419 142.872 156.791 144.145C152.162 145.418 144.822 153.059 144.914 162.917L146.374 166.795Z" fill="black"/>
<path d="M145.143 164.725C145.194 164.712 145.24 164.684 145.276 164.646C145.313 164.608 145.338 164.561 145.349 164.51C147.661 153.013 155.422 147.963 159.217 146.896C159.252 146.886 159.285 146.87 159.313 146.847C159.341 146.825 159.365 146.797 159.383 146.765C159.4 146.733 159.412 146.698 159.416 146.662C159.42 146.626 159.417 146.59 159.407 146.555C159.397 146.52 159.381 146.488 159.358 146.459C159.336 146.431 159.308 146.407 159.276 146.389C159.244 146.372 159.209 146.361 159.173 146.356C159.137 146.352 159.101 146.355 159.066 146.365C154.881 147.546 147.162 152.67 144.809 164.4C144.795 164.471 144.81 164.545 144.85 164.606C144.89 164.667 144.953 164.709 145.024 164.725C145.063 164.732 145.103 164.732 145.143 164.725Z" fill="white"/>
<path d="M53.8799 145.614C53.8799 145.614 54.6125 136.238 51.4259 128.216C48.2392 120.195 42.832 114.554 37.0723 112.956C31.3125 111.358 25.5436 115.831 31.0882 120.74C36.6328 125.648 47.0214 131.577 49.4617 146.379L53.8799 145.614Z" fill="#64CF83"/>
<path opacity="0.15" d="M53.8799 145.614C53.8799 145.614 54.6125 136.238 51.4259 128.216C48.2392 120.195 42.832 114.554 37.0723 112.956C31.3125 111.358 25.5436 115.831 31.0882 120.74C36.6328 125.648 47.0214 131.577 49.4617 146.379L53.8799 145.614Z" fill="black"/>
<path d="M52.6249 142.899H52.689C52.7721 142.883 52.8452 142.834 52.8924 142.764C52.9396 142.693 52.957 142.607 52.9409 142.524C49.7084 126.124 39.2054 117.498 34.0729 115.227C33.995 115.194 33.9075 115.193 33.8289 115.224C33.7503 115.255 33.6867 115.315 33.6517 115.392C33.6342 115.429 33.6246 115.47 33.6232 115.512C33.6219 115.554 33.6289 115.595 33.6438 115.634C33.6587 115.673 33.6813 115.708 33.7102 115.738C33.7391 115.768 33.7737 115.792 33.8119 115.808C38.8208 118.029 49.1178 126.499 52.3228 142.643C52.3371 142.713 52.3747 142.777 52.4295 142.823C52.4843 142.87 52.5531 142.897 52.6249 142.899Z" fill="white"/>
<path d="M29.1559 134.562C29.3482 135.656 30.2959 136.439 31.1979 137.09C32.0999 137.74 33.0751 138.463 33.3864 139.512C34.0045 141.668 31.555 143.87 32.2693 145.995C32.452 146.429 32.7212 146.822 33.0604 147.15C33.3996 147.477 33.8018 147.732 34.2426 147.899C34.9662 148.193 35.7043 148.45 36.454 148.669C36.8148 148.751 37.1802 148.813 37.5483 148.852C38.6242 148.957 39.7643 149.191 40.5838 149.96C41.8704 151.173 41.8566 153.165 42.4152 154.859C42.7628 155.859 43.323 156.772 44.0573 157.534C44.7916 158.297 45.6825 158.892 46.6686 159.277C48.3077 159.922 50.9449 160.193 51.5722 159.533C52.03 159.048 51.4806 157.079 51.6271 156.411C51.9938 154.702 52.1992 152.962 52.2407 151.214C52.2249 150.418 52.3064 149.623 52.4833 148.847C52.7077 147.982 52.9412 147.112 53.1335 146.247C53.3624 145.303 53.7653 144.626 53.66 143.596C53.5099 142.614 53.2136 141.66 52.7809 140.766C52.4024 139.875 52.0163 138.984 51.6226 138.092C51.1954 137.028 50.6387 136.021 49.9652 135.093C49.3449 134.311 48.5712 133.664 47.6918 133.192C46.8123 132.719 45.8456 132.432 44.851 132.346C43.2073 132.218 41.4446 132.722 39.8146 132.241C38.1847 131.76 36.8066 130.968 35.1629 130.675C33.4459 130.373 31.5459 130.675 30.2181 131.87C29.8341 132.198 29.5365 132.614 29.3513 133.084C29.1661 133.553 29.099 134.061 29.1559 134.562Z" fill="#64CF83"/>
<path opacity="0.3" d="M29.1559 134.562C29.3482 135.656 30.2959 136.439 31.1979 137.09C32.0999 137.74 33.0751 138.463 33.3864 139.512C34.0045 141.668 31.555 143.87 32.2693 145.995C32.452 146.429 32.7212 146.822 33.0604 147.15C33.3996 147.477 33.8018 147.732 34.2426 147.899C34.9662 148.193 35.7043 148.45 36.454 148.669C36.8148 148.751 37.1802 148.813 37.5483 148.852C38.6242 148.957 39.7643 149.191 40.5838 149.96C41.8704 151.173 41.8566 153.165 42.4152 154.859C42.7628 155.859 43.323 156.772 44.0573 157.534C44.7916 158.297 45.6825 158.892 46.6686 159.277C48.3077 159.922 50.9449 160.193 51.5722 159.533C52.03 159.048 51.4806 157.079 51.6271 156.411C51.9938 154.702 52.1992 152.962 52.2407 151.214C52.2249 150.418 52.3064 149.623 52.4833 148.847C52.7077 147.982 52.9412 147.112 53.1335 146.247C53.3624 145.303 53.7653 144.626 53.66 143.596C53.5099 142.614 53.2136 141.66 52.7809 140.766C52.4024 139.875 52.0163 138.984 51.6226 138.092C51.1954 137.028 50.6387 136.021 49.9652 135.093C49.3449 134.311 48.5712 133.664 47.6918 133.192C46.8123 132.719 45.8456 132.432 44.851 132.346C43.2073 132.218 41.4446 132.722 39.8146 132.241C38.1847 131.76 36.8066 130.968 35.1629 130.675C33.4459 130.373 31.5459 130.675 30.2181 131.87C29.8341 132.198 29.5365 132.614 29.3513 133.084C29.1661 133.553 29.099 134.061 29.1559 134.562Z" fill="black"/>
<path d="M47.5841 141.929C47.5659 141.89 47.5374 141.857 47.5017 141.833C42.5615 135.78 35.3046 133.253 32.8872 132.891C32.8528 132.881 32.8168 132.879 32.7816 132.885C32.7463 132.89 32.7127 132.903 32.6828 132.923C32.6529 132.942 32.6275 132.968 32.6082 132.998C32.589 133.028 32.5763 133.061 32.5711 133.097C32.5659 133.132 32.5682 133.168 32.5779 133.202C32.5876 133.237 32.6045 133.268 32.6275 133.296C32.6504 133.323 32.6789 133.345 32.7111 133.361C32.7432 133.376 32.7783 133.385 32.8139 133.385C35.1032 133.729 41.829 136.059 46.6456 141.581C44.8097 141.104 42.8949 141.012 41.0219 141.311C39.1488 141.611 37.3581 142.295 35.7625 143.321C35.7357 143.34 35.713 143.364 35.6958 143.392C35.6787 143.42 35.6674 143.451 35.6627 143.484C35.658 143.516 35.6599 143.55 35.6684 143.581C35.6769 143.613 35.6918 143.643 35.7121 143.669C35.7352 143.701 35.7662 143.728 35.8022 143.745C35.8382 143.763 35.8781 143.771 35.9181 143.769C35.9697 143.769 36.0196 143.751 36.0601 143.719C37.7001 142.677 39.548 142.006 41.4746 141.753C43.4012 141.5 45.3598 141.671 47.2133 142.254C50.1009 145.826 51.7352 150.248 51.865 154.84C51.8673 154.903 51.8931 154.962 51.9373 155.006C51.9815 155.05 52.0407 155.076 52.1031 155.078C52.1691 155.076 52.2315 155.048 52.2769 155C52.3223 154.952 52.347 154.888 52.3458 154.822C52.2201 150.117 50.5464 145.586 47.5841 141.929Z" fill="white"/>
<path d="M52.9874 156.177C54.8921 157.093 56.957 156.96 59.1501 155.957L59.8506 143.792L52.1221 142.945L52.9874 156.177Z" fill="#FFA8A7"/>
<path d="M67.9131 148.737C68.8929 150.537 73.2974 150.944 74.552 148.586L75.0876 136.682L66.9883 136.856L67.9131 148.737Z" fill="#FFA8A7"/>
<path d="M67.0482 167.161C67.2588 167.349 67.2451 168.672 67.0482 169.038C66.8513 169.404 65.464 170.673 62.9275 170.943C60.5193 171.199 58.349 170.943 56.8977 170.1C55.4463 169.258 54.7275 168.269 54.5443 166.895C54.3612 165.522 54.4711 164.19 53.7751 163.155C53.1341 162.198 52.1315 161.131 51.9025 160.609C51.4035 159.474 51.7835 157.807 51.7835 157.807L67.0482 167.161Z" fill="#263238"/>
<path d="M59.9926 155.39C60.0483 155.909 60.1667 156.419 60.3451 156.91C60.7502 157.962 61.2822 158.962 61.9293 159.886C62.2505 160.367 62.6038 160.826 62.9869 161.259C63.7515 162.102 64.681 162.784 65.4868 163.59C66.3372 164.348 66.9 165.376 67.0801 166.501C67.2541 168.392 65.2212 169.107 63.6462 169.445C61.9453 169.806 60.1853 169.781 58.4954 169.372C57.6066 169.173 56.7941 168.721 56.1557 168.072C55.5173 167.422 55.0801 166.602 54.8967 165.709C54.7914 165.187 54.8006 164.647 54.7227 164.121C54.4666 162.92 53.9195 161.801 53.1294 160.861C52.6712 160.316 52.2708 159.725 51.9344 159.098C51.3988 157.944 51.7513 156.612 52.0214 155.435C52.2595 154.419 52.4426 153.215 52.7998 153.297L52.8501 154.08C52.9738 154.295 53.2118 154.286 53.308 154.538C53.3895 154.803 53.4937 155.06 53.6193 155.307C53.8107 155.694 54.1158 156.014 54.4938 156.223C54.4938 155.509 54.4938 154.79 54.4938 154.075C54.4696 153.853 54.5195 153.63 54.6357 153.439C54.7975 153.281 55.0067 153.182 55.231 153.155C56.5464 152.791 57.9096 152.629 59.2738 152.674C59.3755 152.671 59.4769 152.689 59.5715 152.727C59.666 152.765 59.7518 152.822 59.8232 152.894C59.9059 153.032 59.9443 153.192 59.9331 153.352C59.9173 154.032 59.9372 154.712 59.9926 155.39Z" fill="#455A64"/>
<path d="M62.1994 160.271C61.476 159.767 59.9101 159.813 59.0356 159.941C58.16 160.048 57.3254 160.374 56.609 160.889C56.5052 160.972 56.375 161.014 56.2422 161.009C56.1094 161.004 55.9829 160.952 55.8856 160.861C55.8282 160.81 55.7826 160.746 55.7521 160.675C55.7217 160.605 55.707 160.528 55.7092 160.451C55.7114 160.374 55.7303 160.298 55.7648 160.229C55.7992 160.16 55.8482 160.099 55.9085 160.051C56.7007 159.426 57.6527 159.038 58.6556 158.929C60.7755 158.705 61.4027 159.048 61.4027 159.048C61.4027 159.048 62.3962 159.639 62.1994 160.271Z" fill="#F5F5F5"/>
<path d="M63.8885 162.152C62.9729 161.662 61.2513 161.799 60.3906 161.923C59.5309 162.041 58.7175 162.384 58.0327 162.917C57.9276 162.997 57.7974 163.038 57.6651 163.032C57.5328 163.026 57.4068 162.974 57.3093 162.885C57.2519 162.834 57.2064 162.77 57.1759 162.7C57.1455 162.629 57.1308 162.553 57.133 162.476C57.1352 162.4 57.1542 162.324 57.1886 162.255C57.223 162.187 57.272 162.126 57.3322 162.079C58.1297 161.425 59.0937 161.006 60.1159 160.87C62.2357 160.646 62.808 161.062 62.808 161.062C63.0588 161.15 63.2863 161.294 63.4735 161.483C63.6606 161.672 63.8025 161.901 63.8885 162.152Z" fill="#F5F5F5"/>
<path d="M57.7169 156.924C58.606 156.738 59.528 156.782 60.3953 157.052C60.7799 157.249 61.0454 157.835 60.8119 157.99C60.0496 157.718 59.2323 157.637 58.4311 157.752C57.6324 157.856 56.8577 158.097 56.1419 158.467C55.9587 158.554 55.7481 158.673 55.565 158.782C55.5064 158.819 55.4409 158.843 55.3727 158.852C55.3045 158.862 55.235 158.858 55.1685 158.84C55.1019 158.822 55.0398 158.791 54.986 158.748C54.9321 158.705 54.8876 158.651 54.8553 158.59C54.7981 158.486 54.7833 158.365 54.814 158.25C54.8448 158.136 54.9186 158.038 55.0201 157.977C55.8335 157.437 56.7531 157.078 57.7169 156.924Z" fill="#F5F5F5"/>
<path d="M88.0862 156.104C88.2826 156.654 88.2613 157.258 88.0267 157.793C87.8023 158.292 85.2796 159.799 81.777 159.625C79.1938 159.5 76.6911 158.686 74.5293 157.267C73.1878 156.42 71.8051 156.282 70.079 156.223C68.3529 156.163 66.4162 155.344 66.0179 154.547C65.6195 153.75 66.0179 152.354 66.0179 152.354L88.0862 156.104Z" fill="#263238"/>
<path d="M73.8835 145.711L74.7992 145.363C74.9565 145.279 75.1383 145.255 75.312 145.294C75.5363 145.372 75.6279 145.633 75.692 145.862C75.7812 146.374 75.9192 146.877 76.1041 147.363C76.3706 147.758 76.7093 148.098 77.1022 148.366C77.9798 149.04 78.925 149.622 79.9225 150.101C81.0717 150.687 82.2118 151.136 83.3793 151.64C84.5468 152.143 86.1813 152.446 87.1291 153.055C88.5026 153.97 88.7407 156.259 87.2023 157.198C85.8791 158.013 82.372 158.942 78.6497 157.972C76.6214 157.445 74.3368 155.339 71.6858 155.188C70.0009 155.097 67.144 154.684 66.036 153.43C65.6239 152.871 66.1184 151.063 66.5259 149.502C66.9837 147.803 67.0936 145.147 67.6567 145.285C67.7071 145.848 68.2016 146.164 68.5083 146.631C68.7519 147.059 68.9631 147.504 69.1402 147.963C69.3462 148.421 69.2821 148.856 69.7079 149.108C69.9162 149.246 70.1647 149.31 70.4136 149.29C70.6626 149.27 70.8977 149.167 71.0815 148.998C71.5668 148.476 71.2509 147.583 71.5988 146.965C71.8879 146.573 72.3008 146.289 72.7709 146.159L73.8835 145.711Z" fill="#455A64"/>
<path d="M78.3108 149.218C78.1846 148.988 78.0028 148.794 77.7819 148.654C77.5611 148.513 77.3084 148.43 77.0471 148.412C76.2779 148.289 74.9364 148.87 74.1123 149.593C74.0338 149.66 73.9728 149.745 73.9347 149.84C73.8966 149.936 73.8826 150.039 73.8939 150.141C73.9052 150.243 73.9415 150.341 73.9995 150.426C74.0576 150.511 74.1356 150.58 74.2267 150.628C74.3412 150.687 74.4712 150.71 74.5991 150.693C74.7269 150.676 74.8463 150.619 74.941 150.532C75.8498 149.671 77.0591 149.2 78.3108 149.218Z" fill="#F5F5F5"/>
<path d="M80.71 150.495C80.71 150.289 80.2109 149.717 79.222 149.767C79.222 149.767 77.2212 149.868 76.017 151.049C75.9431 151.115 75.886 151.197 75.8505 151.289C75.8149 151.381 75.802 151.481 75.8128 151.579C75.8235 151.677 75.8577 151.771 75.9123 151.854C75.967 151.936 76.0406 152.004 76.1269 152.052C76.2373 152.109 76.3626 152.13 76.4856 152.113C76.6086 152.096 76.7233 152.041 76.8137 151.956C77.3129 151.437 77.9219 151.036 78.5962 150.784C79.2704 150.531 79.9927 150.432 80.71 150.495Z" fill="#F5F5F5"/>
<path d="M83.3613 151.64C83.1657 151.426 82.9261 151.257 82.6591 151.144C82.392 151.031 82.1036 150.977 81.8138 150.985C80.6788 151.079 79.603 151.531 78.7416 152.276C78.6675 152.341 78.61 152.423 78.5741 152.514C78.5382 152.606 78.5248 152.705 78.5351 152.803C78.5455 152.901 78.5792 152.995 78.6334 153.077C78.6877 153.159 78.7609 153.227 78.8469 153.275C78.9575 153.333 79.0833 153.355 79.2071 153.339C79.3309 153.322 79.4466 153.268 79.5383 153.183C80.0105 152.645 80.6023 152.225 81.2663 151.957C81.9302 151.689 82.6478 151.58 83.3613 151.64Z" fill="#F5F5F5"/>
<path d="M49.1184 66.0498C47.7449 79.2588 51.1055 112.004 51.1055 112.004C50.8491 113.643 50.1028 115.965 50.1257 121.619C50.1577 130.249 52.1402 148.728 52.1402 148.728C52.1402 148.728 55.9907 149.964 59.8687 148.664C59.8687 148.664 62.3228 124.97 63.3941 117.073C64.1404 111.578 64.4518 105.709 64.4518 105.709L64.9646 111.052C64.5002 114.599 64.4097 118.185 64.6944 121.752C65.0241 125.698 67.2126 141.865 67.2126 141.865C69.8497 142.639 72.6429 142.711 75.3165 142.076C75.3165 142.076 77.2258 114.284 77.5554 110.676C77.9263 106.556 78.0682 66.7228 78.0682 66.7228L49.1184 66.0498Z" fill="#455A64"/>
<path d="M64.4336 105.736L66.1597 82.3258C67.7973 82.0371 69.3591 81.4182 70.7499 80.5067C72.1408 79.5952 73.3316 78.4103 74.2499 77.0239C74.2499 77.0239 73.4532 81.2361 67.7851 83.7772L65.2623 105.511L64.9464 111.07L64.4336 105.736Z" fill="#37474F"/>
<path d="M89.7434 75.7512V75.6826C89.8078 74.6241 89.7432 73.5617 89.5511 72.5188C89.3771 71.7542 88.4431 71.0674 87.9166 70.5089C85.3435 67.7847 81.4792 64.5568 78.581 61.6174C75.7836 58.8017 76.1453 54.8687 75.8706 49.9514C75.3761 41.1974 75.019 37.2049 75.019 37.2049L73.8423 28.5928C78.4849 29.0506 80.6505 31.5047 81.0809 33.0431C82.6467 38.638 84.936 54.8138 84.936 54.8138C86.0165 56.43 86.2271 56.5353 88.672 60.2851C89.9723 62.2813 91.3733 64.2043 92.7927 66.1227C93.1086 66.553 93.4428 66.9697 93.7404 67.4138C94.038 67.8579 94.1983 68.3661 94.5096 68.824C95.1261 69.814 95.9415 70.6653 96.9041 71.3238C97.6871 71.8595 98.5707 72.267 99.2346 72.9446C99.7234 73.4883 100.182 74.0584 100.608 74.6524C101.075 75.1526 101.623 75.5705 102.229 75.8886C102.009 76.1929 101.705 76.4268 101.355 76.5617C101.005 76.6966 100.623 76.7268 100.256 76.6486C99.5139 76.5342 98.9187 75.7741 98.2823 75.3804C98.6394 76.525 98.8134 79.501 98.4883 80.055C97.9984 80.8883 96.4143 81.8544 95.0499 82.4038C94.144 82.745 93.1399 82.7137 92.257 82.3168C91.1032 81.8177 90.6866 80.5403 90.3569 79.3225C89.9815 78.1678 89.7748 76.965 89.7434 75.7512Z" fill="#F28F8F"/>
<path d="M73.8423 28.2725C76.7771 28.9134 78.5398 29.1882 80.5086 31.3355C82.4773 33.4828 83.1733 40.9732 83.6219 44.0866C84.0706 47.1999 84.5376 50.2813 84.5376 50.2813C84.5376 50.2813 81.3785 53.4862 74.117 51.8792L73.8423 28.2725Z" fill="#455A64"/>
<path d="M87.4128 69.7354C87.54 69.4925 87.7287 69.2873 87.9601 69.1402C88.1915 68.9932 88.4575 68.9095 88.7314 68.8975C89.2818 68.8808 89.8259 69.0188 90.3018 69.2958C90.3995 69.1758 90.5261 69.0825 90.6697 69.0247C90.8133 68.9668 90.9692 68.9463 91.1228 68.9651C91.2765 68.9838 91.4229 69.0412 91.5483 69.1319C91.6738 69.2225 91.7742 69.3435 91.8402 69.4836C91.963 69.2145 92.1811 69.0006 92.4525 68.8831C92.7239 68.7656 93.0292 68.7528 93.3094 68.8474C93.5896 68.9419 93.8248 69.137 93.9695 69.3949C94.1142 69.6528 94.1581 69.9552 94.0928 70.2436C94.2145 70.2318 94.3372 70.2525 94.4483 70.3036C94.5594 70.3547 94.655 70.4343 94.7253 70.5344C94.7955 70.6344 94.838 70.7514 94.8484 70.8732C94.8587 70.9951 94.8366 71.1175 94.7842 71.228C95.0825 71.2197 95.3754 71.3087 95.6185 71.4817C95.8617 71.6547 96.0419 71.9022 96.1319 72.1867C96.2219 72.4712 96.2168 72.7773 96.1174 73.0587C96.018 73.34 95.8296 73.5813 95.5808 73.7461C95.2656 73.898 94.9149 73.9612 94.5665 73.929C94.218 73.8967 93.8849 73.7702 93.6029 73.563C93.0436 73.1443 92.535 72.6618 92.0874 72.1253C91.6354 71.587 91.0222 71.2081 90.3384 71.0448C89.5601 70.9212 88.7863 71.2783 88.0126 71.1501C87.3945 71.0494 87.1701 70.2573 87.4128 69.7354Z" fill="#FAFAFA"/>
<path d="M96.4785 73.7782C94.8943 71.0586 91.9 68.7144 89.0979 70.2207C88.9606 70.294 88.0128 70.7747 87.6832 70.9533C86.154 71.7728 85.2795 74.552 87.033 77.56C88.5577 80.1698 91.4787 82.0332 93.9649 80.765C94.1541 80.6665 94.3362 80.5548 94.5097 80.4307C94.802 80.3611 95.0848 80.2565 95.3521 80.1194C97.8383 78.8329 97.852 76.1315 96.4785 73.7782Z" fill="#64CF83"/>
<path d="M89.0978 70.2206C87.5686 71.0401 86.6666 73.9063 88.4248 76.9189C89.9448 79.5241 92.8659 81.3921 95.352 80.1239C97.8381 78.8556 97.8519 76.1451 96.4783 73.7918C94.9033 71.0584 91.9044 68.7142 89.0978 70.2206Z" fill="#64CF83"/>
<path opacity="0.5" d="M89.0978 70.2206C87.5686 71.0401 86.6666 73.9063 88.4248 76.9189C89.9448 79.5241 92.8659 81.3921 95.352 80.1239C97.8381 78.8556 97.8519 76.1451 96.4783 73.7918C94.9033 71.0584 91.9044 68.7142 89.0978 70.2206Z" fill="white"/>
<path d="M84.1487 76.6028C83.7131 75.3634 83.7506 74.0068 84.254 72.7934C84.4423 72.3685 84.7353 71.9983 85.1056 71.7175C85.2904 71.5775 85.5018 71.4764 85.7269 71.4206C85.952 71.3647 86.1861 71.3551 86.415 71.3924C86.6442 71.4328 86.8574 71.5366 87.0306 71.6919C87.2037 71.8473 87.3299 72.0481 87.3948 72.2715C87.5542 72.126 87.7475 72.0229 87.9572 71.9717C88.1668 71.9205 88.3859 71.9228 88.5944 71.9785C88.9332 72.0655 89.5559 72.4363 89.2079 72.8942C89.4248 72.6234 89.7318 72.4396 90.0729 72.3762C90.4139 72.3128 90.7665 72.3741 91.0661 72.5489C91.3658 72.7237 91.5927 73.0004 91.7054 73.3285C91.8182 73.6566 91.8092 74.0143 91.6803 74.3364C91.8101 74.2701 91.9522 74.2313 92.0977 74.2223C92.2432 74.2133 92.389 74.2344 92.526 74.2841C92.663 74.3339 92.7883 74.4114 92.894 74.5117C92.9998 74.612 93.0838 74.733 93.1408 74.8671C93.1978 75.0013 93.2266 75.1457 93.2254 75.2915C93.2241 75.4373 93.1929 75.5812 93.1336 75.7144C93.0744 75.8475 92.9883 75.9671 92.8809 76.0656C92.7734 76.1641 92.6468 76.2394 92.509 76.2868C92.7896 76.2257 93.0828 76.2697 93.3331 76.4105C93.4587 76.4594 93.5715 76.5364 93.6627 76.6356C93.754 76.7348 93.8214 76.8535 93.8597 76.9828C93.8961 77.1757 93.8738 77.375 93.7956 77.5551C93.718 77.7349 93.618 77.9041 93.4979 78.0587C93.577 77.9408 93.6851 77.8452 93.8118 77.7811C93.9385 77.7169 94.0795 77.6864 94.2213 77.6924C94.3653 77.702 94.5042 77.7493 94.624 77.8297C94.7437 77.9101 94.8402 78.0207 94.9035 78.1503C94.8932 77.9908 94.9343 77.8322 95.0209 77.6979C95.1074 77.5635 95.2348 77.4605 95.3843 77.404C95.544 77.3498 95.7149 77.3373 95.8808 77.3677C96.0467 77.3982 96.202 77.4706 96.332 77.578C96.4546 77.6907 96.5519 77.8282 96.6174 77.9813C96.6829 78.1344 96.7152 78.2997 96.712 78.4662C96.6954 78.8689 96.5727 79.26 96.3565 79.6C96.1402 79.9401 95.838 80.2171 95.4804 80.4029C94.7612 80.7676 93.9699 80.9678 93.1637 80.989C91.3632 81.1863 89.5414 80.9606 87.8435 80.3296C86.9981 80.0069 86.2312 79.5075 85.594 78.8648C84.9569 78.2221 84.4641 77.451 84.1487 76.6028Z" fill="#FAFAFA"/>
<path d="M53.8893 27.8651C53.8893 27.8651 53.0377 28.7533 51.7191 31.7797C49.9033 35.7616 48.9336 40.077 48.8712 44.4529C48.8026 51.4947 48.7705 53.3169 48.7705 57.1308V70.9166C53.1659 74.3871 72.0521 76.8275 78.7276 70.1886C78.7276 70.1886 78.3338 67.1165 77.8806 57.2269C78.7963 51.6457 79.6067 45.2267 79.8264 41.3304C80.211 34.5451 79.3686 30.342 75.4356 28.6251C73.8911 28.0739 72.3185 27.6047 70.7244 27.2195C70.7244 27.2195 68.1971 26.3999 63.6002 26.606C60.3383 26.803 57.0936 27.2237 53.8893 27.8651Z" fill="#64CF83"/>
<path d="M67.8123 3.86902C67.8123 3.86902 66.0405 2.99911 64.2777 4.66568C62.7394 6.12164 62.8538 9.72949 62.9042 13.4839C62.8845 15.8483 63.1676 18.2056 63.7466 20.4981C63.9472 21.1842 64.4048 21.7665 65.024 22.1235L65.9123 17.8884L66.4525 14.9215C66.4525 14.9215 68.4991 14.7933 69.6575 10.7322C70.4221 8.04003 70.2573 6.84046 70.2573 6.84046L67.8123 3.86902Z" fill="#455A64"/>
<path d="M69.456 9.27163C69.0937 10.8283 69.2011 12.4575 69.7647 13.9531C70.3284 15.4488 71.3229 16.7437 72.6224 17.6741C73.922 18.6045 75.4683 19.1287 77.0658 19.1803C78.6633 19.2319 80.2402 18.8086 81.5971 17.964C82.954 17.1193 84.0299 15.8913 84.6889 14.4352C85.3479 12.979 85.5602 11.3602 85.2991 9.78332C85.038 8.20649 84.3152 6.74249 83.222 5.57647C82.1289 4.41045 80.7145 3.59478 79.1578 3.2326C78.1242 2.99152 77.0532 2.95652 76.0061 3.12961C74.959 3.30269 73.9563 3.68046 73.0552 4.24131C72.1542 4.80217 71.3725 5.53512 70.755 6.39826C70.1374 7.2614 69.696 8.2378 69.456 9.27163Z" fill="#455A64"/>
<path d="M66.6631 14.4544C65.7016 14.3903 65.61 13.177 65.1613 12.417C64.7126 11.6569 62.9682 10.3566 61.526 12.1697C60.0838 13.9828 60.7751 16.6475 61.9198 17.8242C62.274 18.2104 62.7442 18.4711 63.2595 18.5669C63.7748 18.6627 64.3073 18.5884 64.7767 18.3553L63.5451 27.4161C65.958 32.3151 75.1699 33.4231 72.7021 28.2311L73.0775 26.3585C74.2314 26.8405 75.4503 27.1491 76.6946 27.2742C78.6999 27.4298 80.2749 26.1845 81.3463 24.2249C83.0724 21.084 84.0385 15.9836 84.2903 9.14791C82.5184 6.95939 75.4721 5.02727 70.2526 6.83119C69.5658 10.7229 68.348 13.1129 67.9359 13.6119C67.5238 14.111 67.0339 14.4819 66.6631 14.4544Z" fill="#FFA8A7"/>
<path d="M86.9687 4.32688C86.9584 4.26366 86.9313 4.20438 86.8902 4.15524C86.8491 4.10611 86.7956 4.06892 86.7352 4.04759C86.6361 4.03235 86.5348 4.05004 86.4468 4.09795C85.8034 4.40341 85.1357 4.65457 84.4505 4.84882C84.7945 4.10904 84.9934 3.31017 85.0366 2.49548C85.0641 1.99642 85.1877 0.865535 84.6245 0.604561C84.2903 0.453471 83.9149 0.673238 83.5989 0.856378C80.7099 2.49548 77.8712 0.764809 75.0005 0.206233C72.6014 -0.283666 69.5063 0.00935761 67.881 2.06968C67.1393 3.01285 66.7867 4.10711 67.588 5.06859C68.3199 5.85737 69.2262 6.46414 70.2343 6.84047C74.7808 8.78633 80.7649 11.918 85.3433 8.3239C86.0165 7.8296 86.5292 7.14807 86.8176 6.3643C87.0605 5.72952 87.1176 5.03873 86.9824 4.37266L86.9687 4.32688Z" fill="#263238"/>
<path d="M73.0596 26.3587C73.0596 26.3587 69.5067 25.1454 67.6616 23.3781C66.9105 22.6367 66.3795 21.7016 66.1278 20.6768C66.0653 21.6212 66.2802 22.5632 66.7459 23.3872C68.3163 26.0199 72.8032 27.5445 72.8032 27.5445L73.0596 26.3587Z" fill="#F28F8F"/>
<path d="M74.5976 15.2329C74.5708 15.3465 74.522 15.4538 74.4538 15.5485C74.3855 15.6433 74.2994 15.7237 74.2001 15.7851C74.1008 15.8465 73.9904 15.8878 73.8752 15.9066C73.7599 15.9253 73.6422 15.9212 73.5285 15.8945C73.4149 15.8677 73.3076 15.8188 73.2129 15.7506C73.1181 15.6824 73.0377 15.5962 72.9763 15.4969C72.9149 15.3977 72.8736 15.2873 72.8548 15.1721C72.8361 15.0568 72.8402 14.939 72.8669 14.8254C72.8937 14.7118 72.9426 14.6045 73.0108 14.5098C73.079 14.415 73.1652 14.3346 73.2644 14.2732C73.3637 14.2117 73.4741 14.1705 73.5893 14.1517C73.7046 14.1329 73.8224 14.137 73.936 14.1638C74.0496 14.1906 74.1569 14.2394 74.2516 14.3076C74.3464 14.3758 74.4268 14.462 74.4882 14.5613C74.5496 14.6606 74.5909 14.771 74.6097 14.8862C74.6285 15.0014 74.6243 15.1192 74.5976 15.2329Z" fill="#263238"/>
<path d="M74.4378 11.7486L72.35 12.3393C72.2772 12.0547 72.3171 11.7531 72.4612 11.4972C72.6054 11.2413 72.8427 11.0509 73.1238 10.9657C73.2615 10.9281 73.4054 10.9187 73.5469 10.938C73.6884 10.9572 73.8245 11.0048 73.9472 11.0779C74.0698 11.151 74.1765 11.2481 74.2608 11.3633C74.3451 11.4785 74.4053 11.6096 74.4378 11.7486Z" fill="#263238"/>
<path d="M82.9077 14.482L81.5342 12.7879C81.6397 12.6918 81.7637 12.6183 81.8986 12.5718C82.0336 12.5253 82.1766 12.5069 82.3189 12.5176C82.4612 12.5283 82.5998 12.568 82.7263 12.6341C82.8527 12.7003 82.9643 12.7916 83.0542 12.9024C83.2375 13.1341 83.3245 13.4274 83.2972 13.7215C83.27 14.0157 83.1305 14.288 82.9077 14.482Z" fill="#263238"/>
<path d="M81.8499 16.6611C81.8032 16.8288 81.7083 16.979 81.5769 17.0932C81.4456 17.2074 81.2836 17.2805 81.1111 17.3034C80.9386 17.3263 80.7631 17.298 80.6065 17.2221C80.4499 17.1461 80.3191 17.0258 80.2303 16.8762C80.1415 16.7265 80.0986 16.554 80.107 16.3802C80.1154 16.2063 80.1746 16.0388 80.2774 15.8983C80.3802 15.7579 80.5219 15.6507 80.6851 15.5902C80.8483 15.5296 81.0256 15.5183 81.1951 15.5577C81.4271 15.6192 81.6256 15.7692 81.7481 15.9756C81.8705 16.1819 81.9071 16.4281 81.8499 16.6611Z" fill="#263238"/>
<path d="M77.5236 14.2759L76.8276 19.5274L79.7167 19.4908L77.5236 14.2759Z" fill="#F28F8F"/>
<path d="M73.2928 20.6768L76.8457 21.9954C76.769 22.2337 76.6451 22.4541 76.4813 22.6435C76.3175 22.8329 76.1173 22.9873 75.8925 23.0975C75.6677 23.2078 75.423 23.2716 75.173 23.2852C74.923 23.2988 74.6728 23.2619 74.4374 23.1766C73.9597 22.9897 73.5733 22.6245 73.3597 22.1581C73.1462 21.6917 73.1222 21.1605 73.2928 20.6768Z" fill="#B16668"/>
<path d="M73.6499 21.3359C73.4997 21.3003 73.3463 21.2804 73.1921 21.2764C73.1755 21.6828 73.2861 22.0843 73.5085 22.4249C73.7309 22.7654 74.054 23.0282 74.4328 23.1764C74.6255 23.2448 74.8282 23.2804 75.0326 23.2817C75.0949 22.8421 74.9862 22.3953 74.729 22.0333C74.4718 21.6713 74.0856 21.4217 73.6499 21.3359Z" fill="#F28F8F"/>
<path d="M97.316 74.9224C96.9406 74.3227 95.5624 73.3245 94.9123 72.8072C94.2621 72.2898 93.9645 73.2376 94.1111 73.9197C94.2209 74.4325 94.9947 75.0552 95.7089 75.655L95.9653 77.4864L94.1065 79.2354C94.1065 79.2354 91.5517 79.2628 91.222 79.0248C90.6589 78.6219 90.3063 78.1777 90.7642 77.6512C91.222 77.1247 91.6432 76.9324 92.8978 76.9919C93.5097 77.0453 94.1261 77.0129 94.7291 76.8958C95.393 76.6531 95.5991 76.2639 95.2511 75.8336C94.6742 75.1056 93.4838 75.275 92.124 74.9179C90.4208 74.46 89.9034 73.8831 88.4291 73.3795C87.1512 73.0123 85.9061 72.5391 84.7068 71.9647C83.3699 71.2688 65.2986 61.1915 65.2986 61.1915L59.7724 42.2824C59.7724 42.2824 58.6644 30.012 55.8898 27.4893C49.4341 28.5927 48.6008 33.162 48.7703 38.4776C48.9397 43.7933 53.422 58.5269 55.4228 63.0596C57.3549 67.4412 57.9593 67.8212 60.8392 69.1856C65.1384 71.223 77.0607 75.5955 79.8353 77.0285C81.3027 77.719 82.7141 78.5227 84.0567 79.4322C85.3753 80.412 88.0079 82.3213 88.7039 82.509C90.4162 82.9668 93.8318 81.9413 94.9077 81.5613C95.9837 81.1812 97.87 78.4982 98.0074 77.99C98.1447 77.4818 97.6914 75.5222 97.316 74.9224Z" fill="#FFA8A7"/>
<path d="M57.6436 27.2192C55.8122 27.3108 53.0651 27.5168 50.9361 29.5085C48.8071 31.5001 48.4866 35.1767 48.798 38.9631C49.0315 41.8704 51.1467 53.6142 51.1467 53.6142C51.1467 53.6142 57.3002 54.9557 62.3595 50.4551C62.2816 50.2582 59.9054 37.5025 59.9054 37.5025C59.9054 37.5025 59.6856 28.6248 57.6436 27.2192Z" fill="#455A64"/>
<path d="M143.691 168.612V169.327L144.932 170.045V169.327L143.691 168.612Z" fill="#37474F"/>
<path d="M146.177 168.612V169.327L144.932 170.045V169.327L146.177 168.612Z" fill="#455A64"/>
<path d="M146.177 155.701V168.612L144.932 169.326V156.42L146.177 155.701Z" fill="#37474F"/>
<path d="M144.932 169.326L143.691 168.612V155.701L144.932 156.42V169.326Z" fill="#263238"/>
<path d="M110.149 187.979V188.693L111.39 189.412V188.693L110.149 187.979Z" fill="#37474F"/>
<path d="M112.635 187.979V188.693L111.39 189.412V188.693L112.635 187.979Z" fill="#455A64"/>
<path d="M112.635 175.067V187.979L111.39 188.693V175.782L112.635 175.067Z" fill="#37474F"/>
<path d="M111.39 188.693L110.149 187.979V175.067L111.39 175.782V188.693Z" fill="#263238"/>
<path d="M84.0605 172.916V173.63L85.3013 174.349V173.63L84.0605 172.916Z" fill="#37474F"/>
<path d="M86.5471 172.916V173.63L85.3018 174.349V173.63L86.5471 172.916Z" fill="#455A64"/>
<path d="M86.5471 160.004V172.916L85.3018 173.63V160.723L86.5471 160.004Z" fill="#455A64"/>
<path d="M85.3013 173.63L84.0605 172.916V160.004L85.3013 160.723V173.63Z" fill="#263238"/>
<path d="M105.182 126.293L148.659 101.189V155.701L105.182 180.805V126.293Z" fill="#455A64"/>
<path d="M105.181 126.293L80.334 111.949V166.46L105.181 180.805V126.293Z" fill="#37474F"/>
<path d="M102.695 132.021L156.113 101.189L123.811 82.541L70.394 113.373L102.695 132.021Z" fill="#64CF83"/>
<path opacity="0.6" d="M102.695 132.021L156.113 101.189L123.811 82.541L70.394 113.373L102.695 132.021Z" fill="white"/>
<path opacity="0.1" d="M120.432 115.259C119.251 115.941 119.251 117.049 120.432 117.731C121.096 118.066 121.828 118.24 122.57 118.24C123.313 118.24 124.045 118.066 124.709 117.731C125.89 117.049 125.89 115.941 124.709 115.259C124.046 114.923 123.313 114.748 122.57 114.748C121.827 114.748 121.095 114.923 120.432 115.259Z" fill="black"/>
<path d="M70.394 113.373V114.806L102.695 133.454V132.021L70.394 113.373Z" fill="#64CF83"/>
<path opacity="0.5" d="M70.394 113.373V114.806L102.695 133.454V132.021L70.394 113.373Z" fill="white"/>
<path opacity="0.15" d="M70.394 113.373V114.806L102.695 133.454V132.021L70.394 113.373Z" fill="black"/>
<path d="M102.695 133.454L156.113 102.627V101.189L102.695 132.021V133.454Z" fill="#64CF83"/>
<path opacity="0.5" d="M102.695 133.454L156.113 102.627V101.189L102.695 132.021V133.454Z" fill="white"/>
<path opacity="0.05" d="M102.695 133.454L156.113 102.627V101.189L102.695 132.021V133.454Z" fill="black"/>
<path opacity="0.1" d="M106.422 116C113.512 116 119.26 112.682 119.26 108.588C119.26 104.494 113.512 101.175 106.422 101.175C99.3318 101.175 93.584 104.494 93.584 108.588C93.584 112.682 99.3318 116 106.422 116Z" fill="black"/>
<path d="M114.934 109.806C115.85 108.89 118.404 106.344 123.802 102.407H110.928C107.974 101.565 104.844 101.565 101.89 102.407H89.0425C94.4405 106.344 97.0045 108.908 97.9064 109.806L97.9797 109.879L98.1308 110.026C99.8203 111.61 102.902 112.667 106.422 112.667C109.943 112.667 113.02 111.61 114.714 110.026C114.755 109.984 114.806 109.939 114.861 109.879L114.934 109.806Z" fill="#E0E0E0"/>
<path d="M106.422 107.224C118.537 107.224 128.358 101.693 128.358 94.8708C128.358 88.0486 118.537 82.5181 106.422 82.5181C94.3077 82.5181 84.4868 88.0486 84.4868 94.8708C84.4868 101.693 94.3077 107.224 106.422 107.224Z" fill="#FAFAFA"/>
<path d="M106.422 105.443C117.548 105.443 126.568 100.531 126.568 94.4725C126.568 88.4139 117.548 83.5024 106.422 83.5024C95.2962 83.5024 86.2769 88.4139 86.2769 94.4725C86.2769 100.531 95.2962 105.443 106.422 105.443Z" fill="#EBEBEB"/>
<path d="M106.422 105.443C109.229 105.453 112.027 105.122 114.755 104.458C113.074 102.851 109.97 101.775 106.422 101.775C102.874 101.775 99.7694 102.851 98.0845 104.458C100.814 105.123 103.613 105.453 106.422 105.443Z" fill="#E0E0E0"/>
<path d="M121.33 98.3229L112.635 93.3003L115.117 91.8672L123.811 96.8852L121.33 98.3229Z" fill="#64CF83"/>
<path opacity="0.8" d="M121.33 98.3229L112.635 93.3003L115.117 91.8672L123.811 96.8852L121.33 98.3229Z" fill="white"/>
<path opacity="0.05" d="M121.33 98.3229L112.635 93.3003L115.117 91.8672L123.811 96.8852L121.33 98.3229Z" fill="black"/>
<path opacity="0.05" d="M121.33 98.323L123.812 96.8854L122.246 95.9834L119.764 97.4165L121.33 98.323Z" fill="black"/>
<path d="M112.635 93.3003L108.904 94.0191L111.39 92.586L115.117 91.8672L112.635 93.3003Z" fill="#64CF83"/>
<path opacity="0.7" d="M112.635 93.3003L108.904 94.0191L111.39 92.586L115.117 91.8672L112.635 93.3003Z" fill="white"/>
<path opacity="0.05" d="M112.635 93.3003L108.904 94.0191L111.39 92.586L115.117 91.8672L112.635 93.3003Z" fill="black"/>
<path d="M108.904 95.4522L112.635 94.7379L121.33 99.756V98.3229L112.635 93.3003L108.904 94.0191V95.4522Z" fill="#64CF83"/>
<path opacity="0.7" d="M108.904 95.4522L112.635 94.7379L121.33 99.756V98.3229L112.635 93.3003L108.904 94.0191V95.4522Z" fill="white"/>
<path opacity="0.1" d="M108.904 95.4522L112.635 94.7379L121.33 99.756V98.3229L112.635 93.3003L108.904 94.0191V95.4522Z" fill="black"/>
<path opacity="0.1" d="M119.764 98.8542L121.33 99.7561V98.323L119.764 97.4165V98.8542Z" fill="black"/>
<path d="M124.604 116.294V92.4443H120.542V116.294C120.559 116.472 120.623 116.643 120.727 116.789C120.832 116.935 120.974 117.05 121.138 117.122C121.583 117.348 122.074 117.466 122.573 117.466C123.072 117.466 123.564 117.348 124.008 117.122C124.172 117.049 124.313 116.934 124.418 116.788C124.522 116.643 124.586 116.472 124.604 116.294Z" fill="#64CF83"/>
<path opacity="0.8" d="M124.604 116.294V92.4443H120.542V116.294C120.559 116.472 120.623 116.643 120.727 116.789C120.832 116.935 120.974 117.05 121.138 117.122C121.583 117.348 122.074 117.466 122.573 117.466C123.072 117.466 123.564 117.348 124.008 117.122C124.172 117.049 124.313 116.934 124.418 116.788C124.522 116.643 124.586 116.472 124.604 116.294Z" fill="white"/>
<path opacity="0.03" d="M124.604 116.294V92.4443H120.542V116.294C120.559 116.472 120.623 116.643 120.727 116.789C120.832 116.935 120.974 117.05 121.138 117.122C121.583 117.348 122.074 117.466 122.573 117.466C123.072 117.466 123.564 117.348 124.008 117.122C124.172 117.049 124.313 116.934 124.418 116.788C124.522 116.643 124.586 116.472 124.604 116.294Z" fill="black"/>
<path d="M123.18 117.415C123.47 117.368 123.75 117.272 124.008 117.132C124.172 117.058 124.313 116.943 124.418 116.797C124.522 116.652 124.586 116.481 124.604 116.303V92.4443H123.18V117.415Z" fill="#64CF83"/>
<path opacity="0.8" d="M123.18 117.415C123.47 117.368 123.75 117.272 124.008 117.132C124.172 117.058 124.313 116.943 124.418 116.797C124.522 116.652 124.586 116.481 124.604 116.303V92.4443H123.18V117.415Z" fill="white"/>
<path opacity="0.1" d="M123.18 117.415C123.47 117.368 123.75 117.272 124.008 117.132C124.172 117.058 124.313 116.943 124.418 116.797C124.522 116.652 124.586 116.481 124.604 116.303V92.4443H123.18V117.415Z" fill="black"/>
<path d="M121.138 93.2731C121.582 93.4987 122.074 93.6163 122.573 93.6163C123.072 93.6163 123.563 93.4987 124.008 93.2731C124.8 92.8153 124.8 92.0735 124.008 91.6157C123.563 91.39 123.072 91.2725 122.573 91.2725C122.074 91.2725 121.582 91.39 121.138 91.6157C120.341 92.0735 120.341 92.8153 121.138 93.2731Z" fill="#64CF83"/>
<path opacity="0.8" d="M121.138 93.2731C121.582 93.4987 122.074 93.6163 122.573 93.6163C123.072 93.6163 123.563 93.4987 124.008 93.2731C124.8 92.8153 124.8 92.0735 124.008 91.6157C123.563 91.39 123.072 91.2725 122.573 91.2725C122.074 91.2725 121.582 91.39 121.138 91.6157C120.341 92.0735 120.341 92.8153 121.138 93.2731Z" fill="white"/>
<path d="M143.167 29.241C147.673 28.0203 150.335 23.3783 149.115 18.8729C147.894 14.3675 143.252 11.7047 138.747 12.9254C134.241 14.1462 131.578 18.7881 132.799 23.2935C134.02 27.7989 138.662 30.4617 143.167 29.241Z" fill="#64CF83"/>
<path d="M146.503 14.8255C145.896 14.5912 145.355 14.2125 144.928 13.7221C145.23 13.8595 145.738 13.5893 146.393 12.7515C146.924 12.0693 147.414 11.3779 147.766 10.9201L147.913 10.7095L148.32 10.9979L148.178 11.2085C147.84 11.6984 147.373 12.3944 146.915 13.1269C146.352 14.0151 146.269 14.5875 146.503 14.8255Z" fill="#64CF83"/>
<path opacity="0.2" d="M148.137 11.2452C148.063 11.2066 147.991 11.1638 147.922 11.117C147.854 11.067 147.788 11.0135 147.725 10.9568C147.794 10.8652 147.853 10.7782 147.908 10.6958L148.316 10.9842L148.137 11.2452Z" fill="black"/>
<path d="M148.979 11.094C149.007 11.0525 149.026 11.0057 149.034 10.9567C149.037 10.9461 149.037 10.9351 149.034 10.9246C149.037 10.9079 149.037 10.891 149.034 10.8743C149.034 10.8743 149.034 10.8743 149.034 10.8514C149.034 10.8285 149.034 10.8239 149.034 10.8102C148.929 10.5787 148.763 10.3797 148.555 10.234C148.346 10.0882 148.102 10.001 147.849 9.98145H147.784H147.734H147.707C147.665 10.0076 147.629 10.0419 147.601 10.0822C147.573 10.1215 147.554 10.167 147.546 10.2149C147.496 10.4072 147.693 10.7186 148.032 10.9567C148.371 11.1947 148.732 11.2726 148.897 11.1581C148.928 11.1417 148.956 11.12 148.979 11.094Z" fill="#64CF83"/>
<path opacity="0.3" d="M148.769 10.8009C148.691 10.9107 148.439 10.8695 148.206 10.7093C147.972 10.549 147.844 10.3201 147.922 10.2102C148 10.1004 148.087 10.1324 148.224 10.1736C148.064 10.1736 148 10.2972 148.1 10.4529C148.22 10.6001 148.379 10.711 148.558 10.7734C148.673 10.8009 148.755 10.7734 148.773 10.6956C148.78 10.7125 148.782 10.7306 148.782 10.7487C148.781 10.7667 148.776 10.7845 148.769 10.8009Z" fill="black"/>
<path d="M143.499 13.0766C142.851 13.0924 142.208 12.9675 141.613 12.7103C141.942 12.7103 142.217 12.6645 142.451 11.7488C142.643 11.0025 142.675 10.9567 142.78 10.4348C142.78 10.3524 142.812 10.2791 142.826 10.2104L143.316 10.3066C143.316 10.3738 143.302 10.447 143.275 10.5264C143.174 11.0529 143.174 11.1033 143.073 11.8679C142.95 12.8065 143.188 12.9621 143.499 13.0766Z" fill="#64CF83"/>
<path opacity="0.2" d="M143.256 10.6179C143.173 10.6137 143.09 10.603 143.009 10.5859C142.925 10.5699 142.843 10.5485 142.762 10.5218C142.785 10.4119 142.808 10.3066 142.826 10.2104L143.316 10.3066C143.297 10.4027 143.279 10.5035 143.256 10.6179Z" fill="black"/>
<path d="M144.136 10.0822C144.149 10.025 144.149 9.9654 144.136 9.90822C144.138 9.8961 144.138 9.88372 144.136 9.8716L144.108 9.81666C144.11 9.80755 144.11 9.79829 144.108 9.78918L144.081 9.75256C143.863 9.54098 143.584 9.40323 143.284 9.35881C142.99 9.28711 142.68 9.31117 142.4 9.42748H142.359H142.336L142.291 9.46869L142.268 9.49616C142.231 9.54336 142.206 9.59814 142.194 9.65641C142.185 9.7125 142.185 9.76972 142.194 9.82581C142.236 10.0593 142.602 10.2837 143.083 10.3935C143.563 10.5034 143.998 10.3935 144.117 10.1967C144.13 10.1597 144.136 10.1211 144.136 10.0822Z" fill="#64CF83"/>
<path opacity="0.3" d="M143.769 9.86733C143.737 10.023 143.444 10.1008 143.115 10.0367C142.785 9.97263 142.538 9.79407 142.57 9.63382C142.602 9.47358 142.707 9.469 142.872 9.45068C142.698 9.51936 142.693 9.69334 142.872 9.80781C143.077 9.91548 143.31 9.95857 143.54 9.93143C143.678 9.90396 143.765 9.84901 143.737 9.73913C143.751 9.75726 143.761 9.77795 143.766 9.79997C143.772 9.822 143.773 9.8449 143.769 9.86733Z" fill="black"/>
<path d="M139.891 12.7697C139.394 12.9952 138.857 13.1197 138.312 13.136C138.572 13.0353 138.71 12.6415 138.591 11.9227C138.571 11.7013 138.539 11.4812 138.495 11.2634C138.495 11.2054 138.481 11.1505 138.453 11.0986L138.866 11.0024C138.866 11.0528 138.888 11.1077 138.907 11.1718C138.958 11.3876 139.027 11.5989 139.113 11.8037C139.314 12.4996 139.616 12.7926 139.891 12.7697Z" fill="#64CF83"/>
<path opacity="0.2" d="M138.925 11.2588C138.86 11.2863 138.793 11.3078 138.724 11.3229C138.655 11.34 138.584 11.3507 138.513 11.355C138.513 11.2634 138.472 11.1764 138.454 11.0986L138.866 11.0024C138.884 11.0803 138.902 11.1673 138.925 11.2588Z" fill="black"/>
<path d="M139.314 10.6499C139.303 10.6089 139.284 10.5702 139.26 10.5354L139.227 10.5079H139.2C138.99 10.425 138.76 10.4025 138.538 10.4429C138.315 10.4834 138.109 10.5852 137.941 10.7369C137.94 10.746 137.94 10.7552 137.941 10.7643V10.8055V10.833C137.932 10.8737 137.932 10.9159 137.941 10.9566C137.95 10.9963 137.967 11.0337 137.991 11.0665C138.083 11.2039 138.39 11.2588 138.733 11.1764C139.076 11.094 139.324 10.9154 139.346 10.7506C139.343 10.7152 139.332 10.6809 139.314 10.6499Z" fill="#64CF83"/>
<path opacity="0.3" d="M139.008 10.6133C139.031 10.7278 138.866 10.8605 138.628 10.9155C138.39 10.9704 138.17 10.9155 138.17 10.8102C138.17 10.7049 138.211 10.6637 138.312 10.6041C138.22 10.7003 138.266 10.8147 138.417 10.8376C138.578 10.8447 138.737 10.8049 138.875 10.7232C138.957 10.6637 138.994 10.6041 138.948 10.54C138.975 10.5581 138.996 10.5836 139.008 10.6133Z" fill="black"/>
<path d="M136.769 13.8093C136.326 14.2835 135.774 14.6433 135.162 14.8578C135.4 14.6288 135.34 14.0611 134.809 13.1591C134.379 12.422 133.939 11.7215 133.619 11.227C133.568 11.1538 133.523 11.0851 133.481 11.0164L133.898 10.7417L134.04 10.9523C134.365 11.4422 134.832 12.1198 135.34 12.7837C135.963 13.6582 136.462 13.9421 136.769 13.8093Z" fill="#64CF83"/>
<path opacity="0.2" d="M134.072 11.016C134.01 11.0711 133.944 11.1216 133.875 11.1671C133.806 11.2152 133.732 11.2566 133.655 11.2908L133.481 11.0252L133.898 10.7505C133.953 10.8329 134.013 10.9199 134.072 11.016Z" fill="black"/>
<path d="M134.36 9.96298C134.325 9.91271 134.28 9.87055 134.227 9.83936H134.191H134.131H134.099H134.049C133.73 9.83866 133.419 9.9397 133.161 10.1278C132.887 10.2914 132.671 10.5362 132.543 10.8283V10.8741C132.543 10.8741 132.543 10.8741 132.543 10.9061C132.54 10.9275 132.54 10.9489 132.543 10.9702C132.545 10.9824 132.545 10.9947 132.543 11.0069C132.553 11.0684 132.575 11.1274 132.607 11.1809C132.642 11.2288 132.686 11.2706 132.735 11.3045C132.936 11.451 133.39 11.364 133.82 11.0801C134.25 10.7963 134.511 10.4117 134.456 10.1644C134.44 10.0908 134.407 10.0218 134.36 9.96298Z" fill="#64CF83"/>
<path opacity="0.3" d="M133.925 10.073C134.017 10.2149 133.852 10.485 133.555 10.6819C133.257 10.8788 132.941 10.92 132.849 10.7826C132.758 10.6453 132.849 10.5537 132.941 10.4163C132.863 10.5995 132.987 10.7323 133.207 10.6865C133.448 10.6178 133.663 10.4753 133.82 10.279C133.903 10.1599 133.925 10.0546 133.82 9.99512C133.863 10.0086 133.9 10.036 133.925 10.073Z" fill="black"/>
<path d="M134.118 16.2314C133.895 16.8028 133.596 17.3418 133.23 17.8339C133.353 17.5454 133.23 17.202 132.772 16.8907C132.406 16.6389 132.039 16.4329 131.769 16.2635L131.655 16.1994L131.888 15.7827C131.925 15.806 131.964 15.8274 132.003 15.8468C132.273 15.9933 132.657 16.1856 133.065 16.3642C133.587 16.5611 133.939 16.4695 134.118 16.2314Z" fill="#64CF83"/>
<path opacity="0.2" d="M132.085 15.8649C132.053 15.9336 132.021 16.0068 131.98 16.0801C131.942 16.1502 131.899 16.2175 131.851 16.2815L131.673 16.1808L131.906 15.7642L132.085 15.8649Z" fill="black"/>
<path d="M131.893 15.1274C131.854 15.109 131.812 15.0966 131.769 15.0908H131.728H131.682H131.659H131.627C131.432 15.1933 131.272 15.353 131.169 15.5487C131.049 15.7429 130.994 15.971 131.014 16.1988C131.014 16.1988 131.014 16.1988 131.014 16.2354C131.014 16.2721 131.014 16.2354 131.014 16.2354C131.012 16.2491 131.012 16.263 131.014 16.2766C131.038 16.3135 131.071 16.3435 131.11 16.3636C131.148 16.3841 131.19 16.3966 131.233 16.4003C131.407 16.4277 131.668 16.2217 131.847 15.8966C132.026 15.5716 132.058 15.2465 131.943 15.1137C131.926 15.1165 131.909 15.1211 131.893 15.1274Z" fill="#64CF83"/>
<path opacity="0.3" d="M131.655 15.3427C131.76 15.4022 131.746 15.6266 131.623 15.8509C131.499 16.0753 131.316 16.208 131.211 16.1485C131.105 16.089 131.124 16.0112 131.147 15.8876C131.147 16.0295 131.279 16.0707 131.408 15.97C131.531 15.8439 131.615 15.6849 131.65 15.5121C131.65 15.4068 131.65 15.3336 131.559 15.329C131.591 15.3217 131.625 15.3266 131.655 15.3427Z" fill="black"/>
<path d="M132.744 19.3809C132.842 20.0228 132.786 20.6789 132.58 21.2947C132.547 20.965 132.067 20.6583 131.037 20.5163C130.194 20.3973 129.379 20.3103 128.798 20.2554L128.546 20.2325L128.592 19.738H128.839C129.425 19.7838 130.24 19.8387 131.092 19.8662C132.131 19.9165 132.653 19.7014 132.744 19.3809Z" fill="#64CF83"/>
<path opacity="0.2" d="M128.903 19.7612C128.91 19.845 128.91 19.9292 128.903 20.013C128.894 20.0977 128.881 20.1818 128.862 20.2648L128.546 20.2328L128.592 19.7383L128.903 19.7612Z" fill="black"/>
<path d="M128.212 18.7811C128.145 18.7783 128.078 18.7876 128.015 18.8086H127.973L127.914 18.8498H127.886L127.85 18.8864C127.638 19.1617 127.516 19.496 127.502 19.8433C127.453 20.19 127.517 20.5433 127.685 20.8506C127.693 20.8676 127.704 20.883 127.717 20.8964L127.74 20.9238L127.79 20.9696H127.827C127.884 21.0037 127.948 21.0241 128.015 21.0291C128.08 21.0353 128.145 21.0275 128.207 21.0063C128.472 20.933 128.706 20.4843 128.752 19.9212C128.798 19.358 128.646 18.8773 128.404 18.7628C128.339 18.7571 128.274 18.7633 128.212 18.7811Z" fill="#64CF83"/>
<path opacity="0.3" d="M128.01 19.2299C128.193 19.2299 128.317 19.5732 128.285 19.9624C128.253 20.3516 128.074 20.6492 127.886 20.6309C127.777 20.6309 127.685 20.4935 127.639 20.3058C127.744 20.4981 127.941 20.4844 128.051 20.26C128.148 20.0108 128.169 19.7382 128.111 19.4771C128.06 19.326 127.987 19.2344 127.868 19.2802C127.887 19.2627 127.91 19.2492 127.934 19.2406C127.958 19.2319 127.984 19.2283 128.01 19.2299Z" fill="black"/>
<path d="M132.772 22.8242C133.092 23.4215 133.314 24.066 133.431 24.7334C133.28 24.4221 132.854 24.2756 132.144 24.4633C131.567 24.6098 131.018 24.7838 130.624 24.9212L130.459 24.9761L130.29 24.4725L130.455 24.4175C130.844 24.2756 131.371 24.0741 131.929 23.8315C132.598 23.5568 132.845 23.163 132.772 22.8242Z" fill="#64CF83"/>
<path opacity="0.2" d="M130.514 24.3945C130.551 24.4724 130.583 24.5502 130.615 24.6372C130.645 24.7209 130.67 24.8066 130.688 24.8936L130.459 24.9714L130.29 24.4724L130.514 24.3945Z" fill="black"/>
<path d="M129.732 24.0148C129.684 24.0324 129.641 24.0588 129.603 24.0926C129.59 24.1059 129.579 24.1214 129.571 24.1384V24.175C129.515 24.4239 129.528 24.6834 129.609 24.9255C129.69 25.1676 129.835 25.383 130.029 25.5485H130.061H130.089H130.134H130.18C130.228 25.5595 130.278 25.5595 130.327 25.5485C130.372 25.5343 130.413 25.5091 130.446 25.4753C130.601 25.3517 130.624 24.9808 130.487 24.5916C130.35 24.2025 130.07 24.0148 129.873 24.0148C129.827 24.0055 129.778 24.0055 129.732 24.0148Z" fill="#64CF83"/>
<path opacity="0.3" d="M129.727 24.3854C129.855 24.3396 130.034 24.5228 130.13 24.7929C130.226 25.0631 130.194 25.3149 130.066 25.3607C129.937 25.4064 129.887 25.3286 129.8 25.2141C129.928 25.3149 130.056 25.2462 130.061 25.0631C130.053 24.8663 129.986 24.6765 129.869 24.5182C129.791 24.4312 129.718 24.3946 129.649 24.4587C129.656 24.4418 129.667 24.4265 129.68 24.4139C129.694 24.4013 129.709 24.3916 129.727 24.3854Z" fill="black"/>
<path d="M134.356 26.2354C134.711 26.5747 135.048 26.9339 135.363 27.3113C135.216 27.1739 134.965 27.0412 134.786 27.1373C134.651 27.2127 134.523 27.3017 134.406 27.4029L134.369 27.4349L134.159 27.206L134.195 27.1739C134.303 27.0659 134.394 26.9424 134.465 26.8077C134.508 26.7125 134.52 26.6066 134.501 26.5042C134.481 26.4018 134.43 26.308 134.356 26.2354Z" fill="#64CF83"/>
<path opacity="0.2" d="M134.241 27.1279L134.356 27.2378L134.456 27.3569L134.369 27.4347L134.159 27.2058L134.241 27.1279Z" fill="black"/>
<path d="M133.564 27.0732C133.535 27.0982 133.513 27.1296 133.5 27.1647C133.498 27.1738 133.498 27.1832 133.5 27.1922C133.497 27.2043 133.497 27.2168 133.5 27.2288C133.497 27.2379 133.497 27.2473 133.5 27.2563C133.533 27.4503 133.627 27.6285 133.77 27.7645C133.897 27.9153 134.068 28.0225 134.26 28.0713H134.36H134.383C134.421 28.0613 134.455 28.0424 134.484 28.0163C134.509 27.9899 134.53 27.9588 134.543 27.9248C134.612 27.7874 134.511 27.5173 134.296 27.2884C134.081 27.0594 133.815 26.9358 133.673 26.9953C133.629 27.0089 133.591 27.0361 133.564 27.0732Z" fill="#64CF83"/>
<path opacity="0.3" d="M133.674 27.3293C133.752 27.256 133.935 27.3293 134.086 27.4895C134.237 27.6498 134.296 27.8375 134.219 27.9107C134.141 27.984 134.081 27.9428 133.985 27.8878C134.104 27.9199 134.173 27.8329 134.122 27.7001C134.052 27.5665 133.946 27.4555 133.816 27.3796C133.733 27.343 133.669 27.3384 133.642 27.4071C133.641 27.3926 133.644 27.3781 133.649 27.3647C133.655 27.3512 133.663 27.3392 133.674 27.3293Z" fill="black"/>
<path d="M136.961 28.4556C137.6 28.5673 138.209 28.8122 138.747 29.1744C138.422 29.1011 138.142 29.0966 137.753 29.9298C137.433 30.612 137.387 30.6441 137.195 31.1294C137.163 31.1981 137.135 31.2668 137.108 31.3309L136.65 31.1477C136.677 31.0836 136.705 31.0149 136.732 30.9417C136.92 30.4564 136.929 30.406 137.167 29.6963C137.451 28.8218 137.245 28.6295 136.961 28.4556Z" fill="#64CF83"/>
<path opacity="0.2" d="M136.76 30.855C136.842 30.8738 136.923 30.8982 137.002 30.9282C137.08 30.9584 137.155 30.9951 137.227 31.0381L137.108 31.3311L136.65 31.148C136.682 31.0564 136.723 30.9557 136.76 30.855Z" fill="black"/>
<path d="M135.798 31.2118C135.777 31.2658 135.766 31.3233 135.766 31.3812C135.766 31.3812 135.766 31.4087 135.766 31.4179C135.766 31.427 135.766 31.4179 135.766 31.4179C135.764 31.4377 135.764 31.4576 135.766 31.4774V31.5049V31.5461C135.935 31.7976 136.183 31.9859 136.471 32.0818C136.747 32.2094 137.056 32.2463 137.355 32.1871H137.4H137.428L137.478 32.1596C137.478 32.1596 137.501 32.1596 137.506 32.1596C137.549 32.1202 137.582 32.0719 137.604 32.0181C137.626 31.9643 137.637 31.9064 137.634 31.8483C137.634 31.6102 137.327 31.3034 136.869 31.1203C136.411 30.9371 135.976 30.9463 135.816 31.1203C135.807 31.15 135.801 31.1807 135.798 31.2118Z" fill="#64CF83"/>
<path opacity="0.3" d="M136.109 31.4913C136.173 31.3402 136.476 31.3219 136.787 31.4501C137.098 31.5783 137.309 31.798 137.245 31.9445C137.181 32.0911 137.075 32.0819 136.906 32.0682C137.094 32.0361 137.13 31.8667 136.975 31.7156C136.791 31.5733 136.57 31.4874 136.338 31.4684C136.201 31.4684 136.105 31.5096 136.114 31.6195C136.097 31.5788 136.095 31.5331 136.109 31.4913Z" fill="black"/>
<path d="M140.473 29.4036C141.004 29.2779 141.554 29.2577 142.093 29.3441C141.819 29.3945 141.613 29.7516 141.594 30.4658C141.567 30.6829 141.556 30.9018 141.562 31.1205C141.562 31.1801 141.562 31.235 141.562 31.29H141.141C141.141 31.2396 141.141 31.1801 141.141 31.1205C141.13 30.9021 141.102 30.6847 141.059 30.4704C140.985 29.7745 140.752 29.4357 140.473 29.4036Z" fill="#64CF83"/>
<path opacity="0.2" d="M141.146 31.038C141.216 31.033 141.286 31.033 141.357 31.038C141.427 31.031 141.497 31.031 141.567 31.038C141.567 31.1296 141.567 31.2211 141.567 31.3035H141.146C141.146 31.2211 141.146 31.1341 141.146 31.038Z" fill="black"/>
<path d="M140.647 31.569C140.648 31.6107 140.659 31.6514 140.679 31.6881L140.706 31.7201H140.734C140.921 31.8296 141.136 31.8791 141.352 31.8621C141.567 31.864 141.778 31.7966 141.952 31.6698H141.979C141.988 31.6586 141.996 31.6463 142.002 31.6331V31.6057C142.017 31.5677 142.024 31.5273 142.025 31.4866C142.021 31.4454 142.011 31.4051 141.993 31.3676C141.929 31.2119 141.636 31.1066 141.288 31.1203C140.94 31.1341 140.656 31.2623 140.601 31.4225C140.601 31.4748 140.617 31.5259 140.647 31.569Z" fill="#64CF83"/>
<path opacity="0.3" d="M140.935 31.656C140.935 31.5415 141.123 31.4454 141.361 31.4362C141.599 31.4271 141.819 31.5095 141.819 31.624C141.819 31.7384 141.75 31.7613 141.636 31.8025C141.75 31.7247 141.723 31.6056 141.576 31.5553C141.418 31.506 141.249 31.506 141.091 31.5553C141.004 31.5965 140.953 31.6469 140.99 31.7155C140.977 31.7097 140.966 31.7015 140.957 31.6913C140.947 31.681 140.94 31.6691 140.935 31.656Z" fill="black"/>
<path d="M143.797 28.9594C144.3 28.5531 144.891 28.2708 145.523 28.1353C145.253 28.3321 145.244 28.8999 145.651 29.8522C145.981 30.6351 146.324 31.3722 146.567 31.9034C146.607 31.9797 146.643 32.0529 146.677 32.1231L146.219 32.3475C146.187 32.2788 146.15 32.201 146.109 32.1231C145.848 31.5966 145.473 30.8732 145.056 30.1361C144.571 29.2066 144.117 28.8678 143.797 28.9594Z" fill="#64CF83"/>
<path opacity="0.2" d="M146.1 32.0406C146.171 31.9942 146.244 31.9514 146.319 31.9124C146.395 31.8759 146.473 31.8453 146.553 31.8208C146.599 31.9215 146.649 32.0131 146.69 32.1001L146.232 32.3244C146.182 32.2558 146.15 32.1413 146.1 32.0406Z" fill="black"/>
<path d="M145.688 33.0481C145.716 33.1026 145.755 33.1509 145.802 33.19H145.834L145.889 33.2175H145.921H145.972C146.287 33.2404 146.604 33.1787 146.888 33.0386C147.172 32.8986 147.414 32.6854 147.588 32.4208C147.589 32.4056 147.589 32.3903 147.588 32.3751C147.59 32.3645 147.59 32.3536 147.588 32.343C147.592 32.3219 147.592 32.3001 147.588 32.2789C147.592 32.2656 147.592 32.2511 147.588 32.2377C147.587 32.1759 147.573 32.1149 147.547 32.0591C147.52 32.0059 147.483 31.959 147.437 31.9218C147.254 31.7478 146.796 31.7799 146.333 32.0042C145.871 32.2286 145.564 32.5811 145.592 32.8283C145.601 32.9097 145.634 32.9863 145.688 33.0481Z" fill="#64CF83"/>
<path opacity="0.3" d="M146.132 32.993C146.059 32.8419 146.256 32.5901 146.59 32.4344C146.924 32.2787 147.226 32.2741 147.299 32.4344C147.373 32.5946 147.299 32.6633 147.162 32.7824C147.267 32.613 147.162 32.4664 146.933 32.4848C146.692 32.5257 146.469 32.6372 146.292 32.8052C146.196 32.9197 146.159 33.0159 146.251 33.0891C146.225 33.0836 146.201 33.072 146.18 33.0553C146.159 33.0385 146.143 33.0172 146.132 32.993Z" fill="black"/>
<path d="M147.098 26.8166C147.393 26.2795 147.758 25.7838 148.183 25.3423C148.023 25.6124 148.087 25.9695 148.49 26.3312C148.819 26.6243 149.149 26.8898 149.405 27.073L149.506 27.1508L149.227 27.5354L149.121 27.4575C148.874 27.279 148.522 27.0409 148.142 26.8166C147.679 26.5419 147.322 26.5876 147.098 26.8166Z" fill="#64CF83"/>
<path opacity="0.2" d="M149.066 27.4119C149.104 27.3433 149.147 27.2775 149.195 27.2151C149.242 27.1498 149.292 27.0872 149.346 27.0273L149.511 27.151L149.231 27.5356L149.066 27.4119Z" fill="black"/>
<path d="M149.158 28.1674C149.194 28.1926 149.234 28.2097 149.277 28.2177H149.318C149.333 28.2223 149.349 28.2223 149.364 28.2177H149.387H149.424C149.637 28.1361 149.819 27.9906 149.946 27.8011C150.091 27.6253 150.175 27.4065 150.184 27.1784V27.1418V27.1006V27.0777C150.164 27.0391 150.135 27.0055 150.1 26.9794C150.065 26.9533 150.025 26.9352 149.982 26.9266C149.813 26.8762 149.524 27.0502 149.309 27.3432C149.094 27.6363 149.016 27.9613 149.112 28.1124C149.125 28.1327 149.141 28.1511 149.158 28.1674Z" fill="#64CF83"/>
<path opacity="0.3" d="M149.424 27.9838C149.328 27.9152 149.369 27.6908 149.52 27.4848C149.671 27.2788 149.872 27.1734 149.978 27.2421C150.083 27.3108 150.046 27.3886 150.005 27.5123C150.005 27.3657 149.9 27.3108 149.763 27.3932C149.622 27.5004 149.517 27.6471 149.46 27.8144C149.438 27.9152 149.46 27.9884 149.529 28.0067C149.511 28.0102 149.492 28.01 149.474 28.006C149.456 28.0021 149.439 27.9946 149.424 27.9838Z" fill="black"/>
<path d="M148.746 24.1883C148.734 23.5389 148.918 22.9009 149.273 22.3569C149.273 22.6912 149.804 23.117 151.054 23.529C151.351 23.6298 152.006 23.9136 152.72 24.1197L153.022 24.2066L152.89 24.6874L152.583 24.605C151.864 24.4035 151.09 24.1929 150.88 24.1471C149.598 23.8175 148.929 23.8953 148.746 24.1883Z" fill="#64CF83"/>
<path opacity="0.2" d="M152.592 24.5869C152.613 24.4192 152.659 24.2556 152.729 24.1016L153.031 24.1886L152.899 24.6693L152.592 24.5869Z" fill="black"/>
<path d="M153.082 25.6768C153.147 25.6927 153.214 25.6927 153.279 25.6768H153.325L153.389 25.6493H153.416L153.466 25.6172C153.729 25.3882 153.914 25.0823 153.993 24.7427C154.101 24.411 154.101 24.0535 153.993 23.7217C153.986 23.7046 153.979 23.6878 153.97 23.6714C153.972 23.6608 153.972 23.65 153.97 23.6393L153.929 23.5844L153.897 23.5569C153.846 23.5135 153.787 23.4808 153.723 23.4608C153.658 23.4473 153.591 23.4473 153.526 23.4608C153.256 23.4608 152.94 23.882 152.789 24.4223C152.638 24.9625 152.693 25.4661 152.912 25.6264C152.965 25.654 153.023 25.6711 153.082 25.6768Z" fill="#64CF83"/>
<path opacity="0.3" d="M153.361 25.2784C153.187 25.2281 153.128 24.8847 153.233 24.5093C153.338 24.1338 153.567 23.8728 153.746 23.9232C153.924 23.9736 153.924 24.0972 153.929 24.2941C153.865 24.0835 153.668 24.0606 153.517 24.2574C153.374 24.4846 153.302 24.7493 153.311 25.0175C153.311 25.1731 153.384 25.2784 153.512 25.2556C153.467 25.2823 153.413 25.2905 153.361 25.2784Z" fill="black"/>
<path d="M149.332 20.8875C149.097 20.248 148.999 19.5665 149.044 18.8867C149.144 19.2209 149.643 19.427 150.591 19.3446C151.365 19.2805 151.287 19.2759 151.818 19.2026L152.042 19.1752L152.116 19.6925L151.891 19.7246C151.36 19.807 151.434 19.8482 150.683 20.0039C149.753 20.2007 149.337 20.5396 149.332 20.8875Z" fill="#64CF83"/>
<path opacity="0.2" d="M151.878 19.7337C151.878 19.6513 151.841 19.5643 151.828 19.4727C151.814 19.3811 151.828 19.2941 151.805 19.2117L152.043 19.1797L152.116 19.6971L151.878 19.7337Z" fill="black"/>
<path d="M152.592 20.2418C152.64 20.2376 152.686 20.2201 152.725 20.1914H152.752L152.784 20.1548C152.783 20.1426 152.783 20.1303 152.784 20.1181C152.88 19.8833 152.912 19.627 152.876 19.3759C152.839 19.1247 152.737 18.8878 152.578 18.6897L152.546 18.6622L152.5 18.6347H152.468C152.42 18.6231 152.37 18.6231 152.322 18.6347C152.275 18.6409 152.23 18.6565 152.189 18.6805C152.015 18.7767 151.923 19.1384 151.983 19.5458C152.043 19.9533 152.23 20.2738 152.441 20.315C152.497 20.3059 152.55 20.2804 152.592 20.2418Z" fill="#64CF83"/>
<path opacity="0.3" d="M152.652 19.8939C152.519 19.9168 152.377 19.7016 152.336 19.4361C152.294 19.1705 152.368 18.9095 152.505 18.8912C152.642 18.8729 152.674 18.9553 152.734 19.0835C152.629 18.9645 152.491 19.0103 152.45 19.1842C152.424 19.3794 152.454 19.578 152.537 19.7565C152.597 19.8527 152.665 19.9076 152.743 19.8573C152.718 19.8794 152.685 19.8923 152.652 19.8939Z" fill="black"/>
<path d="M148.471 17.2016C148.185 16.8004 147.922 16.383 147.684 15.9517C147.803 16.1165 148.027 16.295 148.224 16.2309C148.371 16.1843 148.512 16.1213 148.645 16.0432H148.686L148.851 16.3042L148.81 16.3317C148.683 16.415 148.57 16.5186 148.476 16.6384C148.421 16.7218 148.391 16.8194 148.39 16.9193C148.389 17.0193 148.417 17.1173 148.471 17.2016Z" fill="#64CF83"/>
<path opacity="0.2" d="M148.737 16.3456C148.705 16.3047 148.676 16.2619 148.65 16.2174C148.621 16.173 148.595 16.1272 148.572 16.08L148.668 16.0205L148.833 16.2815L148.737 16.3456Z" fill="black"/>
<path opacity="0.3" d="M149.332 16.2542C149.245 16.3091 149.076 16.2038 148.961 16.0207C148.847 15.8375 148.819 15.6361 148.911 15.5628C149.002 15.4895 149.048 15.5628 149.135 15.6269C149.021 15.572 148.938 15.6269 148.961 15.7872C149.002 15.9329 149.087 16.0624 149.204 16.158C149.277 16.2129 149.341 16.2267 149.378 16.158C149.38 16.1768 149.378 16.1959 149.369 16.213C149.361 16.2301 149.348 16.2444 149.332 16.2542Z" fill="black"/>
<path opacity="0.1" d="M145.848 27.9614C143.769 29.335 137.396 29.7928 134.347 24.4772C131.298 19.1616 135.812 14.2672 137.712 13.269C136.612 13.724 135.62 14.4064 134.801 15.2715C133.983 16.1366 133.357 17.1648 132.963 18.2889C132.57 19.4129 132.419 20.6073 132.519 21.7939C132.62 22.9805 132.97 24.1324 133.547 25.1742C134.124 26.216 134.915 27.1241 135.867 27.839C136.819 28.5539 137.912 29.0595 139.073 29.3227C140.235 29.5859 141.439 29.6006 142.606 29.366C143.774 29.1314 144.878 28.6528 145.848 27.9614Z" fill="black"/>
<path d="M135.894 21.0707C135.97 21.3288 135.943 21.6062 135.82 21.845C135.696 22.0838 135.485 22.2657 135.23 22.3527C134.773 22.4306 134.292 21.9864 134.182 21.3592C134.106 21.1011 134.133 20.8238 134.257 20.5849C134.38 20.3461 134.591 20.1642 134.846 20.0772C135.317 19.9994 135.789 20.4435 135.894 21.0707Z" fill="#64CF83"/>
<path opacity="0.15" d="M135.894 21.0707C135.97 21.3288 135.943 21.6062 135.82 21.845C135.696 22.0838 135.485 22.2657 135.23 22.3527C134.773 22.4306 134.292 21.9864 134.182 21.3592C134.106 21.1011 134.133 20.8238 134.257 20.5849C134.38 20.3461 134.591 20.1642 134.846 20.0772C135.317 19.9994 135.789 20.4435 135.894 21.0707Z" fill="black"/>
<path opacity="0.15" d="M134.626 20.4981C134.795 20.2509 135.276 20.434 135.413 21.0064C135.474 21.1893 135.481 21.3859 135.434 21.5727C135.386 21.7594 135.285 21.9284 135.143 22.0594C135.1 22.0804 135.054 22.0927 135.006 22.0955C134.958 22.0983 134.91 22.0917 134.865 22.0759C134.82 22.0602 134.779 22.0356 134.743 22.0037C134.707 21.9718 134.679 21.9332 134.658 21.89C134.814 22.0136 135.02 21.9678 135.139 21.716C135.209 21.5496 135.238 21.3687 135.224 21.1886C135.21 21.0085 135.152 20.8345 135.056 20.6813C134.928 20.4936 134.736 20.4295 134.626 20.4981Z" fill="black"/>
<path d="M145.926 22.7646C145.999 22.1328 146.448 21.6658 146.924 21.7207C147.4 21.7756 147.725 22.3342 147.652 22.9661C147.578 23.5979 147.13 24.0649 146.64 24.0145C146.15 23.9642 145.852 23.3964 145.926 22.7646Z" fill="#64CF83"/>
<path opacity="0.15" d="M145.926 22.7646C145.999 22.1328 146.448 21.6658 146.924 21.7207C147.4 21.7756 147.725 22.3342 147.652 22.9661C147.578 23.5979 147.13 24.0649 146.64 24.0145C146.15 23.9642 145.852 23.3964 145.926 22.7646Z" fill="black"/>
<path opacity="0.15" d="M146.983 23.6663C146.75 23.854 146.343 23.5473 146.37 22.9612C146.397 22.5034 146.654 22.0776 146.924 22.0455C146.971 22.0376 147.019 22.0391 147.065 22.0498C147.112 22.0605 147.155 22.0803 147.194 22.1079C147.233 22.1355 147.266 22.1705 147.291 22.2109C147.316 22.2513 147.333 22.2962 147.341 22.3431C147.226 22.1829 147.02 22.1691 146.832 22.3797C146.725 22.5187 146.651 22.681 146.618 22.8536C146.584 23.0262 146.592 23.2042 146.64 23.3733C146.69 23.5885 146.842 23.6983 146.983 23.6663Z" fill="black"/>
<path d="M140.583 18.4331C140.375 18.5227 140.141 18.5284 139.929 18.449C139.717 18.3696 139.545 18.2113 139.447 18.0073C139.333 17.6228 139.658 17.1878 140.171 17.0367C140.378 16.9468 140.611 16.9404 140.823 17.019C141.035 17.0975 141.208 17.2548 141.306 17.4579C141.421 17.8425 141.096 18.2821 140.583 18.4331Z" fill="#64CF83"/>
<path opacity="0.15" d="M140.583 18.4331C140.375 18.5227 140.141 18.5284 139.929 18.449C139.717 18.3696 139.545 18.2113 139.447 18.0073C139.333 17.6228 139.658 17.1878 140.171 17.0367C140.378 16.9468 140.611 16.9404 140.823 17.019C141.035 17.0975 141.208 17.2548 141.306 17.4579C141.421 17.8425 141.096 18.2821 140.583 18.4331Z" fill="black"/>
<path opacity="0.15" d="M140.931 17.3164C141.155 17.4354 141.054 17.8521 140.587 18.0261C140.44 18.0993 140.274 18.1271 140.111 18.1059C139.948 18.0847 139.795 18.0155 139.671 17.907C139.65 17.8735 139.634 17.8359 139.627 17.7964C139.62 17.7569 139.62 17.7164 139.629 17.6772C139.637 17.638 139.654 17.6009 139.677 17.568C139.7 17.5352 139.729 17.5072 139.763 17.4858C139.676 17.6277 139.731 17.7926 139.955 17.8658C140.101 17.9086 140.255 17.9156 140.404 17.8861C140.553 17.8566 140.693 17.7915 140.812 17.6964C140.967 17.5682 140.999 17.4171 140.931 17.3164Z" fill="black"/>
<path d="M139.827 23.1676C140.395 23.4561 140.683 24.033 140.464 24.4588C140.244 24.8846 139.617 25.0036 139.044 24.7152C138.472 24.4267 138.193 23.8498 138.408 23.424C138.623 22.9982 139.26 22.8838 139.827 23.1676Z" fill="#64CF83"/>
<path opacity="0.15" d="M139.827 23.1676C140.395 23.4561 140.683 24.033 140.464 24.4588C140.244 24.8846 139.617 25.0036 139.044 24.7152C138.472 24.4267 138.193 23.8498 138.408 23.424C138.623 22.9982 139.26 22.8838 139.827 23.1676Z" fill="black"/>
<path opacity="0.15" d="M138.614 23.8543C138.518 23.5659 138.948 23.2866 139.489 23.5201C139.919 23.6987 140.221 24.0878 140.18 24.358C140.172 24.4048 140.154 24.4495 140.128 24.4895C140.103 24.5295 140.069 24.5639 140.03 24.5908C139.991 24.6176 139.947 24.6364 139.9 24.646C139.853 24.6555 139.805 24.6557 139.759 24.6464C139.946 24.596 140.033 24.4083 139.896 24.1611C139.805 24.0053 139.677 23.8739 139.524 23.7782C139.371 23.6826 139.197 23.6254 139.017 23.6117C138.788 23.6025 138.637 23.7078 138.614 23.8543Z" fill="black"/>
<path d="M139.283 15.9702C139.029 16.0688 138.746 16.0641 138.495 15.9572C138.245 15.8503 138.046 15.6495 137.941 15.3979C137.831 14.9401 138.243 14.4318 138.857 14.2853C139.47 14.1388 140.07 14.3952 140.18 14.8622C140.29 15.3292 139.905 15.8237 139.283 15.9702Z" fill="#64CF83"/>
<path opacity="0.15" d="M139.283 15.9702C139.029 16.0688 138.746 16.0641 138.495 15.9572C138.245 15.8503 138.046 15.6495 137.941 15.3979C137.831 14.9401 138.243 14.4318 138.857 14.2853C139.47 14.1388 140.07 14.3952 140.18 14.8622C140.29 15.3292 139.905 15.8237 139.283 15.9702Z" fill="black"/>
<path opacity="0.15" d="M139.772 14.6655C140.029 14.8258 139.882 15.3157 139.314 15.4851C139.137 15.561 138.942 15.5832 138.752 15.549C138.562 15.5148 138.387 15.4257 138.248 15.2928C138.199 15.2089 138.186 15.1094 138.211 15.0159C138.236 14.9224 138.297 14.8425 138.38 14.7937C138.27 14.9586 138.325 15.16 138.591 15.2516C138.762 15.3104 138.944 15.3273 139.122 15.301C139.301 15.2747 139.47 15.206 139.617 15.1005C139.795 14.9677 139.845 14.7891 139.772 14.6655Z" fill="black"/>
<path d="M143.115 22.641C143.256 22.5948 143.408 22.5891 143.553 22.6244C143.698 22.6597 143.83 22.7347 143.934 22.841C144.039 22.9473 144.111 23.0806 144.144 23.226C144.177 23.3713 144.169 23.523 144.12 23.6639C144.072 23.8048 143.985 23.9294 143.869 24.0236C143.754 24.1178 143.614 24.178 143.467 24.1973C143.319 24.2166 143.169 24.1943 143.033 24.1329C142.897 24.0715 142.781 23.9734 142.698 23.8497C142.596 23.6337 142.582 23.3864 142.66 23.1606C142.738 22.9348 142.901 22.7484 143.115 22.641Z" fill="#64CF83"/>
<path opacity="0.15" d="M143.115 22.641C143.256 22.5948 143.408 22.5891 143.553 22.6244C143.698 22.6597 143.83 22.7347 143.934 22.841C144.039 22.9473 144.111 23.0806 144.144 23.226C144.177 23.3713 144.169 23.523 144.12 23.6639C144.072 23.8048 143.985 23.9294 143.869 24.0236C143.754 24.1178 143.614 24.178 143.467 24.1973C143.319 24.2166 143.169 24.1943 143.033 24.1329C142.897 24.0715 142.781 23.9734 142.698 23.8497C142.596 23.6337 142.582 23.3864 142.66 23.1606C142.738 22.9348 142.901 22.7484 143.115 22.641Z" fill="black"/>
<path opacity="0.15" d="M143.119 23.8545C142.858 23.8041 142.826 23.3554 143.243 23.0349C143.367 22.919 143.522 22.8413 143.689 22.8113C143.857 22.7812 144.029 22.8001 144.186 22.8655C144.22 22.8921 144.248 22.9254 144.268 22.9632C144.289 23.0011 144.302 23.0427 144.305 23.0856C144.309 23.1284 144.304 23.1717 144.291 23.2125C144.277 23.2534 144.256 23.2912 144.227 23.3234C144.268 23.154 144.163 23.0075 143.911 23.0029C143.751 23.0087 143.594 23.0534 143.454 23.1331C143.315 23.2129 143.197 23.3253 143.11 23.4607C143.005 23.6118 143.019 23.7767 143.119 23.8545Z" fill="black"/>
<path d="M145.321 19.1158C144.836 18.3786 144.891 17.4858 145.441 17.1195C145.99 16.7532 146.842 17.0509 147.327 17.788C147.812 18.5251 147.762 19.4179 147.208 19.7842C146.654 20.1505 145.807 19.8483 145.321 19.1158Z" fill="#64CF83"/>
<path opacity="0.15" d="M145.321 19.1158C144.836 18.3786 144.891 17.4858 145.441 17.1195C145.99 16.7532 146.842 17.0509 147.327 17.788C147.812 18.5251 147.762 19.4179 147.208 19.7842C146.654 20.1505 145.807 19.8483 145.321 19.1158Z" fill="black"/>
<path opacity="0.15" d="M147.249 19.1245C147.171 19.532 146.461 19.5824 145.967 18.9231C145.578 18.4057 145.482 17.7373 145.715 17.4397C145.757 17.3886 145.809 17.3466 145.868 17.3159C145.927 17.2852 145.991 17.2666 146.057 17.261C146.123 17.2555 146.19 17.2632 146.253 17.2836C146.316 17.3041 146.374 17.3369 146.425 17.3801C146.159 17.316 145.926 17.4809 145.921 17.87C145.922 18.12 145.984 18.3659 146.103 18.5862C146.221 18.8065 146.391 18.9945 146.599 19.1337C146.869 19.3031 147.125 19.2848 147.249 19.1245Z" fill="black"/>
<path d="M136.801 24.8111C136.863 24.9207 136.893 25.0456 136.888 25.1716C136.884 25.2976 136.844 25.4197 136.773 25.5242C136.703 25.6288 136.604 25.7116 136.489 25.7633C136.374 25.8151 136.247 25.8337 136.122 25.8172C135.997 25.8006 135.879 25.7495 135.782 25.6696C135.684 25.5897 135.611 25.4842 135.57 25.3649C135.529 25.2456 135.523 25.1173 135.551 24.9943C135.579 24.8714 135.641 24.7588 135.729 24.6691C135.892 24.5494 136.094 24.4974 136.294 24.5238C136.493 24.5503 136.675 24.6533 136.801 24.8111Z" fill="#64CF83"/>
<path opacity="0.15" d="M136.801 24.8111C136.863 24.9207 136.893 25.0456 136.888 25.1716C136.884 25.2976 136.844 25.4197 136.773 25.5242C136.703 25.6288 136.604 25.7116 136.489 25.7633C136.374 25.8151 136.247 25.8337 136.122 25.8172C135.997 25.8006 135.879 25.7495 135.782 25.6696C135.684 25.5897 135.611 25.4842 135.57 25.3649C135.529 25.2456 135.523 25.1173 135.551 24.9943C135.579 24.8714 135.641 24.7588 135.729 24.6691C135.892 24.5494 136.094 24.4974 136.294 24.5238C136.493 24.5503 136.675 24.6533 136.801 24.8111Z" fill="black"/>
<path opacity="0.15" d="M135.78 25.0219C135.78 24.7976 136.146 24.6969 136.48 24.9807C136.598 25.0641 136.689 25.18 136.742 25.3141C136.795 25.4483 136.807 25.595 136.778 25.7362C136.762 25.7679 136.739 25.796 136.712 25.8189C136.684 25.8417 136.652 25.8587 136.618 25.869C136.584 25.8792 136.548 25.8825 136.513 25.8786C136.477 25.8746 136.443 25.8636 136.412 25.8461C136.558 25.8461 136.663 25.7362 136.622 25.5302C136.594 25.3951 136.532 25.2693 136.443 25.1645C136.353 25.0596 136.238 24.9791 136.109 24.9304C136.053 24.9043 135.988 24.8992 135.928 24.916C135.868 24.9328 135.815 24.9703 135.78 25.0219Z" fill="black"/>
<path d="M140.647 26.2122C141.292 26.2671 141.782 26.7067 141.736 27.192C141.691 27.6773 141.137 28.0253 140.491 27.9703C139.845 27.9154 139.36 27.4713 139.401 26.986C139.443 26.5006 140.001 26.1527 140.647 26.2122Z" fill="#64CF83"/>
<path opacity="0.15" d="M140.647 26.2122C141.292 26.2671 141.782 26.7067 141.736 27.192C141.691 27.6773 141.137 28.0253 140.491 27.9703C139.845 27.9154 139.36 27.4713 139.401 26.986C139.443 26.5006 140.001 26.1527 140.647 26.2122Z" fill="black"/>
<path opacity="0.15" d="M139.772 27.311C139.575 27.0775 139.873 26.6517 140.473 26.67C140.931 26.67 141.389 26.931 141.443 27.2011C141.456 27.2505 141.459 27.302 141.451 27.3524C141.443 27.4028 141.424 27.451 141.397 27.4939C141.369 27.5369 141.333 27.5737 141.291 27.6021C141.248 27.6305 141.201 27.6499 141.15 27.659C141.311 27.5353 141.32 27.3247 141.1 27.1462C140.955 27.0327 140.785 26.9562 140.604 26.9235C140.423 26.8908 140.236 26.9028 140.061 26.9584C139.832 27.0134 139.727 27.1691 139.772 27.311Z" fill="black"/>
<path d="M144.254 25.8459C144.373 25.7239 144.533 25.6514 144.703 25.6429C144.873 25.6344 145.04 25.6906 145.17 25.8001C145.237 25.9552 145.252 26.1279 145.213 26.2923C145.174 26.4566 145.082 26.6039 144.953 26.7121C144.823 26.8203 144.661 26.8836 144.493 26.8925C144.324 26.9014 144.157 26.8555 144.016 26.7616C143.929 26.608 143.905 26.4263 143.949 26.2553C143.994 26.0842 144.103 25.9373 144.254 25.8459Z" fill="#64CF83"/>
<path opacity="0.15" d="M144.254 25.8459C144.373 25.7239 144.533 25.6514 144.703 25.6429C144.873 25.6344 145.04 25.6906 145.17 25.8001C145.237 25.9552 145.252 26.1279 145.213 26.2923C145.174 26.4566 145.082 26.6039 144.953 26.7121C144.823 26.8203 144.661 26.8836 144.493 26.8925C144.324 26.9014 144.157 26.8555 144.016 26.7616C143.929 26.608 143.905 26.4263 143.949 26.2553C143.994 26.0842 144.103 25.9373 144.254 25.8459Z" fill="black"/>
<path opacity="0.15" d="M144.351 26.7615C144.154 26.7615 144.099 26.4135 144.378 26.1525C144.46 26.0571 144.569 25.9877 144.69 25.9527C144.811 25.9178 144.94 25.9188 145.06 25.9557C145.112 25.991 145.148 26.0455 145.16 26.1073C145.172 26.169 145.159 26.233 145.124 26.2853C145.124 26.1571 145.051 26.0564 144.868 26.0747C144.751 26.0886 144.64 26.1309 144.543 26.198C144.446 26.265 144.368 26.3548 144.314 26.4593C144.245 26.5692 144.268 26.6882 144.351 26.7615Z" fill="black"/>
<path d="M142.899 15.5352C142.809 15.5328 142.72 15.5096 142.641 15.4674C142.561 15.4252 142.492 15.3651 142.439 15.2918C142.386 15.2186 142.351 15.1341 142.336 15.045C142.322 14.956 142.328 14.8647 142.354 14.7783C142.38 14.692 142.426 14.6129 142.488 14.5472C142.55 14.4815 142.627 14.431 142.711 14.3997C142.796 14.3684 142.887 14.357 142.977 14.3666C143.066 14.3761 143.153 14.4062 143.229 14.4546C143.623 14.5737 143.874 14.9125 143.783 15.2147C143.706 15.372 143.57 15.4933 143.406 15.5531C143.241 15.6128 143.059 15.6064 142.899 15.5352Z" fill="#64CF83"/>
<path opacity="0.15" d="M142.899 15.5352C142.809 15.5328 142.72 15.5096 142.641 15.4674C142.561 15.4252 142.492 15.3651 142.439 15.2918C142.386 15.2186 142.351 15.1341 142.336 15.045C142.322 14.956 142.328 14.8647 142.354 14.7783C142.38 14.692 142.426 14.6129 142.488 14.5472C142.55 14.4815 142.627 14.431 142.711 14.3997C142.796 14.3684 142.887 14.357 142.977 14.3666C143.066 14.3761 143.153 14.4062 143.229 14.4546C143.623 14.5737 143.874 14.9125 143.783 15.2147C143.706 15.372 143.57 15.4933 143.406 15.5531C143.241 15.6128 143.059 15.6064 142.899 15.5352Z" fill="black"/>
<path opacity="0.15" d="M143.6 14.9627C143.696 15.1367 143.449 15.361 143.073 15.2741C142.78 15.2054 142.542 14.9902 142.538 14.8162C142.538 14.7848 142.544 14.7536 142.556 14.7247C142.568 14.6957 142.587 14.6696 142.609 14.6478C142.632 14.626 142.659 14.609 142.688 14.5978C142.717 14.5866 142.749 14.5815 142.78 14.5827C142.661 14.6376 142.629 14.7658 142.744 14.9124C142.82 15.0016 142.917 15.0711 143.026 15.1149C143.136 15.1588 143.254 15.1756 143.371 15.1642C143.517 15.1413 143.604 15.0543 143.6 14.9627Z" fill="black"/>
<path d="M138.398 20.1409C138.43 20.3136 138.393 20.4917 138.296 20.6377C138.198 20.7837 138.048 20.8863 137.877 20.9238C137.561 20.9238 137.29 20.617 137.268 20.205C137.24 20.035 137.278 19.8609 137.374 19.7181C137.47 19.5752 137.617 19.4743 137.785 19.4358C138.096 19.4037 138.366 19.7288 138.398 20.1409Z" fill="#64CF83"/>
<path opacity="0.15" d="M138.398 20.1409C138.43 20.3136 138.393 20.4917 138.296 20.6377C138.198 20.7837 138.048 20.8863 137.877 20.9238C137.561 20.9238 137.29 20.617 137.268 20.205C137.24 20.035 137.278 19.8609 137.374 19.7181C137.47 19.5752 137.617 19.4743 137.785 19.4358C138.096 19.4037 138.366 19.7288 138.398 20.1409Z" fill="black"/>
<path opacity="0.15" d="M137.607 19.6789C137.74 19.5324 138.037 19.6789 138.065 20.0635C138.091 20.1866 138.081 20.3148 138.037 20.4325C137.992 20.5503 137.914 20.6526 137.813 20.7274C137.783 20.7381 137.752 20.7429 137.721 20.7413C137.69 20.7397 137.659 20.7319 137.631 20.7182C137.603 20.7045 137.577 20.6853 137.557 20.6617C137.536 20.6381 137.521 20.6106 137.511 20.5808C137.602 20.6724 137.74 20.6587 137.831 20.503C137.891 20.4017 137.925 20.2873 137.929 20.1699C137.934 20.0525 137.91 19.9358 137.859 19.83C137.804 19.6972 137.698 19.6423 137.607 19.6789Z" fill="black"/>
<path d="M143.343 19.5689C143.309 19.467 143.303 19.3576 143.327 19.2527C143.35 19.1478 143.402 19.0515 143.477 18.9742C143.552 18.8969 143.646 18.8416 143.75 18.8144C143.854 18.7873 143.964 18.7892 144.067 18.8201C144.17 18.851 144.262 18.9096 144.334 18.9896C144.406 19.0695 144.455 19.1677 144.475 19.2734C144.494 19.3791 144.485 19.4881 144.447 19.5887C144.409 19.6893 144.344 19.7774 144.259 19.8436C144.181 19.8861 144.095 19.9127 144.007 19.9218C143.918 19.931 143.829 19.9226 143.744 19.897C143.659 19.8715 143.58 19.8294 143.511 19.773C143.442 19.7167 143.385 19.6473 143.343 19.5689Z" fill="#64CF83"/>
<path opacity="0.15" d="M143.343 19.5689C143.309 19.467 143.303 19.3576 143.327 19.2527C143.35 19.1478 143.402 19.0515 143.477 18.9742C143.552 18.8969 143.646 18.8416 143.75 18.8144C143.854 18.7873 143.964 18.7892 144.067 18.8201C144.17 18.851 144.262 18.9096 144.334 18.9896C144.406 19.0695 144.455 19.1677 144.475 19.2734C144.494 19.3791 144.485 19.4881 144.447 19.5887C144.409 19.6893 144.344 19.7774 144.259 19.8436C144.181 19.8861 144.095 19.9127 144.007 19.9218C143.918 19.931 143.829 19.9226 143.744 19.897C143.659 19.8715 143.58 19.8294 143.511 19.773C143.442 19.7167 143.385 19.6473 143.343 19.5689Z" fill="black"/>
<path opacity="0.15" d="M144.25 19.5367C144.218 19.729 143.888 19.761 143.641 19.468C143.553 19.3787 143.492 19.2665 143.466 19.1441C143.439 19.0218 143.447 18.8944 143.49 18.7766C143.509 18.7516 143.532 18.7306 143.559 18.7148C143.586 18.6989 143.616 18.6886 143.647 18.6843C143.678 18.6801 143.71 18.682 143.74 18.69C143.771 18.698 143.799 18.7119 143.824 18.7308C143.696 18.7308 143.59 18.7904 143.595 18.9735C143.602 19.0913 143.637 19.2057 143.698 19.3069C143.758 19.4081 143.842 19.4932 143.943 19.555C143.988 19.5896 144.043 19.6068 144.1 19.6034C144.156 19.6 144.21 19.5763 144.25 19.5367Z" fill="black"/>
<path d="M136.229 17.2889C136.142 17.4456 135.998 17.5621 135.827 17.6135C135.656 17.6649 135.471 17.647 135.313 17.5636C135.162 17.505 135.033 17.4006 134.944 17.265C134.855 17.1295 134.81 16.9695 134.817 16.8074C134.823 16.6454 134.88 16.4893 134.979 16.3611C135.078 16.233 135.215 16.139 135.371 16.0924C135.526 16.0458 135.692 16.0489 135.845 16.1012C135.999 16.1536 136.132 16.2525 136.227 16.3843C136.321 16.5161 136.372 16.6742 136.373 16.8363C136.373 16.9985 136.323 17.1567 136.229 17.2889Z" fill="#64CF83"/>
<path opacity="0.15" d="M136.229 17.2889C136.142 17.4456 135.998 17.5621 135.827 17.6135C135.656 17.6649 135.471 17.647 135.313 17.5636C135.162 17.505 135.033 17.4006 134.944 17.265C134.855 17.1295 134.81 16.9695 134.817 16.8074C134.823 16.6454 134.88 16.4893 134.979 16.3611C135.078 16.233 135.215 16.139 135.371 16.0924C135.526 16.0458 135.692 16.0489 135.845 16.1012C135.999 16.1536 136.132 16.2525 136.227 16.3843C136.321 16.5161 136.372 16.6742 136.373 16.8363C136.373 16.9985 136.323 17.1567 136.229 17.2889Z" fill="black"/>
<path opacity="0.15" d="M135.913 16.4374C136.11 16.4053 136.243 16.7121 136.036 17.0372C135.872 17.2935 135.579 17.4446 135.423 17.3897C135.364 17.368 135.317 17.3242 135.29 17.2677C135.264 17.2111 135.26 17.1464 135.281 17.0875C135.281 17.2157 135.409 17.289 135.583 17.2294C135.695 17.1877 135.795 17.1197 135.874 17.0313C135.954 16.9428 136.011 16.8365 136.041 16.7212C136.055 16.5747 136.004 16.4648 135.913 16.4374Z" fill="black"/>
<path d="M141.856 21.8308C141.669 21.9728 141.444 22.0544 141.21 22.0648C140.976 22.0753 140.744 22.0139 140.546 21.889C140.348 21.7641 140.193 21.5816 140.101 21.366C140.01 21.1504 139.986 20.912 140.034 20.6827C140.082 20.4533 140.198 20.2441 140.368 20.0829C140.538 19.9217 140.753 19.8163 140.985 19.7808C141.216 19.7454 141.453 19.7815 141.664 19.8844C141.874 19.9873 142.048 20.152 142.162 20.3565C142.315 20.5932 142.369 20.8807 142.312 21.1566C142.254 21.4326 142.09 21.6748 141.856 21.8308Z" fill="#64CF83"/>
<path opacity="0.15" d="M141.856 21.8308C141.669 21.9728 141.444 22.0544 141.21 22.0648C140.976 22.0753 140.744 22.0139 140.546 21.889C140.348 21.7641 140.193 21.5816 140.101 21.366C140.01 21.1504 139.986 20.912 140.034 20.6827C140.082 20.4533 140.198 20.2441 140.368 20.0829C140.538 19.9217 140.753 19.8163 140.985 19.7808C141.216 19.7454 141.453 19.7815 141.664 19.8844C141.874 19.9873 142.048 20.152 142.162 20.3565C142.315 20.5932 142.369 20.8807 142.312 21.1566C142.254 21.4326 142.09 21.6748 141.856 21.8308Z" fill="black"/>
<path opacity="0.15" d="M141.21 20.0449C140.853 20.0449 140.528 20.4112 140.633 20.9606C140.738 21.51 141.462 21.9038 141.814 21.5421C141.632 21.5289 141.456 21.4672 141.306 21.3634C141.155 21.2595 141.035 21.1173 140.958 20.9515C140.912 20.8761 140.882 20.7922 140.87 20.7049C140.858 20.6175 140.864 20.5287 140.888 20.4437C140.911 20.3588 140.952 20.2796 141.008 20.211C141.063 20.1424 141.132 20.0859 141.21 20.0449Z" fill="black"/>
<path d="M99.4811 64.4017C99.3868 64.4062 99.2935 64.3816 99.2137 64.3311C99.134 64.2805 99.0719 64.2066 99.0358 64.1194C98.9997 64.0322 98.9914 63.936 99.0121 63.8439C99.0329 63.7518 99.0815 63.6684 99.1515 63.605L99.6505 63.1105C99.6938 63.0675 99.7451 63.0335 99.8016 63.0103C99.858 62.9872 99.9185 62.9754 99.9795 62.9756C100.041 62.9758 100.101 62.988 100.157 63.0116C100.213 63.0351 100.265 63.0695 100.308 63.1128C100.351 63.1561 100.385 63.2074 100.408 63.2639C100.431 63.3203 100.443 63.3808 100.442 63.4418C100.442 63.5028 100.43 63.5632 100.406 63.6194C100.383 63.6757 100.349 63.7268 100.305 63.7698L99.8108 64.2643C99.7678 64.3081 99.7165 64.3428 99.6599 64.3664C99.6033 64.39 99.5425 64.402 99.4811 64.4017Z" fill="#E0E0E0"/>
<path d="M101.853 62.0166C101.758 62.0212 101.665 61.9965 101.585 61.946C101.506 61.8955 101.443 61.8216 101.407 61.7343C101.371 61.6471 101.363 61.5509 101.384 61.4588C101.404 61.3667 101.453 61.2833 101.523 61.2199L102.466 60.3042C102.554 60.2168 102.672 60.1677 102.796 60.1677C102.92 60.1677 103.038 60.2168 103.126 60.3042C103.213 60.3917 103.262 60.5102 103.262 60.6339C103.262 60.7575 103.213 60.8761 103.126 60.9635L102.182 61.8792C102.139 61.923 102.088 61.9578 102.031 61.9814C101.975 62.005 101.914 62.0169 101.853 62.0166ZM104.678 59.1962C104.584 59.1998 104.491 59.1744 104.412 59.1235C104.333 59.0726 104.272 58.9987 104.236 58.9117C104.201 58.8247 104.193 58.7289 104.214 58.6373C104.234 58.5457 104.283 58.4627 104.353 58.3996L105.291 57.4839C105.379 57.3965 105.497 57.3473 105.621 57.3473C105.744 57.3473 105.863 57.3965 105.95 57.4839C106.038 57.5713 106.087 57.6899 106.087 57.8135C106.087 57.9372 106.038 58.0557 105.95 58.1432L105.007 59.0864C104.963 59.1277 104.911 59.1599 104.855 59.1811C104.798 59.2023 104.738 59.2121 104.678 59.21V59.1962ZM107.507 56.3805C107.413 56.3851 107.319 56.3604 107.24 56.3099C107.16 56.2594 107.098 56.1854 107.062 56.0982C107.026 56.011 107.017 55.9148 107.038 55.8227C107.059 55.7306 107.108 55.6472 107.177 55.5838L108.121 54.6681C108.164 54.6251 108.215 54.5911 108.272 54.5679C108.328 54.5448 108.389 54.533 108.45 54.5332C108.511 54.5334 108.571 54.5456 108.627 54.5692C108.684 54.5927 108.735 54.6271 108.778 54.6704C108.821 54.7137 108.855 54.765 108.878 54.8215C108.901 54.8779 108.913 54.9384 108.913 54.9994C108.912 55.0604 108.9 55.1208 108.877 55.177C108.853 55.2333 108.819 55.2844 108.775 55.3274L107.837 56.2431C107.795 56.2894 107.744 56.3267 107.688 56.3527C107.631 56.3787 107.569 56.3928 107.507 56.3942V56.3805ZM110.332 53.5601C110.238 53.5647 110.144 53.5401 110.065 53.4895C109.985 53.439 109.923 53.3651 109.887 53.2779C109.851 53.1907 109.842 53.0944 109.863 53.0023C109.884 52.9102 109.932 52.8268 110.002 52.7635L110.946 51.8478C111.034 51.7603 111.153 51.7114 111.277 51.7119C111.401 51.7123 111.52 51.762 111.607 51.85C111.695 51.9381 111.743 52.0572 111.743 52.1813C111.743 52.3054 111.693 52.4242 111.605 52.5116L110.662 53.4502C110.618 53.4916 110.566 53.5238 110.509 53.545C110.453 53.5662 110.392 53.576 110.332 53.5738V53.5601ZM113.157 50.7443C113.063 50.7479 112.97 50.7226 112.891 50.6716C112.812 50.6207 112.751 50.5468 112.716 50.4598C112.68 50.3728 112.672 50.277 112.693 50.1854C112.714 50.0938 112.762 50.0108 112.832 49.9477L113.748 49.032C113.835 48.9446 113.954 48.8954 114.077 48.8954C114.201 48.8954 114.32 48.9446 114.407 49.032C114.494 49.1194 114.543 49.238 114.543 49.3616C114.543 49.4853 114.494 49.6039 114.407 49.6913L113.464 50.6299C113.381 50.7095 113.272 50.7553 113.157 50.7581V50.7443ZM115.987 47.9286C115.892 47.9332 115.799 47.9085 115.719 47.858C115.639 47.8075 115.577 47.7335 115.541 47.6463C115.505 47.5591 115.497 47.4629 115.518 47.3708C115.538 47.2787 115.587 47.1953 115.657 47.1319L116.6 46.1887C116.688 46.1013 116.807 46.0524 116.931 46.0529C117.055 46.0533 117.174 46.103 117.262 46.191C117.349 46.2791 117.398 46.3982 117.398 46.5223C117.397 46.6464 117.347 46.7652 117.259 46.8526L116.316 47.8233C116.272 47.8638 116.22 47.8952 116.163 47.9156C116.107 47.936 116.047 47.9451 115.987 47.9423V47.9286ZM118.811 45.1082C118.717 45.1128 118.624 45.0882 118.544 45.0376C118.464 44.9871 118.402 44.9132 118.366 44.826C118.33 44.7388 118.322 44.6425 118.342 44.5504C118.363 44.4584 118.412 44.3749 118.482 44.3116L119.425 43.373C119.512 43.2855 119.631 43.2364 119.755 43.2364C119.878 43.2364 119.997 43.2855 120.084 43.373C120.172 43.4604 120.221 43.579 120.221 43.7026C120.221 43.8263 120.172 43.9448 120.084 44.0323L119.141 44.9709C119.099 45.0172 119.049 45.0545 118.992 45.0804C118.935 45.1064 118.874 45.1205 118.811 45.122V45.1082ZM121.641 42.3291C121.547 42.3337 121.453 42.309 121.374 42.2585C121.294 42.208 121.232 42.134 121.196 42.0468C121.16 41.9596 121.151 41.8634 121.172 41.7713C121.193 41.6792 121.241 41.5958 121.311 41.5324L122.25 40.6167C122.337 40.5293 122.456 40.4802 122.58 40.4802C122.703 40.4802 122.822 40.5293 122.909 40.6167C122.997 40.7041 123.046 40.8227 123.046 40.9464C123.046 41.07 122.997 41.1886 122.909 41.276L121.966 42.2146C121.877 42.2936 121.76 42.3347 121.641 42.3291ZM124.466 39.5087C124.372 39.5133 124.278 39.4887 124.198 39.4381C124.119 39.3876 124.057 39.3137 124.021 39.2265C123.984 39.1393 123.976 39.043 123.997 38.9509C124.018 38.8589 124.066 38.7754 124.136 38.7121L125.079 37.7964C125.122 37.7521 125.173 37.7168 125.23 37.6927C125.287 37.6687 125.348 37.6562 125.409 37.6562C125.471 37.6562 125.532 37.6687 125.588 37.6927C125.645 37.7168 125.696 37.7521 125.739 37.7964C125.783 37.8391 125.818 37.8903 125.842 37.9469C125.866 38.0036 125.879 38.0645 125.879 38.126C125.879 38.1876 125.866 38.2485 125.842 38.3051C125.818 38.3617 125.783 38.413 125.739 38.4557L124.796 39.3714C124.705 39.4515 124.587 39.4927 124.466 39.4858V39.5087Z" fill="#E0E0E0"/>
<path d="M127.291 36.6699C127.196 36.6745 127.103 36.6498 127.023 36.5993C126.944 36.5488 126.881 36.4748 126.845 36.3876C126.809 36.3004 126.801 36.2042 126.822 36.1121C126.842 36.02 126.891 35.9366 126.961 35.8732L127.456 35.3787C127.543 35.2913 127.662 35.2422 127.785 35.2422C127.909 35.2422 128.027 35.2913 128.115 35.3787C128.202 35.4662 128.251 35.5847 128.251 35.7084C128.251 35.832 128.202 35.9506 128.115 36.038L127.62 36.5325C127.577 36.5763 127.526 36.6111 127.469 36.6347C127.413 36.6583 127.352 36.6702 127.291 36.6699Z" fill="#E0E0E0"/>
<path d="M140.793 39.4121C139.905 39.4117 139.017 39.3475 138.138 39.2198C133.446 38.5345 129.202 36.056 126.301 32.3057C123.399 28.5555 122.065 23.8259 122.579 19.112C123.093 14.3981 125.416 10.0675 129.058 7.03116C132.7 3.99483 137.378 2.48957 142.107 2.83204C146.837 3.17452 151.249 5.33804 154.416 8.86743C157.583 12.3968 159.257 17.0169 159.087 21.7557C158.917 26.4945 156.915 30.9825 153.503 34.2756C150.091 37.5686 145.535 39.4099 140.793 39.4121ZM140.734 4.00667C136.92 4.01645 133.221 5.31286 130.236 7.6861C127.25 10.0593 125.153 13.3705 124.283 17.0838C123.413 20.7972 123.822 24.6953 125.443 28.1475C127.064 31.5996 129.803 34.4038 133.216 36.1061C136.628 37.8085 140.516 38.3095 144.249 37.528C147.981 36.7465 151.341 34.7282 153.785 31.7998C156.228 28.8715 157.612 25.2043 157.712 21.3918C157.812 17.5793 156.623 13.8446 154.336 10.792C152.757 8.67663 150.704 6.96092 148.342 5.78254C145.979 4.60417 143.374 3.99594 140.734 4.00667Z" fill="#455A64"/>
<path d="M128.775 8.1075L127.701 9.11133L151.787 34.8678L152.86 33.864L128.775 8.1075Z" fill="#455A64"/>
</svg>
