<svg width="128" height="251" viewBox="0 0 128 251" fill="none" xmlns="http://www.w3.org/2000/svg">
<g clip-path="url(#clip0)">
<g opacity="0.3">
<path d="M33.7402 182.274C62.2723 161.455 68.5248 121.447 47.7057 92.9154C26.8865 64.3834 -13.1206 58.1309 -41.6526 78.9501C-70.1847 99.7692 -76.4372 139.776 -55.618 168.308C-34.7989 196.84 5.20821 203.093 33.7402 182.274Z" fill="#64CF83"/>
<path d="M19.6437 71.1591C13.9171 71.484 8.22723 70.0579 3.3308 67.0705C6.26363 67.112 9.8569 62.2438 13.122 51.1999C15.793 42.1795 18.1559 33.4208 19.7743 27.1004C20.0199 26.1447 20.2436 25.2605 20.4591 24.4284L24.6958 25.4967C24.4907 26.3304 24.267 27.2147 24.0319 28.1719C22.4761 34.5022 20.4109 43.3394 18.511 52.5552C16.1822 63.8309 17.0311 69.8209 19.6437 71.1591Z" fill="#64CF83"/>
<path opacity="0.2" d="M24.0315 28.1722C23.3004 28.1161 22.5747 28.0027 21.8613 27.8331C21.1458 27.6601 20.4455 27.4291 19.7674 27.1424C20.013 26.1868 20.2367 25.3025 20.4522 24.4705L24.6889 25.5387C24.4903 26.3307 24.2666 27.215 24.0315 28.1722Z" fill="black"/>
<path d="M30.4458 24.3324C30.5478 23.9135 30.5576 23.4774 30.4745 23.0543C30.4617 22.9616 30.444 22.8696 30.4214 22.7788L30.4377 22.6745C30.3896 22.5317 30.3289 22.3934 30.2564 22.2614C30.2662 22.1988 30.1805 22.1319 30.1469 22.0732C30.0867 21.9697 30.0202 21.8701 29.9477 21.7749C28.3664 20.2186 26.3976 19.1135 24.2455 18.5742C22.0933 18.0348 19.8361 18.0809 17.7078 18.7076C17.6004 18.7524 17.496 18.8039 17.3951 18.8618L17.2054 18.9818C17.0786 19.0616 16.9602 19.1542 16.8522 19.2579C16.8256 19.2918 16.7957 19.323 16.7629 19.3509C16.7002 19.4156 16.6429 19.4853 16.5914 19.5592C16.315 19.8898 16.1187 20.2798 16.0178 20.6987C15.9155 21.1055 15.9003 21.5293 15.9731 21.9423C16.1713 23.6834 18.7705 25.586 22.2625 26.4952C25.7544 27.4043 28.9768 26.8925 29.971 25.4553C30.2019 25.1161 30.3633 24.7344 30.4458 24.3324Z" fill="#64CF83"/>
<path opacity="0.3" d="M27.8312 22.5987C27.5338 23.7493 25.3384 24.1864 22.9208 23.5841C20.5031 22.9818 18.782 21.5478 19.0794 20.3972C19.2528 19.6975 20.158 19.2404 21.409 19.1687C20.0784 19.6127 19.975 20.8899 21.2743 21.8091C22.7507 22.6822 24.4545 23.0936 26.1666 22.9905C27.1755 22.8275 27.8299 22.4702 27.6672 21.6645C27.8407 21.9429 27.8995 22.2778 27.8312 22.5987Z" fill="black"/>
<path d="M-13.6168 193.699C-8.09369 192.074 -2.206 192.178 3.25668 193.995C0.380885 194.614 -1.91913 195.858 -2.59445 207.36C-3.15233 216.743 -3.38742 217.358 -3.52981 223.877C-3.55462 224.857 -3.56966 225.774 -3.58697 226.637L-7.96649 226.551C-7.95429 225.698 -7.93926 224.781 -7.92141 223.8C-7.84325 217.282 -7.8755 216.667 -8.14775 207.262C-8.48318 195.73 -10.7675 194.411 -13.6168 193.699Z" fill="#64CF83"/>
<path d="M-14.7577 229.722C-14.7616 230.233 -14.6546 230.738 -14.4441 231.203C-14.4058 231.306 -14.3607 231.406 -14.3091 231.502L-14.2436 231.63C-14.1464 231.778 -14.04 231.919 -13.925 232.054L-13.7408 232.243L-13.4324 232.526C-11.9388 233.775 -9.16772 234.646 -5.97959 234.696C-2.79146 234.745 -0.000428372 233.984 1.53271 232.792L1.84246 232.519C1.85388 232.446 1.97844 232.402 2.03159 232.335C2.15654 232.207 2.26799 232.067 2.36418 231.917C2.36418 231.917 2.37886 231.823 2.38538 231.781C2.44317 231.69 2.49386 231.594 2.53699 231.495C2.76541 231.033 2.88837 230.527 2.897 230.012C2.90097 229.516 2.80324 229.024 2.6098 228.567C1.91995 226.621 -1.60103 225.076 -5.88665 225.005C-10.1723 224.934 -13.738 226.343 -14.4981 228.266C-14.6835 228.728 -14.7719 229.224 -14.7577 229.722Z" fill="#64CF83"/>
<path d="M14.186 191.77C17.8784 188.641 22.4332 186.707 27.2485 186.222C25.2458 187.684 25.2906 192.8 28.7334 201.889C29.4963 203.846 29.6319 205.236 31.7628 210.271C32.0813 211.037 32.3767 211.746 32.6682 212.412L29.2364 213.853C28.9554 213.189 28.6512 212.468 28.3206 211.711C27.1457 208.979 25.8328 206.309 24.3871 203.71C20.213 194.924 16.618 191.391 14.186 191.77Z" fill="#64CF83"/>
<path opacity="0.2" d="M28.3523 211.716C28.8823 211.41 29.4317 211.138 29.9969 210.904C30.5678 210.663 31.156 210.465 31.7567 210.313C32.0752 211.079 32.3706 211.788 32.662 212.453L29.2303 213.894C28.9871 213.194 28.6764 212.514 28.3523 211.716Z" fill="black"/>
<path d="M25.9945 217.568C26.136 217.899 26.3489 218.195 26.6179 218.435C26.6745 218.491 26.7341 218.543 26.7966 218.591L26.8823 218.658C26.9837 218.73 27.0926 218.79 27.2071 218.837L27.3844 218.865L27.6684 218.963C29.5241 219.211 31.4124 218.956 33.136 218.226C34.8597 217.495 36.3554 216.314 37.4671 214.808C37.5141 214.721 37.5567 214.631 37.5946 214.539C37.6044 214.477 37.6141 214.414 37.6239 214.351C37.6528 214.231 37.6719 214.109 37.681 213.986C37.6917 213.952 37.6972 213.917 37.6973 213.882C37.7149 213.806 37.7269 213.73 37.7332 213.652C37.7517 213.276 37.6862 212.901 37.5415 212.554C37.4033 212.229 37.1973 211.938 36.9374 211.7C35.9178 210.632 33.1888 210.655 30.3847 211.841C27.5806 213.028 25.6193 214.976 25.7298 216.458C25.7336 216.843 25.8241 217.223 25.9945 217.568Z" fill="#64CF83"/>
<path opacity="0.3" d="M28.6404 217.394C28.2491 216.477 29.497 215.059 31.4315 214.239C33.366 213.419 35.2558 213.5 35.6767 214.432C35.9098 214.992 35.5338 215.756 34.735 216.422C35.4093 215.459 34.827 214.534 33.4853 214.57C32.0488 214.739 30.6949 215.331 29.596 216.271C28.9964 216.894 28.7469 217.464 29.2621 217.929C29.128 217.886 29.0039 217.816 28.8971 217.724C28.7903 217.632 28.703 217.52 28.6404 217.394Z" fill="black"/>
<path d="M36.5304 179.838C39.0239 174.67 43.0262 170.38 48.0088 167.534C46.5415 170.084 49.0816 175.579 57.1735 183.78C63.7693 190.476 70.2986 196.777 75.0507 201.25C75.7676 201.928 76.4318 202.534 77.0646 203.136L74.0743 206.334L72.0571 204.469C67.2672 200.033 60.5214 193.955 53.3863 187.838C44.6158 180.354 38.967 178.199 36.5304 179.838Z" fill="#64CF83"/>
<path opacity="0.2" d="M72.0449 204.468C72.4441 203.858 72.8917 203.281 73.3834 202.743C73.8824 202.202 74.4217 201.701 74.9967 201.242C75.7137 201.921 76.3778 202.527 77.0107 203.128L74.0203 206.327L72.0449 204.468Z" fill="black"/>
<path d="M71.7479 213.967C72.1428 214.33 72.6092 214.607 73.1173 214.779L73.4616 214.833L73.6076 214.856C73.7882 214.905 73.9737 214.934 74.1606 214.942L74.4401 214.932L74.8737 214.893C76.8952 214.611 79.522 213.055 81.8031 210.632C84.0842 208.21 85.4557 205.453 85.6035 203.413C85.6153 203.267 85.6167 203.121 85.6077 202.975C85.6208 202.892 85.6354 202.798 85.6501 202.704C85.6297 202.519 85.5977 202.335 85.5543 202.154C85.5543 202.154 85.5673 202.071 85.5024 202.007C85.4713 201.898 85.4307 201.792 85.3812 201.689C85.1943 201.193 84.8991 200.746 84.5172 200.378C84.1324 200.02 83.6756 199.749 83.1775 199.581C81.1706 198.744 77.4878 200.424 74.4186 203.717C71.3494 207.01 69.9345 210.797 70.8643 212.781C71.077 213.231 71.3774 213.634 71.7479 213.967Z" fill="#64CF83"/>
<path opacity="0.3" d="M75.236 212.16C74.1546 211.147 74.9975 208.489 77.1169 206.212C79.2363 203.936 81.8321 202.92 82.9168 203.912C83.5777 204.539 83.5209 205.792 82.8616 207.206C83.1339 205.464 81.8473 204.6 80.0573 205.453C78.2072 206.556 76.7281 208.186 75.8093 210.134C75.3769 211.327 75.3893 212.206 76.3583 212.571C75.9453 212.584 75.5433 212.437 75.236 212.16Z" fill="black"/>
<path d="M53.278 158.642C53.9932 153.306 55.7631 148.165 58.4846 143.519C57.998 146.222 60.5877 149.417 67.2185 152.195C72.6374 154.453 77.939 156.436 81.7792 157.784C82.3559 157.992 82.8926 158.183 83.4012 158.348L82.0486 162.283L80.4129 161.739C76.5661 160.432 71.1668 158.734 65.5085 157.187C58.5624 155.331 54.5506 156.244 53.278 158.642Z" fill="#64CF83"/>
<path opacity="0.2" d="M80.3279 161.801C80.4812 161.162 80.6723 160.487 80.9149 159.755C81.1422 159.095 81.404 158.447 81.6991 157.815L83.3926 158.4L82.04 162.336L80.3279 161.801Z" fill="black"/>
<path d="M83.0902 167.791C83.4545 167.916 83.8424 167.959 84.2252 167.914C84.3089 167.911 84.3923 167.903 84.475 167.889L84.5689 167.904C84.7009 167.879 84.8294 167.838 84.9514 167.782L85.1258 167.692L85.4056 167.543C86.907 166.256 88.0379 164.591 88.6815 162.721C89.3251 160.85 89.4582 158.842 89.0671 156.903C89.0336 156.806 88.995 156.711 88.9514 156.618L88.8628 156.433C88.7968 156.316 88.7214 156.204 88.6371 156.099L88.5651 156.012L88.4001 155.837C88.1224 155.57 87.7889 155.368 87.4236 155.246C87.0763 155.106 86.7015 155.048 86.3281 155.075C84.7728 155.11 82.852 157.279 81.8098 160.322C80.7676 163.366 80.9374 166.246 82.1402 167.236C82.4166 167.483 82.7396 167.671 83.0902 167.791Z" fill="#64CF83"/>
<path opacity="0.3" d="M84.8332 165.594C83.8176 165.254 83.6047 163.264 84.3283 161.165C85.0519 159.066 86.4491 157.649 87.4543 157.987C88.0624 158.2 88.359 159.037 88.3668 160.15C88.0767 158.929 86.9515 158.743 86.0401 159.786C85.1556 161.033 84.6601 162.514 84.6161 164.042C84.6878 164.951 84.9561 165.56 85.6845 165.481C85.5573 165.556 85.4164 165.604 85.2702 165.623C85.124 165.643 84.9755 165.633 84.8332 165.594Z" fill="black"/>
<path d="M59.7718 133.299C57.5961 127.992 57.0852 122.15 58.3071 116.546C59.2174 119.339 64.9874 121.128 76.5052 120.608C85.8919 120.184 94.9484 119.547 101.447 119.002L104.196 118.78L104.587 123.116L101.845 123.361C95.3385 123.958 86.3199 124.9 77.0019 126.116C65.5845 127.634 60.2251 130.399 59.7718 133.299Z" fill="#64CF83"/>
<path opacity="0.2" d="M101.852 123.384C101.683 122.662 101.565 121.929 101.5 121.191C101.436 120.457 101.426 119.72 101.47 118.985L104.22 118.762L104.611 123.099L101.852 123.384Z" fill="black"/>
<path d="M109.333 130.774C109.918 130.718 110.484 130.541 110.996 130.253C111.107 130.191 111.215 130.122 111.317 130.047L111.459 129.962C111.621 129.835 111.772 129.694 111.909 129.541L112.105 129.315C112.199 129.191 112.293 129.067 112.391 128.922C113.632 127.063 114.263 123.784 113.977 120.138C113.692 116.491 112.437 113.377 110.882 111.766C110.774 111.649 110.659 111.539 110.538 111.434L110.302 111.237C110.137 111.118 109.965 111.009 109.787 110.911L109.62 110.885L109.278 110.746C108.727 110.532 108.136 110.44 107.546 110.475C106.978 110.521 106.426 110.69 105.929 110.971C103.78 112.003 102.437 116.218 102.869 121.117C103.3 126.015 105.347 129.948 107.642 130.584C108.186 130.767 108.762 130.832 109.333 130.774Z" fill="#64CF83"/>
<path opacity="0.3" d="M110.366 126.628C108.752 126.76 107.207 124.135 106.914 120.744C106.621 117.353 107.694 114.453 109.29 114.36C110.287 114.27 111.289 115.25 111.922 116.802C110.749 115.283 109.066 115.725 108.452 117.81C107.998 120.105 108.229 122.482 109.115 124.647C109.778 125.873 110.528 126.546 111.502 125.993C111.216 126.34 110.811 126.567 110.366 126.628Z" fill="black"/>
<path d="M55.5901 107.464C51.6145 103.012 48.6758 97.734 46.9854 92.01C48.8898 94.3919 53.7914 94.4204 61.7305 90.6056C68.2027 87.4913 74.3509 84.2623 78.721 81.8778C79.3859 81.5221 79.9953 81.1791 80.5685 80.8625L82.7949 84.8766L80.9547 85.9144C76.6181 88.3576 70.6307 91.8576 64.5582 95.697C57.1443 100.46 54.5748 104.59 55.5901 107.464Z" fill="#64CF83"/>
<path opacity="0.2" d="M80.9956 85.9213C80.5555 85.2906 80.1474 84.6382 79.7727 83.9666C79.3818 83.2535 79.0518 82.5606 78.762 81.8847C79.4268 81.529 80.0362 81.186 80.6094 80.8695L82.8359 84.8835L80.9956 85.9213Z" fill="black"/>
<path d="M88.316 87.91C88.6936 87.7035 89.0199 87.4148 89.271 87.0652C89.3362 86.9899 89.3805 86.9113 89.4353 86.8344C89.4901 86.7574 89.4467 86.7613 89.4533 86.7196C89.5255 86.5885 89.5863 86.4514 89.6349 86.3098L89.6691 86.0907C89.6871 85.9759 89.705 85.8611 89.723 85.7464C89.7773 83.5274 89.2389 81.3341 88.1634 79.3924C87.0878 77.4508 85.514 75.831 83.604 74.7002L83.2695 74.5838L83.0504 74.5495C82.9072 74.5108 82.7603 74.4878 82.6121 74.481L82.4869 74.4615C82.3985 74.4366 82.3075 74.4223 82.2157 74.4191C81.7879 74.447 81.3714 74.5679 80.9952 74.7734C80.6271 74.9796 80.3064 75.2608 80.0539 75.599C78.9163 76.9282 79.2892 80.1503 80.9894 83.2912C82.6897 86.4321 85.2781 88.472 87.0082 88.2079C87.4611 88.2097 87.9085 88.1078 88.316 87.91Z" fill="#64CF83"/>
<path opacity="0.3" d="M87.7959 84.8142C86.7652 85.3906 84.9377 84.0896 83.7298 81.9021C82.5218 79.7145 82.3882 77.4918 83.4381 76.9291C84.0821 76.5701 85.0302 76.9321 85.9347 77.7789C84.6918 77.1143 83.7015 77.9109 83.9049 79.4818C84.2912 81.163 85.1684 82.6915 86.4252 83.8731C87.2354 84.5021 87.939 84.719 88.4167 84.0561C88.3698 84.2179 88.2906 84.3684 88.1839 84.4987C88.0772 84.629 87.9452 84.7363 87.7959 84.8142Z" fill="black"/>
<path d="M39.3766 83.5208C35.6028 81.4111 32.1313 78.8013 29.0564 75.762C30.6296 76.6385 33.668 76.4828 36.5006 73.4731C39.0553 70.8048 41.1561 68.2365 42.6058 66.3468L43.2106 65.5542L45.3922 67.1884L44.7841 68.0019C42.9507 70.4786 41.2845 73.0747 39.7965 75.7731C37.6379 79.6684 38.0894 82.2508 39.3766 83.5208Z" fill="#64CF83"/>
<path opacity="0.2" d="M44.7842 68.0021C44.4207 67.7742 44.0448 67.5124 43.6564 67.2166C43.2904 66.9464 42.9396 66.6561 42.6059 66.3469L43.2107 65.5543L45.3923 67.1886L44.7842 68.0021Z" fill="black"/>
<path d="M50.7364 67.3928C50.9323 67.1244 51.071 66.8187 51.144 66.4946L51.1913 66.192C51.2023 66.0748 51.2028 65.9568 51.1929 65.8395C51.1887 65.7839 51.1794 65.7288 51.1652 65.6749C51.1783 65.5914 51.1392 65.4998 51.1121 65.3993C50.4556 63.8136 49.3869 62.4323 48.0167 61.3987C46.6465 60.3651 45.0248 59.7169 43.3197 59.5213C43.2289 59.5184 43.1382 59.5257 43.0491 59.5432L42.8926 59.5187C42.7782 59.5422 42.6659 59.5747 42.5567 59.6159L42.4651 59.655C42.401 59.6843 42.3387 59.7174 42.2786 59.7541C41.9841 59.9052 41.7275 60.1208 41.528 60.385C41.3345 60.6467 41.1969 60.9453 41.1237 61.2624C40.7392 62.5597 42.0058 64.7137 44.233 66.3978C46.4602 68.0819 48.8867 68.6963 50.0253 67.9764C50.2963 67.8275 50.5375 67.6296 50.7364 67.3928Z" fill="#64CF83"/>
<path opacity="0.3" d="M49.3887 65.4188C48.837 66.1449 47.1374 65.8044 45.5994 64.6342C44.0615 63.4639 43.2614 61.9494 43.8131 61.2233C44.1626 60.7649 44.9592 60.729 45.8512 61.0395C44.7948 60.9599 44.3005 61.8659 44.9549 62.8767C45.7429 63.9414 46.8298 64.7475 48.0774 65.1925C48.8501 65.3774 49.4155 65.3161 49.5446 64.6949C49.5817 64.9471 49.5264 65.2042 49.3887 65.4188Z" fill="black"/>
<path opacity="0.1" d="M49.203 166.182C38.2374 181.634 -5.61891 202.024 -41.5651 172.486C-77.5112 142.947 -58.6922 96.326 -47.9158 84.1366C-54.4547 90.3205 -59.6148 97.8149 -63.0587 106.13C-66.5026 114.445 -68.1527 123.393 -67.9012 132.389C-67.6496 141.386 -65.5021 150.228 -61.599 158.337C-57.6958 166.447 -52.125 173.641 -45.2507 179.45C-38.3764 185.259 -30.3535 189.551 -21.7065 192.047C-13.0594 194.543 -3.98306 195.185 4.92924 193.932C13.8415 192.679 22.3891 189.559 30.0129 184.777C37.6368 179.994 44.1654 173.656 49.1717 166.177L49.203 166.182Z" fill="black"/>
<path d="M35.7672 129.184C34.5949 124.512 36.4852 120.008 39.9958 119.157C43.5064 118.305 47.3136 121.369 48.4909 126.01C49.6681 130.651 47.7817 135.198 44.2727 136.039C40.7637 136.88 36.9451 133.889 35.7672 129.184Z" fill="#64CF83"/>
<path opacity="0.15" d="M35.7672 129.184C34.5949 124.512 36.4852 120.008 39.9958 119.157C43.5064 118.305 47.3136 121.369 48.4909 126.01C49.6681 130.651 47.7817 135.198 44.2727 136.039C40.7637 136.88 36.9451 133.889 35.7672 129.184Z" fill="black"/>
<path opacity="0.15" d="M45.6846 132.754C44.5238 134.71 40.7993 133.647 39.4317 129.404C38.3558 126.029 39.071 122.411 40.8151 121.304C41.126 121.118 41.4707 120.996 41.8293 120.944C42.1879 120.892 42.5532 120.912 42.904 121.003C43.2548 121.094 43.5841 121.253 43.8727 121.472C44.1614 121.691 44.4037 121.965 44.5855 122.279C43.3341 121.463 41.8333 121.902 41.1293 123.876C40.6939 125.169 40.5781 126.548 40.7919 127.896C41.0057 129.243 41.5427 130.519 42.3569 131.614C43.4038 132.985 44.8 133.353 45.6846 132.754Z" fill="black"/>
<path d="M-6.30466 148.486C-1.50944 148.989 2.06594 152.306 1.69444 155.914C1.32294 159.522 -2.86528 162.042 -7.6517 161.55C-12.4381 161.059 -16.0327 157.729 -15.6612 154.121C-15.2897 150.513 -11.1015 147.993 -6.30466 148.486Z" fill="#64CF83"/>
<path opacity="0.15" d="M-6.30466 148.486C-1.50944 148.989 2.06594 152.306 1.69444 155.914C1.32294 159.522 -2.86528 162.042 -7.6517 161.55C-12.4381 161.059 -16.0327 157.729 -15.6612 154.121C-15.2897 150.513 -11.1015 147.993 -6.30466 148.486Z" fill="black"/>
<path opacity="0.15" d="M-13.0331 156.594C-14.4781 154.829 -12.2041 151.7 -7.74207 151.874C-4.21452 152.008 -1.0509 153.924 -0.608521 155.949C-0.541047 156.305 -0.544861 156.67 -0.619735 157.025C-0.694609 157.379 -0.839066 157.715 -1.04471 158.013C-1.25036 158.311 -1.51311 158.565 -1.81773 158.76C-2.12235 158.956 -2.46277 159.089 -2.81927 159.152C-1.61285 158.272 -1.51596 156.695 -3.13932 155.319C-4.20409 154.463 -5.46034 153.879 -6.80042 153.615C-8.14051 153.352 -9.52448 153.417 -10.8338 153.806C-12.4601 154.364 -13.2714 155.52 -13.0331 156.594Z" fill="black"/>
<path d="M15.5593 135.795C18.0172 132.31 22.136 130.987 24.7538 132.839C27.3716 134.691 27.509 139.01 25.0495 142.505C22.5899 146.001 18.4728 147.313 15.8446 145.459C13.2164 143.606 13.0493 139.272 15.5593 135.795Z" fill="#64CF83"/>
<path opacity="0.15" d="M15.5593 135.795C18.0172 132.31 22.136 130.987 24.7538 132.839C27.3716 134.691 27.509 139.01 25.0495 142.505C22.5899 146.001 18.4728 147.313 15.8446 145.459C13.2164 143.606 13.0493 139.272 15.5593 135.795Z" fill="black"/>
<path opacity="0.15" d="M18.8392 144.495C16.8512 144.836 15.4239 141.727 17.4889 138.362C19.1251 135.69 21.9736 134.083 23.7274 134.624C24.0311 134.725 24.3115 134.886 24.5525 135.097C24.7935 135.308 24.9902 135.565 25.1313 135.852C25.2723 136.14 25.3548 136.453 25.374 136.772C25.3932 137.092 25.3487 137.412 25.2431 137.714C25.0736 136.405 23.9096 135.646 22.1401 136.3C21.0208 136.753 20.0277 137.47 19.2456 138.39C18.4634 139.31 17.9154 140.406 17.6482 141.583C17.3717 143.079 17.9126 144.2 18.8392 144.495Z" fill="black"/>
<path d="M21.663 105.015C16.2327 101.12 14.2072 94.658 17.1434 90.5743C20.0797 86.4906 26.8475 86.3406 32.2778 90.2355C37.708 94.1303 39.7215 100.602 36.7853 104.685C33.849 108.769 27.0812 108.919 21.663 105.015Z" fill="#64CF83"/>
<path opacity="0.15" d="M21.663 105.015C16.2327 101.12 14.2072 94.658 17.1434 90.5743C20.0797 86.4906 26.8475 86.3406 32.2778 90.2355C37.708 94.1303 39.7215 100.602 36.7853 104.685C33.849 108.769 27.0812 108.919 21.663 105.015Z" fill="black"/>
<path opacity="0.15" d="M35.341 99.9061C35.8586 103.023 30.9622 105.218 25.7136 101.939C21.5552 99.3442 19.081 94.8638 19.9369 92.1224C20.0997 91.6475 20.3554 91.2098 20.6891 90.8348C21.0228 90.4599 21.4278 90.1551 21.8806 89.9383C22.3333 89.7215 22.8247 89.5971 23.3261 89.5722C23.8275 89.5474 24.3287 89.6226 24.8007 89.7936C22.7423 90.0384 21.5401 91.8492 22.5492 94.6256C23.2443 96.3857 24.3549 97.9516 25.7862 99.1897C27.2175 100.428 28.9271 101.301 30.769 101.735C33.114 102.187 34.8365 101.356 35.341 99.9061Z" fill="black"/>
<path d="M7.69174 167.807C12.4006 166.469 17.0458 168.275 18.0418 171.819C19.0377 175.363 16.0343 179.329 11.3167 180.654C6.59897 181.98 1.96096 180.197 0.966625 176.643C-0.0277083 173.088 2.97243 169.143 7.69174 167.807Z" fill="#64CF83"/>
<path opacity="0.15" d="M7.69174 167.807C12.4006 166.469 17.0458 168.275 18.0418 171.819C19.0377 175.363 16.0343 179.329 11.3167 180.654C6.59897 181.98 1.96096 180.197 0.966625 176.643C-0.0277083 173.088 2.97243 169.143 7.69174 167.807Z" fill="black"/>
<path opacity="0.15" d="M4.3675 177.997C2.34211 176.868 3.32268 173.056 7.59922 171.544C10.9935 170.343 14.7013 170.965 15.8806 172.721C16.0768 173.031 16.2095 173.377 16.2709 173.739C16.3324 174.102 16.3215 174.472 16.2387 174.83C16.1559 175.188 16.003 175.526 15.7888 175.824C15.5745 176.123 15.3033 176.375 14.9906 176.568C15.7902 175.282 15.3008 173.763 13.2366 173.088C11.9083 172.682 10.5017 172.604 9.13668 172.86C7.77168 173.116 6.48869 173.698 5.39697 174.556C4.07838 175.675 3.76434 177.069 4.3675 177.997Z" fill="black"/>
<path d="M32.1856 155.452C33.6839 152.704 36.6504 151.436 38.7143 152.593C40.7781 153.749 41.1921 156.913 39.6521 159.655C38.112 162.396 35.1873 163.67 33.1251 162.504C31.0628 161.337 30.6472 158.183 32.1856 155.452Z" fill="#64CF83"/>
<path opacity="0.15" d="M32.1856 155.452C33.6839 152.704 36.6504 151.436 38.7143 152.593C40.7781 153.749 41.1921 156.913 39.6521 159.655C38.112 162.396 35.1873 163.67 33.1251 162.504C31.0628 161.337 30.6472 158.183 32.1856 155.452Z" fill="black"/>
<path opacity="0.15" d="M35.2894 161.581C33.8577 161.988 32.5734 159.81 33.8386 157.186C34.8367 155.108 36.8071 153.716 38.1344 153.977C38.3643 154.029 38.5814 154.127 38.7732 154.264C38.965 154.4 39.1276 154.574 39.2515 154.775C39.3754 154.975 39.4581 155.198 39.4948 155.431C39.5315 155.664 39.5215 155.902 39.4653 156.13C39.2492 155.188 38.3398 154.715 37.0891 155.332C36.3023 155.746 35.6281 156.346 35.1245 157.079C34.6208 157.812 34.3027 158.657 34.1975 159.54C34.1186 160.66 34.5848 161.439 35.2894 161.581Z" fill="black"/>
<path d="M-5.11509 86.2297C-8.24845 86.4454 -10.9155 84.7032 -11.0817 82.3472C-11.2479 79.9911 -8.82625 77.9006 -5.69452 77.6953C-2.56279 77.49 0.117957 79.2129 0.272097 81.5778C0.426238 83.9426 -1.97129 86.0156 -5.11509 86.2297Z" fill="#64CF83"/>
<path opacity="0.15" d="M-5.11509 86.2297C-8.24845 86.4454 -10.9155 84.7032 -11.0817 82.3472C-11.2479 79.9911 -8.82625 77.9006 -5.69452 77.6953C-2.56279 77.49 0.117957 79.2129 0.272097 81.5778C0.426238 83.9426 -1.97129 86.0156 -5.11509 86.2297Z" fill="black"/>
<path d="M15.9922 113.128C17.2833 111.15 16.1959 108.154 13.5634 106.435C10.9309 104.717 7.7503 104.928 6.45925 106.906C5.16819 108.884 6.25562 111.88 8.88808 113.598C11.5205 115.317 14.7012 115.106 15.9922 113.128Z" fill="#64CF83"/>
<path opacity="0.15" d="M15.9922 113.128C17.2833 111.15 16.1959 108.154 13.5634 106.435C10.9309 104.717 7.7503 104.928 6.45925 106.906C5.16819 108.884 6.25562 111.88 8.88808 113.598C11.5205 115.317 14.7012 115.106 15.9922 113.128Z" fill="black"/>
<path opacity="0.15" d="M15.1766 110.885C15.4847 112.333 13.2235 113.465 10.7195 112.048C8.75831 110.918 7.45612 108.855 7.80928 107.553C7.87607 107.327 7.98686 107.117 8.13525 106.934C8.28364 106.752 8.46671 106.6 8.67391 106.488C8.88111 106.377 9.10835 106.307 9.34256 106.284C9.57676 106.26 9.8133 106.283 10.0385 106.352C9.08353 106.512 8.55073 107.391 9.08802 108.672C9.44956 109.485 10.0028 110.198 10.7002 110.75C11.3976 111.302 12.2185 111.676 13.0925 111.842C14.2105 112.006 15.0658 111.594 15.1766 110.885Z" fill="black"/>
<path d="M4.46603 133.55C7.11003 130.386 6.28927 125.344 2.63284 122.289C-1.0236 119.233 -6.13111 119.322 -8.77511 122.486C-11.4191 125.65 -10.5984 130.692 -6.94194 133.747C-3.2855 136.802 1.82203 136.714 4.46603 133.55Z" fill="#64CF83"/>
<path opacity="0.15" d="M4.46603 133.55C7.11003 130.386 6.28927 125.344 2.63284 122.289C-1.0236 119.233 -6.13111 119.322 -8.77511 122.486C-11.4191 125.65 -10.5984 130.692 -6.94194 133.747C-3.2855 136.802 1.82203 136.714 4.46603 133.55Z" fill="black"/>
<path opacity="0.15" d="M-4.92018 122.665C-7.47222 123.538 -8.73644 127.114 -6.57615 130.594C-4.41585 134.074 1.83713 135.03 3.34198 131.556C2.01459 131.943 0.60845 131.974 -0.734385 131.644C-2.07722 131.314 -3.30917 130.635 -4.30581 129.677C-6.62689 127.294 -6.61734 124.292 -4.92018 122.665Z" fill="black"/>
</g>
</g>
<defs>
<clipPath id="clip0">
<rect width="128" height="251" fill="white"/>
</clipPath>
</defs>
</svg>
