<svg width="470" height="450" viewBox="0 0 470 450" fill="none" xmlns="http://www.w3.org/2000/svg">
<path d="M68.8326 411.65C-22.9442 360.522 -22.9442 277.654 68.8326 226.506C160.609 175.357 309.387 175.388 401.163 226.506C492.94 277.623 492.93 360.501 401.163 411.65C309.397 462.799 160.599 462.768 68.8326 411.65Z" fill="#F5F5F5"/>
<path d="M224.194 412.449C257.027 412.449 283.643 397.081 283.643 378.124C283.643 359.168 257.027 343.8 224.194 343.8C191.361 343.8 164.745 359.168 164.745 378.124C164.745 397.081 191.361 412.449 224.194 412.449Z" fill="#E6E6E6"/>
<path d="M252.585 175.865C246.828 169.931 237.265 156.095 237.265 156.095L231.369 135.7C231.229 135.756 234.373 135.766 235.325 135.7C241.697 136.13 243.572 136.633 247.537 141.009C250.681 144.452 262.316 162.542 266.495 168.065L277.934 152.261C280.583 148.249 280.154 143.761 281.535 140.477C282.916 137.193 285.136 135.756 286.918 132.799C288.7 129.841 289.129 127.901 290.594 129.412C292.059 130.924 290.37 135.01 290.146 135.943C289.922 136.876 287.702 139.675 291.424 138.201C295.147 136.727 300.913 129.935 302.405 128.545C303.898 127.154 304.673 129.31 304.337 131.017C304.001 132.724 305.606 136.615 305.018 139.414C304.402 142.408 303.963 143.78 301.081 146.682C298.384 149.396 291.807 152.718 289.232 156.272C286.657 159.827 281.162 170.874 277.803 177.535C273.53 185.997 268.846 190.811 263.323 186.081C259.087 182.396 254.721 178.067 252.585 175.865Z" fill="#FFBDA7"/>
<path d="M237.862 135.542C242.742 135.99 245.326 137.1 250.196 143.482C255.066 149.863 266.374 166.666 266.374 166.666L276.142 154.715C276.142 154.715 282.869 159.837 286.405 165.826C286.405 165.826 276.954 181.687 273.166 185.689C269.378 189.692 266.449 190.009 261.299 185.689C256.149 181.37 241.296 164.987 241.296 164.987L237.862 135.542Z" fill="#F0F0F0"/>
<path d="M266.374 166.665C264.163 169.865 262.735 175.062 263.127 177.684C263.127 177.684 260.048 174.138 265.226 164.967L266.374 166.665Z" fill="#E0E0E0"/>
<path d="M194.815 373.515H205.908L208.119 353.876H194.815V373.515Z" fill="#FFBDA7"/>
<path d="M231.462 353.317L243.283 353.708L243.068 333.379L229.699 333.118L231.462 353.317Z" fill="#FFBDA7"/>
<path d="M194.936 215.656C194.721 226.423 192.436 297.674 192.436 297.674C191.645 303.497 191.175 309.358 191.027 315.233C190.728 329.47 193.714 363.262 193.714 363.262C194.376 366.332 205.842 367.582 207.363 364.811C207.363 364.811 213.633 315.792 215.415 301.704C216.964 289.408 222.086 249.197 222.086 249.197L226.041 288.708C225.89 293.313 225.999 297.923 226.368 302.516C226.825 309.047 230.1 347.476 230.1 347.476C230.156 349.874 242.079 351.852 244.094 348.325C244.094 348.325 247.826 292.197 247.985 286.217C248.116 279.397 247.164 214.882 247.164 214.882L194.936 215.656Z" fill="#37474F"/>
<path d="M206.542 367.871L206.729 366.201C207.345 366.201 207.615 366.891 207.867 368.365C208.389 371.509 209.379 374.556 210.806 377.406C212.672 381.278 213.791 382.892 217.505 387.557C218.382 388.667 220.369 390.43 221.069 391.662C221.768 392.893 222.002 396.327 220.826 397.12C216.497 400.003 209.92 400.086 205.264 398.724C203.499 398.296 201.908 397.339 200.701 395.982C199.494 394.625 198.729 392.932 198.509 391.13C197.754 386.894 197.352 384.273 195.197 381.072C194.404 379.897 193.126 378.945 192.594 377.639C191.661 375.279 192.398 372.629 193.014 370.278C193.546 368.253 194.124 366.024 194.815 366.21V367.46C195.645 368.393 198.547 369.326 201.159 369.401C202.838 369.466 206.561 369.158 206.542 367.871Z" fill="#263238"/>
<path d="M243.246 350.499C243.535 350.695 244.179 351.432 245.401 352.57C246.618 353.628 247.895 354.616 249.226 355.527C251.932 357.509 254.775 359.295 257.735 360.873C261.252 362.805 264.424 363.98 268.632 365.874C269.073 366.052 269.474 366.319 269.807 366.658C270.062 366.959 270.238 367.318 270.32 367.703C270.443 368.497 270.344 369.31 270.032 370.051C269.721 370.792 269.21 371.433 268.557 371.901C267.238 372.823 265.742 373.458 264.163 373.767C260.593 374.769 256.833 374.881 253.21 374.094C250.079 373.207 247.107 371.834 244.402 370.026C242.149 368.428 239.583 367.325 236.873 366.788C234.513 366.453 231.611 366.565 229.559 365.156C227.292 363.588 228.197 360.239 228.84 357.356C229.54 354.221 229.699 349.426 231.126 349.528L231.238 350.788C231.369 352.141 234.653 352.766 237.191 352.766C239.299 352.766 243.283 352.215 243.264 351.226L243.246 350.499Z" fill="#263238"/>
<path d="M223.299 234.12C227.823 232.368 231.949 229.721 235.427 226.339C235.427 226.339 233.496 231.937 225.575 236.602L226.098 285.769L222.104 249.178L223.299 234.12Z" fill="#263238"/>
<path d="M212.812 134.338C210.806 134.814 204.415 136.54 199.228 138.369C196.612 139.367 194.343 141.105 192.697 143.369C188.965 148.865 192.324 161.096 195.095 184.084C194.89 198.937 194.46 217.41 194.46 217.41C201.29 222.383 233.151 225.76 247.528 215.264C247.528 215.264 248.004 159.519 247.052 152.27C245.186 138.387 239.803 134.683 228.589 134.03L212.812 134.338Z" fill="#64CF83"/>
<path opacity="0.6" d="M212.812 134.338C210.806 134.814 204.415 136.54 199.228 138.369C196.612 139.367 194.343 141.105 192.697 143.369C188.965 148.865 192.324 161.096 195.095 184.084C194.89 198.937 194.46 217.41 194.46 217.41C201.29 222.383 233.151 225.76 247.528 215.264C247.528 215.264 248.004 159.519 247.052 152.27C245.186 138.387 239.803 134.683 228.589 134.03L212.812 134.338Z" fill="white"/>
<path d="M232.395 150.628C233.403 154.099 239.364 178.487 238.525 187.07C237.885 191.475 236.694 195.782 234.979 199.889C232.395 206 230.669 200.533 229.232 196.922C228.017 193.556 227.203 190.058 226.807 186.501C226.331 181.892 228.187 167.888 227.469 151.468C228.011 150.704 228.835 150.186 229.758 150.029C230.682 149.871 231.63 150.087 232.395 150.628Z" fill="#64CF83"/>
<path opacity="0.2" d="M232.395 150.628C233.403 154.099 239.364 178.487 238.525 187.07C237.885 191.475 236.694 195.782 234.979 199.889C232.395 206 230.669 200.533 229.232 196.922C228.017 193.556 227.203 190.058 226.807 186.501C226.331 181.892 228.187 167.888 227.469 151.468C228.011 150.704 228.835 150.186 229.758 150.029C230.682 149.871 231.63 150.087 232.395 150.628Z" fill="black"/>
<path d="M232.619 142.791C234.979 144.806 232.395 150.619 232.395 150.619C230.706 150.255 228.942 150.556 227.469 151.458C227.469 151.458 222.804 149.453 222.757 145.963C222.757 142.791 226.125 143.808 228.523 143.388C231.033 142.95 232.339 141.093 232.619 142.791Z" fill="#64CF83"/>
<path opacity="0.2" d="M232.619 142.791C234.979 144.806 232.395 150.619 232.395 150.619C230.706 150.255 228.942 150.556 227.469 151.458C227.469 151.458 222.804 149.453 222.757 145.963C222.757 142.791 226.125 143.808 228.523 143.388C231.033 142.95 232.339 141.093 232.619 142.791Z" fill="black"/>
<path opacity="0.2" d="M232.395 150.628C232.013 149.265 230.156 149.396 228.663 148.93C227.826 148.598 227.126 147.993 226.676 147.213C225.911 145.897 226.676 143.714 227.739 143.481C225.454 143.64 222.739 143.117 222.748 145.963C222.748 149.452 227.46 151.458 227.46 151.458C228.936 150.556 230.704 150.258 232.395 150.628Z" fill="black"/>
<path d="M216.17 102.113C216.252 104.98 217.182 107.758 218.841 110.098C220.5 112.437 222.815 114.232 225.494 115.257C228.172 116.282 231.095 116.491 233.892 115.856C236.689 115.222 239.235 113.774 241.21 111.694C243.184 109.614 244.499 106.996 244.987 104.17C245.475 101.343 245.115 98.4359 243.953 95.8141C242.79 93.1923 240.877 90.9736 238.455 89.438C236.032 87.9023 233.21 87.1186 230.342 87.1856C228.43 87.2303 226.546 87.6525 224.797 88.4278C223.048 89.2031 221.47 90.3164 220.153 91.7035C218.837 93.0907 217.807 94.7245 217.123 96.5109C216.44 98.2973 216.116 100.201 216.17 102.113Z" fill="#455A64"/>
<path d="M205.843 112.656C205.843 112.656 208.464 123.646 209.444 125.438C210.094 126.541 211.142 127.353 212.374 127.705L212.028 119.933L205.843 112.656Z" fill="#455A64"/>
<path d="M208.417 96.7487C207.597 96.677 206.771 96.7926 206.001 97.0867C205.232 97.3809 204.54 97.8459 203.976 98.4467C202.11 100.471 203.314 106.638 205.842 112.656L210.283 113.057L208.417 96.7487Z" fill="#455A64"/>
<path d="M211.618 113.029C210.741 113.58 209.434 111.9 208.305 110.781C207.177 109.661 203.575 108.187 201.877 111.984C200.179 115.781 203.669 120.838 206.542 121.659C211.431 123.068 212.084 119.933 212.084 119.933L212.914 139.75C216.376 143.976 224.521 144.209 228.56 143.388C231.788 142.735 231.835 140.449 228.654 136.941L228.504 131.259C230.668 131.556 232.858 131.618 235.035 131.446C238.59 130.802 240.782 127.938 241.762 124.048C243.255 118.105 243.628 111.471 242.126 100.611C240.26 87.2604 224.633 87.5497 216.357 92.9889C208.082 98.4281 211.618 113.029 211.618 113.029Z" fill="#FFBDA7"/>
<path d="M211.655 114.522C211.207 114.522 209.435 111.723 208.306 110.79C206.748 109.437 208.418 96.7951 208.418 96.7951C207.868 95.6934 207.664 94.4518 207.83 93.232C207.997 92.0122 208.526 90.8708 209.351 89.9564C211.394 87.596 214.249 84.7038 223.802 85.5995C230.613 86.2432 238.058 88.1838 243.955 85.105C244.555 87.0396 244.564 89.1094 243.981 91.0493C243.398 92.9891 242.248 94.7105 240.68 95.9928C240.68 95.9928 238.543 97.4389 232.88 98.2599C227.217 99.0809 218.335 98.4745 217.122 98.3439C215.471 98.1573 215.154 99.762 214.37 104.147C213.642 107.954 213.157 114.456 211.655 114.522Z" fill="#455A64"/>
<path d="M208.455 97.7374L203.006 94.9385C203.169 94.572 203.405 94.2424 203.699 93.9699C203.993 93.6974 204.34 93.4875 204.718 93.3531C205.096 93.2187 205.497 93.1626 205.897 93.1881C206.298 93.2137 206.688 93.3203 207.046 93.5017C207.785 93.8868 208.345 94.5441 208.608 95.3345C208.87 96.1249 208.816 96.9866 208.455 97.7374Z" fill="#455A64"/>
<path d="M228.467 131.259C228.467 131.259 220.462 129.851 217.645 128.46C215.985 127.643 214.612 126.342 213.708 124.729C214.167 126.348 214.948 127.858 216.003 129.169C218.102 131.726 228.523 133.554 228.523 133.554L228.467 131.259Z" fill="#F0997A"/>
<path d="M225.79 111.079C225.76 111.39 225.64 111.685 225.444 111.929C225.248 112.172 224.985 112.352 224.687 112.447C224.39 112.543 224.071 112.548 223.77 112.464C223.469 112.379 223.2 112.209 222.996 111.973C222.791 111.736 222.66 111.446 222.62 111.136C222.579 110.826 222.63 110.511 222.767 110.23C222.903 109.949 223.119 109.715 223.388 109.555C223.657 109.396 223.966 109.319 224.278 109.334C224.71 109.365 225.112 109.567 225.395 109.894C225.678 110.221 225.82 110.647 225.79 111.079Z" fill="#263238"/>
<path d="M224.754 105.071L221.246 106.778C221.025 106.298 220.998 105.75 221.172 105.251C221.346 104.752 221.707 104.339 222.179 104.1C222.41 103.983 222.662 103.916 222.921 103.902C223.179 103.888 223.438 103.928 223.68 104.019C223.922 104.11 224.143 104.251 224.328 104.432C224.512 104.613 224.658 104.83 224.754 105.071Z" fill="#263238"/>
<path d="M226.704 121.827L231.686 123.189C231.607 123.519 231.464 123.829 231.264 124.102C231.064 124.375 230.811 124.605 230.521 124.779C230.23 124.953 229.908 125.067 229.573 125.114C229.238 125.162 228.897 125.142 228.57 125.055C227.905 124.857 227.342 124.412 226.995 123.812C226.648 123.212 226.544 122.502 226.704 121.827Z" fill="#F0997A"/>
<path d="M241.295 106.554L237.563 105.276C237.628 105.025 237.743 104.791 237.903 104.587C238.063 104.384 238.263 104.216 238.491 104.094C238.719 103.972 238.97 103.899 239.228 103.879C239.486 103.859 239.745 103.893 239.989 103.979C240.501 104.152 240.924 104.518 241.168 105C241.412 105.481 241.458 106.039 241.295 106.554Z" fill="#263238"/>
<path d="M239.43 110.631C239.453 110.843 239.434 111.058 239.375 111.262C239.315 111.467 239.216 111.658 239.083 111.825C238.949 111.991 238.784 112.129 238.597 112.232C238.41 112.335 238.205 112.399 237.993 112.423C237.562 112.451 237.137 112.308 236.81 112.025C236.484 111.742 236.282 111.342 236.248 110.911C236.23 110.702 236.253 110.492 236.316 110.292C236.379 110.092 236.481 109.906 236.615 109.745C236.75 109.585 236.915 109.452 237.101 109.355C237.287 109.258 237.49 109.199 237.699 109.18C237.908 109.162 238.118 109.185 238.319 109.248C238.519 109.311 238.704 109.413 238.865 109.547C239.026 109.682 239.158 109.847 239.255 110.033C239.352 110.219 239.411 110.422 239.43 110.631Z" fill="#263238"/>
<path d="M230.818 109.726L231.396 119.326L236.397 117.591L230.818 109.726Z" fill="#F0997A"/>
<path d="M228.523 143.388C224.091 142.455 213.595 138.359 212.606 133.237L212.476 130.438C210.75 130.438 209.966 132.351 209.117 135.103C208.762 142.343 216.403 148.958 224.044 150.74C224.301 149.061 224.874 147.446 225.733 145.981C226.385 144.859 227.356 143.956 228.523 143.388Z" fill="#64CF83"/>
<path d="M228.486 131.968C229.656 132.326 230.719 132.967 231.583 133.834C237.321 139.777 234.046 147.567 234.046 147.567C233.75 146.272 233.011 145.12 231.957 144.311C230.948 143.626 229.74 143.298 228.523 143.378C229.932 141.876 229.382 139.254 228.616 136.931L228.486 131.968Z" fill="#64CF83"/>
<path d="M245.168 106.293L244.393 106.218C241.802 105.903 239.179 105.985 236.612 106.461C234.112 107.142 233.207 107.897 231.835 107.916C230.464 107.935 229.466 107.16 226.853 106.489C224.112 106.029 221.319 105.963 218.559 106.293L217.72 106.386L205.843 109.577C206.864 109.738 207.802 110.233 208.511 110.986L217.169 108.644C217.29 108.812 217.412 108.961 217.496 109.064C217.615 109.239 217.701 109.435 217.748 109.642C217.913 110.985 218.203 112.309 218.615 113.598C218.859 114.13 219.201 114.611 219.623 115.016C219.784 115.171 219.959 115.311 220.145 115.436L220.453 115.622C220.751 115.783 221.063 115.914 221.386 116.014L221.545 116.061L221.787 116.126L222.049 116.182C222.32 116.236 222.594 116.274 222.87 116.294H223.215H223.653C227.068 116.294 228.542 114.839 229.447 113.337C230.352 111.835 230.212 109.717 231.779 109.717H231.929H232.069C233.226 109.95 233.002 111.9 233.692 113.29C233.952 113.876 234.316 114.41 234.765 114.867L235.017 115.1L235.157 115.212L235.306 115.324L235.437 115.408L235.577 115.501L235.689 115.566H235.773C236.195 115.791 236.647 115.955 237.116 116.052H237.237C237.781 116.158 238.335 116.208 238.889 116.201C242.08 116.201 243.246 114.494 243.805 113.402C244.295 112.116 244.67 110.789 244.925 109.437C244.984 109.238 245.094 109.059 245.242 108.914C245.641 108.518 245.91 108.011 246.017 107.459C246.025 107.198 245.946 106.941 245.792 106.73C245.638 106.519 245.419 106.365 245.168 106.293ZM228.598 111.947C228.368 112.75 227.919 113.473 227.301 114.036C226.258 114.903 224.922 115.334 223.569 115.24C222.905 115.288 222.239 115.176 221.626 114.913C221.014 114.65 220.474 114.244 220.052 113.729L219.94 113.579C219.906 113.532 219.874 113.482 219.847 113.43C219.812 113.388 219.784 113.341 219.763 113.29L219.688 113.169L219.641 113.066C219.641 113.066 219.641 113.001 219.595 112.973C219.548 112.945 219.548 112.88 219.53 112.824C219.464 112.674 219.418 112.525 219.371 112.385C219.371 112.292 219.315 112.208 219.296 112.124C219.278 112.04 219.222 111.825 219.194 111.695C219.166 111.564 219.194 111.648 219.194 111.62V111.536C218.97 110.491 218.736 108.439 219.343 107.972C219.949 107.506 221.517 107.039 224.008 107.226H224.278C224.664 107.261 225.047 107.32 225.426 107.403L225.874 107.496C226.252 107.586 226.626 107.695 226.993 107.823L227.329 107.953L227.702 108.112H227.777L227.908 108.187C228.189 108.313 228.44 108.497 228.645 108.728C229.167 109.418 228.925 110.78 228.598 111.947ZM243.423 111.443C243.29 112.161 242.992 112.839 242.553 113.423C242.115 114.007 241.547 114.482 240.895 114.811C240.303 115.057 239.669 115.184 239.029 115.184C238.326 115.262 237.614 115.16 236.961 114.888C236.308 114.615 235.736 114.181 235.297 113.626C235.272 113.597 235.25 113.566 235.231 113.533C235.203 113.497 235.178 113.46 235.157 113.421V113.365L235.064 113.197L234.97 113.001C234.969 112.97 234.969 112.939 234.97 112.907V112.824C234.965 112.802 234.965 112.78 234.97 112.758C234.871 112.509 234.799 112.249 234.756 111.984C234.532 110.818 234.448 109.455 234.952 108.812C235.455 108.168 237.349 107.459 239.159 107.254C239.579 107.254 239.971 107.179 240.325 107.17H241.361H241.669C241.866 107.187 242.063 107.215 242.257 107.254H242.387H242.481H242.621L242.789 107.3L243.059 107.403C243.281 107.485 243.489 107.602 243.675 107.748C244.095 108.345 243.703 110.407 243.423 111.443Z" fill="#37474F"/>
<path d="M212.625 133.545C212.625 133.545 216.002 150.497 217.458 161.963C218.913 173.43 218.643 205.813 217.859 226.339C217.299 241.266 215.06 268.957 215.06 268.957C215.06 268.957 211.328 269.703 202.456 268.229C194.861 266.979 191.017 264.73 189.394 263.751C189.394 263.751 190.803 221.702 191.876 207.017C192.855 193.479 192.809 186.034 192.809 186.034L189.618 155.125C189.618 155.125 189.861 135.7 195.888 134.879C202.11 134.03 212.625 133.545 212.625 133.545Z" fill="#FAFAFA"/>
<path d="M206.86 161.348C206.86 160.639 206.785 159.109 206.664 157.168C206.067 147.698 206.934 133.993 210.125 133.312L210.414 134.618C208.072 135.122 207.709 152.485 207.998 157.084C208.128 159.062 208.222 160.62 208.194 161.404L206.86 161.348Z" fill="#64CF83"/>
<path d="M194.74 234.474C193.201 231.852 193.117 229.893 190.794 227.551C189.799 226.589 189.075 225.383 188.695 224.053C187.986 221.953 188.023 219.761 187.855 217.466L174.374 218.091C174.487 223.106 175.042 228.101 176.034 233.018C178.591 244.279 181.063 249.019 185.905 250.111C193.63 251.855 195.533 248.525 192.818 242.955C191.653 240.632 190.817 238.157 190.337 235.603C191.173 236.589 192.144 237.452 193.22 238.169C193.768 238.578 194.451 238.764 195.132 238.69C195.812 238.615 196.439 238.286 196.886 237.767C197.222 237.273 195.953 236.536 194.74 234.474Z" fill="#FFBDA7"/>
<path d="M198.379 134.879C198.379 134.879 191.204 134.777 187.183 138.397C183.162 142.016 181.026 151.701 178.423 161.413C175.82 171.125 173.506 180.548 172.825 187.303C172.246 192.901 174.131 222.625 174.131 222.625C174.131 222.625 182.332 224.351 188.639 220.89L188.909 187.909L199.312 154.845C201.211 148.269 200.883 141.249 198.379 134.879Z" fill="#F0F0F0"/>
<path d="M212.373 128.022C211.44 127.826 210.573 128.32 209.808 129.627C209.043 130.933 207.354 133.676 207.354 133.676C207.354 133.676 206.486 142.781 207.354 145.049C208.11 147.008 213.12 156.244 213.12 156.244C213.12 156.244 212.793 165.238 212.709 167.925C212.625 170.612 217.831 181.826 218.419 187.032C218.419 187.032 218.68 165.863 217.906 159.976C216.562 149.713 214.883 137.492 212.616 133.293L212.373 128.022Z" fill="#EBEBEB"/>
<path d="M204.909 192.761H204.798V191.828C205.904 191.743 206.964 191.348 207.858 190.69C206.899 190.052 206.041 189.276 205.311 188.386C203.809 186.436 200.515 172.525 201.523 169.288C202.381 166.573 205.049 160.583 207.419 160.48H207.484C209.854 160.48 212.98 166.144 214.015 168.756C215.303 171.9 213.204 186.035 211.869 188.106C211.219 189.055 210.43 189.901 209.528 190.616C210.47 191.202 211.562 191.507 212.672 191.493L212.793 192.426C211.342 192.447 209.918 192.031 208.707 191.231C207.608 192.085 206.293 192.615 204.909 192.761ZM207.531 161.404C206.132 161.46 203.631 165.91 202.484 169.549C201.551 172.525 204.723 185.988 206.113 187.789C206.864 188.69 207.752 189.467 208.744 190.093C209.685 189.389 210.507 188.539 211.179 187.574C212.411 185.661 214.426 171.984 213.241 169.092C211.804 165.556 208.968 161.404 207.559 161.404H207.531Z" fill="#455A64"/>
<path d="M214.239 191.893C214.248 192.073 214.221 192.253 214.16 192.422C214.099 192.591 214.005 192.747 213.884 192.879C213.762 193.012 213.616 193.119 213.452 193.195C213.289 193.271 213.113 193.314 212.933 193.321C212.753 193.329 212.573 193.301 212.404 193.24C212.234 193.178 212.078 193.084 211.945 192.962C211.812 192.84 211.705 192.694 211.628 192.53C211.552 192.367 211.509 192.19 211.501 192.01C211.493 191.83 211.52 191.65 211.582 191.48C211.644 191.311 211.738 191.155 211.86 191.022C211.981 190.889 212.128 190.782 212.291 190.705C212.455 190.629 212.632 190.586 212.812 190.578C212.992 190.57 213.172 190.598 213.341 190.661C213.51 190.723 213.666 190.817 213.798 190.94C213.931 191.062 214.038 191.209 214.114 191.373C214.189 191.536 214.232 191.713 214.239 191.893Z" fill="#263238"/>
<path d="M206.215 192.229C206.223 192.409 206.195 192.589 206.133 192.758C206.071 192.928 205.976 193.083 205.854 193.216C205.732 193.348 205.584 193.455 205.421 193.531C205.257 193.607 205.08 193.649 204.9 193.657C204.72 193.665 204.541 193.638 204.371 193.577C204.202 193.516 204.047 193.422 203.914 193.301C203.781 193.18 203.674 193.033 203.598 192.87C203.522 192.707 203.48 192.53 203.473 192.35C203.465 192.17 203.492 191.99 203.554 191.821C203.615 191.652 203.71 191.496 203.831 191.363C203.953 191.23 204.1 191.122 204.263 191.046C204.426 190.97 204.603 190.926 204.783 190.918C204.963 190.91 205.143 190.938 205.313 191C205.482 191.061 205.638 191.155 205.771 191.277C205.904 191.399 206.012 191.546 206.088 191.709C206.164 191.872 206.208 192.049 206.215 192.229Z" fill="#263238"/>
<path d="M214.342 174.885L213.558 174.829C213.518 174.827 213.478 174.816 213.442 174.799C213.405 174.781 213.372 174.756 213.346 174.726C213.319 174.696 213.298 174.66 213.285 174.622C213.272 174.584 213.266 174.543 213.269 174.503C213.427 171.89 213.343 169.968 213.026 169.203C211.645 165.826 208.781 161.6 207.54 161.656C206.299 161.712 203.808 166.162 202.708 169.642C202.474 171.407 202.543 173.199 202.913 174.941C202.926 175.021 202.907 175.104 202.86 175.17C202.813 175.237 202.741 175.282 202.661 175.296L201.877 175.417C201.837 175.422 201.796 175.419 201.756 175.408C201.717 175.398 201.68 175.379 201.648 175.354C201.616 175.329 201.589 175.297 201.569 175.262C201.549 175.226 201.537 175.187 201.532 175.146C201.103 172.245 201.047 170.248 201.373 169.222C201.952 167.356 204.704 160.368 207.475 160.247C210.246 160.125 213.586 166.862 214.323 168.644C214.734 169.642 214.855 171.629 214.668 174.559C214.671 174.602 214.664 174.646 214.649 174.687C214.634 174.728 214.61 174.765 214.579 174.796C214.548 174.826 214.511 174.85 214.47 174.866C214.429 174.881 214.385 174.888 214.342 174.885Z" fill="#64CF83"/>
<path d="M228.468 131.259C229.699 131.371 230.772 133.19 233.608 134.058C238.907 135.625 243.722 138.032 245.205 141.288C247.668 146.681 248.069 147.744 248.937 171.759C249.805 195.774 250.113 264.124 250.113 264.124C247.568 265.274 244.796 265.832 242.005 265.756C242.005 265.756 242.22 190.279 241.716 173.308C241.212 156.337 238.637 148.052 234.961 142.454C233.925 137.79 230.623 134.673 228.43 132.397L228.468 131.259Z" fill="#FAFAFA"/>
<path d="M234.979 142.474C238.655 148.072 241.221 156.347 241.734 173.327C241.79 175.342 241.846 178.179 241.893 181.584C241.893 181.584 244.916 166.209 244.384 162.925C243.852 159.64 240.307 152.886 240.307 152.886C240.764 147.288 239.458 140.888 237.302 137.025C236.801 136.125 236.173 135.302 235.437 134.581C234.72 134 233.956 133.482 233.151 133.032C231.771 132.051 230.167 131.432 228.486 131.231V132.388C230.641 134.693 233.944 137.79 234.979 142.474Z" fill="#EBEBEB"/>
<path d="M411.601 300.915C402.388 306.296 402.388 315.016 411.601 320.397C420.813 325.778 435.751 325.767 444.953 320.397C454.155 315.027 454.165 306.296 444.953 300.915C435.741 295.535 420.813 295.545 411.601 300.915Z" fill="#E0E0E0"/>
<path d="M443.488 311.499C451.622 303.124 456.396 268.945 448.46 262.297H408.094C400.17 268.955 404.954 303.124 413.067 311.499L413.286 311.729L413.569 312.012C413.799 312.232 414.04 312.452 414.302 312.671L414.501 312.829C414.7 312.986 414.899 313.143 415.118 313.289C415.454 313.537 415.803 313.764 416.165 313.97C422.855 317.874 433.7 317.874 440.4 313.97C440.76 313.761 441.11 313.534 441.447 313.289L442.012 312.849L442.263 312.692C442.514 312.483 442.755 312.274 442.975 312.054L443.31 311.646L443.488 311.499Z" fill="#EBEBEB"/>
<path d="M411.601 259.607C402.389 264.988 402.389 273.708 411.601 279.078C420.813 284.448 435.752 284.459 444.953 279.078C454.155 273.697 454.166 264.988 444.953 259.607C435.741 254.226 420.813 254.237 411.601 259.607Z" fill="#F5F5F5"/>
<path d="M416.029 262.192C409.266 266.149 409.266 272.546 416.029 276.492C422.792 280.439 433.763 280.449 440.525 276.492C447.288 272.535 447.288 266.149 440.525 262.192C433.763 258.235 422.792 258.256 416.029 262.192Z" fill="#E0E0E0"/>
<path d="M440.525 268.986C433.763 265.029 422.792 265.029 416.029 268.986C414.388 269.883 412.995 271.175 411.978 272.745C412.999 274.308 414.391 275.596 416.029 276.492C422.792 280.449 433.763 280.449 440.525 276.492C442.166 275.599 443.558 274.311 444.577 272.745C443.562 271.173 442.169 269.88 440.525 268.986Z" fill="#FAFAFA"/>
<path d="M416.678 207.893L427.544 219.105L416.521 212.196C416.046 215.993 416.241 219.844 417.096 223.575C420.055 225.91 422.824 228.476 425.377 231.248L416.856 226.516C416.856 226.516 415.463 232.358 416.74 241.717C417.075 244.166 419.138 249.044 420.373 252.635C420.936 254.295 421.611 255.914 422.393 257.482C422.393 257.587 422.488 257.681 422.54 257.786C424.749 256.885 427.031 256.016 429.397 255.21C431.239 252.363 434.107 245.098 435.594 239.047C441.278 215.849 425.262 200.031 411.517 193.625C414.068 198.038 415.815 202.869 416.678 207.893Z" fill="#F0F0F0"/>
<path d="M426.686 210.206C428.69 213.106 430.008 216.425 430.538 219.91C431.189 223.36 431.459 226.87 431.344 230.379C431.215 237.398 429.422 244.287 426.11 250.478C426.088 250.517 426.074 250.56 426.069 250.605C426.064 250.649 426.068 250.694 426.081 250.737C426.093 250.78 426.114 250.82 426.143 250.855C426.171 250.889 426.206 250.918 426.246 250.939C426.286 250.961 426.33 250.975 426.375 250.98C426.42 250.985 426.466 250.981 426.51 250.969C426.554 250.956 426.594 250.935 426.63 250.906C426.666 250.878 426.695 250.843 426.717 250.803C429.97 244.484 431.682 237.485 431.71 230.379C431.764 226.864 431.434 223.354 430.726 219.91C430.136 216.41 428.753 213.091 426.686 210.206Z" fill="white"/>
<path d="M464.519 216.896C460.741 223.737 457.385 230.802 454.469 238.053L441.907 242.439H451.779L448.083 251.494L435.772 256.393L446.031 256.257C446.031 256.257 444.985 266.474 438.567 271.803C435.019 274.745 433.333 275.1 431.773 274.504C429.879 273.792 428.57 271.143 427.146 267.092C425.723 263.041 425.67 254.373 428.193 245.496C428.875 243.119 429.894 240.852 431.219 238.765C438.714 226.569 455.673 218.33 464.519 216.896Z" fill="#F5F5F5"/>
<path d="M451.685 223.554C445.36 227.62 439.96 232.97 435.835 239.257C433.791 242.425 432.255 245.894 431.282 249.537C430.359 253.183 430.04 256.957 430.339 260.706C430.402 256.998 430.93 253.312 431.91 249.735C432.893 246.168 434.358 242.752 436.264 239.581C440.26 233.26 445.508 227.823 451.685 223.606C451.685 223.606 451.685 223.543 451.685 223.554Z" fill="white"/>
<path d="M383.859 221.304C385.167 221.285 386.474 221.344 387.775 221.482C392.895 222.076 397.923 223.3 402.744 225.125C404.535 225.795 406.325 226.548 408.083 227.386C408.973 227.815 409.842 228.255 410.711 228.715C414.985 230.955 418.859 233.887 422.174 237.394C423.716 239.071 425.042 240.935 426.12 242.942C426.257 243.193 426.414 243.444 426.539 243.716C426.874 244.407 427.178 245.077 427.46 245.737C430.128 251.49 431.288 257.826 430.831 264.151C430.674 268.621 429.156 273.719 428.287 274.557C428.173 274.669 428.042 274.764 427.9 274.839C426.623 275.656 424.603 275.185 420.823 273.07C413.244 268.883 410.271 258.09 410.271 258.09L420.802 256.3L407.277 253.599L401.781 245.036L411.894 243.193L398.149 241.099C393.8 234.23 389.035 227.633 383.88 221.345L383.859 221.304Z" fill="#F0F0F0"/>
<path d="M387.827 221.481C392.948 222.075 397.976 223.299 402.797 225.124C404.587 225.794 406.377 226.548 408.136 227.385C409.026 227.814 409.894 228.254 410.763 228.715C415.038 230.954 418.911 233.887 422.226 237.393C423.768 239.071 425.094 240.934 426.173 242.941C426.309 243.193 426.466 243.444 426.592 243.716C426.927 244.407 427.23 245.077 427.513 245.736C430.18 251.489 431.34 257.826 430.884 264.15C430.727 268.62 429.209 273.719 428.34 274.556C428.225 274.668 428.095 274.764 427.953 274.839C427.696 274.996 427.412 275.102 427.115 275.153C428.057 268.233 424.645 250.688 419.494 243.475C414.134 235.969 401.415 225.082 383.901 221.324C385.212 221.296 386.523 221.349 387.827 221.481Z" fill="#E6E6E6"/>
<path d="M461.754 156.011L459.19 157.54L346.267 92.3528L348.842 90.814L461.754 156.011Z" fill="#FAFAFA"/>
<path d="M348.842 90.8132L459.19 154.514V75.0896L348.842 11.4102V90.8132Z" fill="white"/>
<path d="M403.247 40.2201V122.669L398.389 119.864V37.4146L403.247 40.2201Z" fill="#F0F0F0"/>
<path d="M405.664 38.8066L403.246 40.2199V122.669L405.664 121.256V38.8066Z" fill="#E0E0E0"/>
<path d="M341.419 95.1479L464.036 165.946V72.2848L341.419 1.48682V95.1479ZM346.266 9.90343L459.189 75.059V157.508L346.266 92.3528V9.90343Z" fill="#F0F0F0"/>
<path d="M346.267 92.3532L348.842 90.8143V11.4113L346.267 9.90381V92.3532Z" fill="#E0E0E0"/>
<path d="M341.419 1.49699L344.026 0L466.653 70.7875L464.036 72.2845L341.419 1.49699Z" fill="#FAFAFA"/>
<path d="M466.654 70.7876L464.037 72.2846V165.946L466.654 164.459V70.7876Z" fill="#E0E0E0"/>
<path d="M403.246 43.0148L398.399 40.2197V43.0148L403.246 45.8099V43.0148Z" fill="#E0E0E0"/>
<path opacity="0.15" d="M403.246 45.8102L405.664 44.4074L403.246 43.0151V45.8102Z" fill="black"/>
<path d="M152.654 48.9612L153.92 49.694L185.598 31.4056L184.331 30.6729L152.654 48.9612Z" fill="#F0F0F0"/>
<path d="M184.331 30.6725L153.92 48.2385V21.8686L184.331 4.31299V30.6725Z" fill="#FAFAFA"/>
<path d="M186.833 1.39258L152.654 21.1465V51.8923L186.833 32.1384V1.39258ZM185.598 31.4056L153.92 49.6939V21.8793L185.598 3.58048V31.4056Z" fill="#EBEBEB"/>
<path d="M185.598 31.4052L184.331 30.6724V4.31287L185.598 3.58008V31.4052Z" fill="#E0E0E0"/>
<path d="M186.864 1.39246L185.598 0.659668L151.387 20.4136L152.653 21.1464L186.864 1.39246Z" fill="#F5F5F5"/>
<path d="M151.387 20.4136L152.654 21.1464V51.8921L151.387 51.1594V20.4136Z" fill="#E0E0E0"/>
<path d="M178.364 26.2444C179.547 25.564 180.458 26.1188 180.458 27.4797C180.423 28.2182 180.216 28.9382 179.852 29.5819C179.489 30.2256 178.979 30.7749 178.364 31.1855C177.181 31.866 176.271 31.3111 176.271 29.9502C176.304 29.2116 176.511 28.4912 176.875 27.8474C177.239 27.2036 177.749 26.6544 178.364 26.2444Z" fill="#E0E0E0"/>
<path d="M161.08 20.6753L177.181 11.3688C177.631 11.1071 177.997 11.3688 177.997 11.8399C177.983 12.1219 177.902 12.3964 177.76 12.6405C177.618 12.8845 177.419 13.091 177.181 13.2427L161.08 22.5596C160.63 22.8213 160.274 22.5596 160.274 22.0885C160.288 21.806 160.368 21.5307 160.508 21.285C160.648 21.0394 160.844 20.8304 161.08 20.6753Z" fill="#E0E0E0"/>
<path d="M158.568 28.0031L179.756 15.7655C180.207 15.5038 180.573 15.619 180.573 16.0272C180.539 16.2773 180.448 16.5162 180.306 16.7251C180.164 16.934 179.976 17.1072 179.756 17.2311L158.568 29.4792C158.118 29.7304 157.762 29.6153 157.762 29.207C157.798 28.9588 157.889 28.7218 158.028 28.5134C158.168 28.305 158.352 28.1307 158.568 28.0031Z" fill="#F0F0F0"/>
<path d="M158.568 30.9243L179.756 18.6868C180.207 18.425 180.573 18.5507 180.573 18.9485C180.539 19.1986 180.448 19.4375 180.306 19.6463C180.164 19.8552 179.976 20.0284 179.756 20.1523L158.568 32.4004C158.118 32.6621 157.762 32.5365 157.762 32.1282C157.798 31.88 157.889 31.643 158.028 31.4346C158.168 31.2263 158.352 31.0519 158.568 30.9243Z" fill="#F0F0F0"/>
<path d="M158.568 33.8445L179.756 21.6069C180.207 21.3557 180.573 21.4708 180.573 21.8791C180.539 22.1279 180.448 22.3653 180.306 22.5725C180.164 22.7797 179.976 22.9509 179.756 23.0725L158.568 35.2787C158.118 35.5404 157.762 35.4148 157.762 35.0065C157.805 34.7662 157.899 34.538 158.038 34.3375C158.177 34.137 158.358 33.9688 158.568 33.8445Z" fill="#F0F0F0"/>
<path d="M174.564 32.5046C174.399 32.591 174.216 32.6376 174.03 32.6407C173.58 32.6407 173.622 32.1801 173.632 31.866C173.632 31.7195 173.444 31.4996 173.339 31.6881C173.057 32.1801 172.711 32.6407 172.418 33.1223C172.24 33.4154 171.895 34.0853 171.455 33.9911C171.277 33.9911 171.214 33.7608 171.214 33.5201C171.437 33.1143 171.535 32.6519 171.497 32.1906C171.497 32.0545 171.246 31.887 171.183 32.0754C171.025 32.4629 170.93 32.8727 170.9 33.2897C170.704 33.6579 170.477 34.0082 170.22 34.3366C170.073 34.5355 169.937 34.7553 169.78 34.9438C169.623 35.1322 169.665 35.0903 169.602 35.1008C169.539 35.1113 169.466 35.038 169.445 34.9438C169.444 34.7941 169.468 34.6453 169.518 34.5041C169.518 34.3575 169.34 34.1377 169.267 34.3261C168.963 35.0628 168.53 35.7397 167.99 36.3256L167.906 36.3884V36.1372C167.898 35.9413 167.863 35.7475 167.801 35.5614C167.801 35.4672 167.613 35.3206 167.519 35.4463C167.133 36.1441 166.662 36.7911 166.116 37.3724C166.022 37.4526 165.921 37.5227 165.812 37.5818C165.718 37.5818 165.865 37.0165 165.886 36.9328C165.907 36.849 166.022 36.4826 166.095 36.2523C166.17 36.0728 166.23 35.8872 166.273 35.6975C166.273 35.5195 165.99 35.2473 165.938 35.4881C165.886 35.7289 165.833 35.8126 165.75 36.0953C165.401 36.7966 165.002 37.4719 164.556 38.1157C164.15 38.7786 163.58 39.3264 162.902 39.7069C162.714 39.8116 162.358 39.9581 162.148 39.8116C161.939 39.665 161.971 39.4033 161.96 39.2149C161.953 38.7158 162.02 38.2184 162.159 37.7388C162.827 37.3931 163.443 36.9563 163.991 36.4407C164.542 36.0137 165.013 35.4928 165.383 34.9019C165.572 34.5669 165.687 34.0121 165.226 33.855C164.766 33.698 164.504 33.9388 164.242 34.0958C163.854 34.3002 163.5 34.5652 163.195 34.881C162.603 35.5445 162.173 36.3365 161.939 37.1945C161.939 37.3201 161.845 37.4981 161.793 37.697C161.071 38.0593 160.258 38.1943 159.458 38.0843C159.458 38.0843 159.395 38.1785 159.458 38.189C160.223 38.3517 161.02 38.275 161.74 37.9691C161.541 38.8485 161.426 40.0628 162.253 40.2513C163.08 40.4397 164.075 39.4452 164.514 38.859C164.855 38.4094 165.152 37.9293 165.404 37.4248C165.422 37.386 165.447 37.3506 165.477 37.3201C165.477 37.7284 165.561 38.0319 165.959 37.9587C166.357 37.8854 166.744 37.3096 167.006 37.006C167.268 36.7025 167.414 36.3989 167.613 36.0848C167.613 36.4617 167.707 36.8804 168.063 36.8071C168.419 36.7339 168.712 36.1267 168.88 35.8755C169.047 35.6242 169.162 35.4358 169.277 35.2055C169.295 35.2532 169.324 35.2961 169.361 35.3311C169.654 35.6452 170 35.3311 170.188 35.0589C170.377 34.7867 170.764 34.3261 171.015 33.9283C171.077 34.1027 171.205 34.2456 171.371 34.3261C171.821 34.5355 172.24 34.1691 172.502 33.8341C172.825 33.4016 173.113 32.9429 173.36 32.4627C173.376 32.5537 173.412 32.6398 173.467 32.7143C173.521 32.7887 173.592 32.8496 173.674 32.892C173.839 32.9745 174.022 33.0121 174.206 33.0011C174.39 32.9901 174.567 32.9308 174.721 32.8291C174.847 32.7349 174.711 32.4209 174.564 32.5046ZM164.64 34.2319C164.849 34.1272 165.289 33.9388 165.31 34.2947C165.283 34.5282 165.184 34.7476 165.027 34.9228C164.677 35.4383 164.266 35.9093 163.802 36.3256C163.33 36.767 162.815 37.1598 162.264 37.4981C162.409 36.8175 162.695 36.1749 163.104 35.6122C163.514 35.0496 164.037 34.5793 164.64 34.2319Z" fill="#E0E0E0"/>
<path d="M152.654 91.9339L153.921 92.6667L185.598 74.3783L184.332 73.6455L152.654 91.9339Z" fill="#F0F0F0"/>
<path d="M184.332 73.6452L153.921 91.2007V64.8412L184.332 47.2856V73.6452Z" fill="#FAFAFA"/>
<path d="M186.833 44.355L152.623 64.1089V94.8547L186.833 75.0589V44.355ZM185.567 74.3784L153.889 92.6668V64.8417L185.567 46.5533V74.3784Z" fill="#EBEBEB"/>
<path d="M185.598 74.3778L184.332 73.645V47.2855L185.598 46.5527V74.3778Z" fill="#E0E0E0"/>
<path d="M186.865 44.3549L185.598 43.6221L151.387 63.376L152.654 64.1088L186.865 44.3549Z" fill="#F5F5F5"/>
<path d="M151.388 63.3755L152.654 64.1083V94.8541L151.388 94.1317V63.3755Z" fill="#E0E0E0"/>
<path d="M178.365 69.2068C179.548 68.5264 180.458 69.0812 180.458 70.4421C180.425 71.1808 180.218 71.9011 179.854 72.5449C179.49 73.1887 178.98 73.7379 178.365 74.1479C177.182 74.8284 176.271 74.284 176.271 72.9126C176.307 72.1745 176.515 71.455 176.879 70.8116C177.242 70.1682 177.751 69.6187 178.365 69.2068Z" fill="#E0E0E0"/>
<path d="M161.081 63.6372L177.181 54.3412C177.632 54.0795 177.998 54.3412 177.998 54.8018C177.981 55.0833 177.899 55.3568 177.757 55.6004C177.615 55.8441 177.418 56.051 177.181 56.2046L161.081 65.511C160.631 65.7727 160.275 65.511 160.275 65.0504C160.288 64.7679 160.368 64.4926 160.508 64.2469C160.648 64.0013 160.845 63.7923 161.081 63.6372Z" fill="#E0E0E0"/>
<path d="M158.569 70.9651L179.757 58.7275C180.207 58.4763 180.573 58.5915 180.573 58.9997C180.54 59.2485 180.448 59.4859 180.306 59.6931C180.165 59.9003 179.977 60.0715 179.757 60.1931L158.569 72.4412C158.119 72.7029 157.763 72.5773 157.763 72.169C157.8 71.9213 157.891 71.6848 158.031 71.4767C158.17 71.2685 158.354 71.0938 158.569 70.9651Z" fill="#F0F0F0"/>
<path d="M158.569 73.8972L179.757 61.6596C180.207 61.3979 180.573 61.513 180.573 61.9213C180.54 62.17 180.448 62.4075 180.306 62.6147C180.165 62.8219 179.977 62.9931 179.757 63.1147L158.569 75.3627C158.119 75.6245 157.763 75.5093 157.763 75.101C157.797 74.8524 157.887 74.6147 158.027 74.4061C158.167 74.1976 158.352 74.0235 158.569 73.8972Z" fill="#F0F0F0"/>
<path d="M158.569 76.8174L179.725 64.5902C180.176 64.3285 180.542 64.4437 180.542 64.8519C180.508 65.1021 180.417 65.3409 180.275 65.5498C180.134 65.7587 179.945 65.9319 179.725 66.0558L158.569 78.2934C158.119 78.5446 157.763 78.4295 157.763 78.0212C157.798 77.773 157.889 77.536 158.029 77.3276C158.168 77.1193 158.353 76.9449 158.569 76.8174Z" fill="#F0F0F0"/>
<path d="M174.564 75.467C174.399 75.5534 174.217 75.6 174.03 75.6031C173.58 75.6031 173.622 75.1425 173.633 74.8284C173.633 74.6819 173.444 74.4621 173.34 74.6505C173.057 75.153 172.711 75.6136 172.418 76.0951C172.24 76.3882 171.895 77.0582 171.455 76.9535C171.277 76.9535 171.214 76.7232 171.214 76.4825C171.438 76.0808 171.537 75.6215 171.497 75.1634C171.497 75.0273 171.246 74.8599 171.183 75.0378C171.025 75.4286 170.929 75.842 170.9 76.2626C170.702 76.6292 170.474 76.9793 170.22 77.3095C170.073 77.5084 169.937 77.7177 169.78 77.9062C169.623 78.0946 169.665 78.0632 169.602 78.0737C169.54 78.0841 169.466 78.0108 169.445 77.9062C169.444 77.7599 169.469 77.6146 169.519 77.477C169.519 77.3304 169.341 77.121 169.267 77.299C168.987 78.0689 168.565 78.7792 168.022 79.3927L167.938 79.4555V79.2042C167.928 79.0086 167.893 78.815 167.833 78.6285C167.833 78.5343 167.645 78.3982 167.551 78.5238C167.164 79.2274 166.693 79.8812 166.148 80.4709C166.051 80.5476 165.95 80.6175 165.844 80.6803C165.75 80.6175 165.897 80.1045 165.917 80.0313C165.938 79.958 166.054 79.5706 166.127 79.3508C166.203 79.1682 166.263 78.979 166.305 78.7855C166.305 78.618 166.022 78.3458 165.97 78.5761C165.917 78.8064 165.865 78.9111 165.781 79.1938C165.435 79.893 165.036 80.5649 164.588 81.2037C164.182 81.8699 163.613 82.4212 162.934 82.8054C162.746 82.8996 162.39 83.0566 162.18 82.8996C161.971 82.7426 162.002 82.4913 161.992 82.3029C161.984 81.8072 162.051 81.3131 162.191 80.8373C162.854 80.4844 163.47 80.0482 164.023 79.5392C164.569 79.107 165.039 78.587 165.415 78.0004C165.603 77.6549 165.719 77.1001 165.258 76.9535C164.797 76.807 164.536 77.0373 164.274 77.1838C163.888 77.3917 163.535 77.6564 163.227 77.969C162.635 78.6326 162.205 79.4245 161.971 80.2825C161.971 80.4186 161.877 80.5861 161.824 80.785C161.106 81.1572 160.289 81.2928 159.49 81.1723C159.49 81.1723 159.427 81.2665 159.49 81.277C160.255 81.4397 161.052 81.363 161.772 81.0572C161.573 81.947 161.458 83.1508 162.285 83.3497C163.112 83.5486 164.106 82.5437 164.546 81.947C164.886 81.4974 165.184 81.0173 165.436 80.5128L165.509 80.4081C165.509 80.8269 165.593 81.12 165.991 81.0572C166.389 80.9944 166.776 80.4081 167.038 80.0941C167.299 79.78 167.446 79.4869 167.645 79.1833C167.645 79.5497 167.739 79.9684 168.095 79.9056C168.451 79.8428 168.744 79.2147 168.911 78.9635C169.056 78.7512 169.189 78.531 169.309 78.304C169.327 78.3486 169.356 78.3882 169.393 78.4191C169.686 78.7436 170.032 78.4191 170.22 78.1574C170.408 77.8957 170.796 77.4246 171.047 77.0268C171.111 77.1994 171.238 77.3415 171.403 77.4246C171.853 77.634 172.272 77.2571 172.533 76.9221C172.86 76.4912 173.147 76.0323 173.392 75.5508C173.407 75.6433 173.443 75.7312 173.497 75.8075C173.552 75.8837 173.623 75.9464 173.706 75.9904C173.871 76.0714 174.055 76.1073 174.239 76.0945C174.423 76.0816 174.6 76.0204 174.753 75.9172C174.847 75.6973 174.711 75.3937 174.564 75.467ZM164.64 77.2362C164.85 77.1315 165.289 76.9535 165.31 77.3095C165.287 77.541 165.188 77.7584 165.028 77.9271C164.672 78.4132 164.261 78.8559 163.803 79.2461C163.328 79.6877 162.813 80.0837 162.264 80.4291C162.419 79.7621 162.711 79.1344 163.12 78.5851C163.528 78.0357 164.046 77.5765 164.64 77.2362Z" fill="#E0E0E0"/>
<path d="M126.294 11.7559L127.162 12.2479V115.247C127.162 117.906 125.54 120.994 123.551 122.135L12.8053 186.024C12.4786 186.25 12.1004 186.39 11.7054 186.432C11.3104 186.474 10.9111 186.417 10.5441 186.265C10.3662 186.181 9.74853 185.814 9.61244 185.731C9.1836 185.398 8.84557 184.963 8.62964 184.465C8.41371 183.968 8.32687 183.424 8.37717 182.883V79.8425L126.294 11.7559Z" fill="#E0E0E0"/>
<path d="M12.8055 186.024L123.509 122.167C125.498 121.026 127.121 117.979 127.121 115.278V12.248L9.19385 80.2929V183.302C9.19385 185.961 10.806 187.186 12.8055 186.024Z" fill="#FAFAFA"/>
<path d="M126.179 13.8497V115.226C126.155 116.412 125.86 117.578 125.315 118.632C124.771 119.687 123.992 120.602 123.038 121.308L12.3239 185.166C12.0366 185.354 11.7041 185.463 11.3608 185.48C10.4396 185.48 10.1151 184.276 10.1151 183.25V80.8477L126.168 13.8497H126.179ZM127.163 12.248L9.19385 80.2929V183.302C9.19385 185.281 10.0941 186.443 11.3713 186.443C11.8786 186.427 12.373 186.279 12.8055 186.014L123.509 122.167C125.498 121.026 127.121 117.979 127.121 115.278V12.248H127.163Z" fill="#E0E0E0"/>
<path d="M8.60769 83.7996L5.85449 79.0155L126.545 9.33765C126.767 9.22245 127.017 9.17124 127.266 9.18973C127.516 9.20821 127.756 9.29567 127.958 9.44234C128.527 9.81271 129.001 10.3118 129.341 10.8992C129.681 11.4867 129.878 12.1459 129.916 12.8236C129.938 13.0578 129.9 13.2936 129.807 13.5095C129.713 13.7253 129.567 13.9143 129.382 14.0589L8.60769 83.7996Z" fill="#F0F0F0"/>
<path d="M9.19379 82.5222C9.15782 81.8452 8.96276 81.1862 8.62446 80.5988C8.28615 80.0113 7.81412 79.5118 7.24666 79.1409C6.19982 78.5232 5.28906 79.0257 5.28906 80.2715C5.32703 80.9492 5.52403 81.6084 5.86412 82.1959C6.20421 82.7833 6.67784 83.2824 7.24666 83.6528C8.32491 84.2704 9.19379 83.7679 9.19379 82.5222Z" fill="#E0E0E0"/>
<path d="M100.007 84.0297C99.9304 84.0313 99.8545 84.0116 99.788 83.9728C99.7215 83.934 99.667 83.8776 99.6305 83.8099C99.6006 83.7607 99.581 83.7059 99.5728 83.649C99.5645 83.592 99.5678 83.5339 99.5825 83.4783C99.5971 83.4226 99.6228 83.3704 99.6581 83.3249C99.6933 83.2794 99.7373 83.2414 99.7875 83.2132L114.14 74.9222C114.19 74.8926 114.245 74.8733 114.303 74.8652C114.361 74.8571 114.419 74.8604 114.476 74.875C114.532 74.8895 114.585 74.9151 114.632 74.9501C114.678 74.9852 114.717 75.029 114.747 75.0792C114.776 75.1294 114.796 75.1849 114.804 75.2426C114.812 75.3003 114.809 75.359 114.794 75.4153C114.78 75.4717 114.754 75.5247 114.719 75.5712C114.684 75.6177 114.64 75.6568 114.59 75.6864L100.227 83.9774C100.159 84.0106 100.084 84.0285 100.007 84.0297Z" fill="#E0E0E0"/>
<path d="M100.007 88.0918C99.9085 88.0945 99.8115 88.0638 99.7322 88.0045C99.6528 87.9453 99.5959 87.861 99.5704 87.7653C99.545 87.6696 99.5526 87.5681 99.592 87.4773C99.6314 87.3865 99.7003 87.3116 99.7876 87.2648L114.14 78.9738C114.243 78.9168 114.364 78.9024 114.478 78.9337C114.591 78.965 114.688 79.0395 114.747 79.1413C114.777 79.1906 114.796 79.2453 114.805 79.3023C114.813 79.3592 114.81 79.4173 114.795 79.473C114.78 79.5286 114.755 79.5808 114.719 79.6263C114.684 79.6719 114.64 79.7098 114.59 79.738L100.227 88.029C100.161 88.0705 100.085 88.0922 100.007 88.0918Z" fill="#E0E0E0"/>
<path d="M100.008 92.143C99.931 92.1423 99.856 92.1217 99.7899 92.0831C99.7238 92.0446 99.6689 91.9895 99.6307 91.9232C99.6006 91.8731 99.5808 91.8176 99.5724 91.7598C99.564 91.7021 99.5673 91.6432 99.5819 91.5867C99.5965 91.5302 99.6222 91.4771 99.6576 91.4306C99.6929 91.3842 99.7371 91.3452 99.7877 91.316L114.14 83.0355C114.241 82.9758 114.362 82.9588 114.476 82.9882C114.59 83.0177 114.687 83.0912 114.747 83.1925C114.807 83.2938 114.824 83.4147 114.794 83.5286C114.765 83.6425 114.691 83.74 114.59 83.7997L100.227 92.0802C100.162 92.1217 100.085 92.1435 100.008 92.143Z" fill="#E0E0E0"/>
<path d="M100.007 96.1939C99.9031 96.1974 99.8016 96.1598 99.7248 96.0892L86.9323 85.0241C86.8827 84.9883 86.841 84.9426 86.81 84.8898C86.779 84.837 86.7594 84.7783 86.7524 84.7175C86.7454 84.6567 86.7512 84.5951 86.7693 84.5366C86.7875 84.4782 86.8177 84.4242 86.858 84.3781C86.8982 84.3319 86.9477 84.2947 87.0031 84.2688C87.0586 84.2429 87.1189 84.2289 87.1801 84.2276C87.2413 84.2264 87.302 84.2379 87.3585 84.2615C87.415 84.285 87.466 84.3202 87.5081 84.3646L100.07 95.2203L114.15 87.0864C114.2 87.0568 114.256 87.0374 114.314 87.0293C114.371 87.0212 114.43 87.0245 114.486 87.0391C114.543 87.0537 114.596 87.0792 114.642 87.1143C114.689 87.1493 114.728 87.1932 114.757 87.2434C114.787 87.2936 114.806 87.3491 114.814 87.4067C114.823 87.4644 114.819 87.5231 114.805 87.5795C114.79 87.6359 114.765 87.6888 114.729 87.7353C114.694 87.7818 114.651 87.821 114.6 87.8505L100.238 96.1415C100.166 96.1763 100.087 96.1942 100.007 96.1939Z" fill="#E0E0E0"/>
<path d="M93.3493 117.55C93.273 117.548 93.1984 117.527 93.1325 117.488C93.0665 117.45 93.0115 117.395 92.9724 117.33C92.9424 117.28 92.9226 117.224 92.9142 117.167C92.9058 117.109 92.9091 117.05 92.9237 116.993C92.9383 116.937 92.964 116.884 92.9994 116.837C93.0347 116.791 93.0789 116.752 93.1295 116.723L107.482 108.442C107.532 108.412 107.587 108.392 107.645 108.384C107.703 108.376 107.762 108.379 107.818 108.393C107.875 108.408 107.928 108.434 107.974 108.469C108.021 108.504 108.06 108.549 108.089 108.599C108.119 108.648 108.138 108.703 108.147 108.76C108.155 108.817 108.151 108.875 108.137 108.931C108.122 108.987 108.096 109.039 108.061 109.084C108.026 109.13 107.982 109.168 107.932 109.196L93.5692 117.487C93.5034 117.528 93.4271 117.55 93.3493 117.55Z" fill="#E0E0E0"/>
<path d="M93.3496 121.601C93.2541 121.6 93.1616 121.567 93.0861 121.508C93.0107 121.45 92.9565 121.368 92.9316 121.276C92.9068 121.183 92.9127 121.086 92.9484 120.997C92.9842 120.908 93.0479 120.834 93.1298 120.784L107.482 112.493C107.532 112.464 107.588 112.445 107.645 112.436C107.703 112.428 107.762 112.432 107.818 112.446C107.875 112.461 107.927 112.486 107.974 112.521C108.02 112.556 108.06 112.6 108.089 112.651C108.119 112.701 108.138 112.756 108.146 112.814C108.154 112.872 108.151 112.93 108.136 112.987C108.122 113.043 108.096 113.096 108.061 113.142C108.026 113.189 107.982 113.228 107.932 113.258L93.5695 121.538C93.5037 121.58 93.4274 121.601 93.3496 121.601Z" fill="#E0E0E0"/>
<path d="M93.3496 125.653C93.2541 125.651 93.1616 125.619 93.0861 125.56C93.0107 125.501 92.9565 125.42 92.9316 125.327C92.9068 125.235 92.9127 125.137 92.9484 125.048C92.9842 124.96 93.0479 124.885 93.1298 124.836L107.482 116.545C107.533 116.515 107.589 116.496 107.647 116.489C107.705 116.481 107.764 116.485 107.821 116.501C107.878 116.516 107.93 116.543 107.976 116.579C108.023 116.616 108.061 116.661 108.089 116.713C108.119 116.762 108.139 116.816 108.147 116.873C108.155 116.93 108.152 116.988 108.137 117.044C108.123 117.1 108.097 117.152 108.062 117.198C108.026 117.243 107.982 117.281 107.932 117.309L93.5695 125.6C93.5028 125.639 93.4264 125.657 93.3496 125.653Z" fill="#E0E0E0"/>
<path d="M93.3497 129.714C93.2466 129.711 93.1473 129.674 93.067 129.609L80.2746 118.544C80.1928 118.46 80.147 118.347 80.147 118.23C80.147 118.112 80.1928 118 80.2746 117.916C80.3599 117.836 80.4721 117.792 80.5887 117.792C80.7052 117.792 80.8175 117.836 80.9027 117.916L93.4648 128.771L107.545 120.648C107.595 120.618 107.65 120.598 107.708 120.59C107.766 120.581 107.825 120.585 107.881 120.599C107.938 120.614 107.991 120.639 108.037 120.675C108.084 120.71 108.123 120.754 108.152 120.805C108.182 120.854 108.202 120.909 108.21 120.966C108.218 121.023 108.215 121.081 108.2 121.137C108.185 121.192 108.16 121.244 108.124 121.29C108.089 121.335 108.045 121.373 107.995 121.402L93.6323 129.693C93.5437 129.733 93.4434 129.741 93.3497 129.714Z" fill="#E0E0E0"/>
<path d="M48.4818 135.922C48.6487 135.726 48.7798 135.503 48.8692 135.262C48.9843 134.906 48.8692 134.718 48.7017 134.844L34.3494 143.103C34.0683 143.32 33.8571 143.615 33.7423 143.951C33.6271 144.307 33.7423 144.496 33.9098 144.37L48.262 136.079C48.3429 136.038 48.4171 135.985 48.4818 135.922Z" fill="#E0E0E0"/>
<path d="M48.4818 139.963C48.6487 139.767 48.7798 139.544 48.8692 139.303C48.9843 138.947 48.8692 138.769 48.7017 138.884L34.3494 147.186C34.0662 147.405 33.8547 147.704 33.7423 148.044C33.6271 148.39 33.7423 148.578 33.9098 148.453L48.262 140.172C48.3461 140.115 48.4203 140.044 48.4818 139.963Z" fill="#E0E0E0"/>
<path d="M48.4818 144.024C48.653 143.832 48.7847 143.608 48.8692 143.365C48.9843 143.019 48.8692 142.831 48.7017 142.957L34.3494 151.237C34.0684 151.459 33.8575 151.757 33.7423 152.095C33.6271 152.451 33.7423 152.629 33.9098 152.514L48.262 144.223C48.3477 144.172 48.4224 144.105 48.4818 144.024Z" fill="#E0E0E0"/>
<path d="M48.9215 147.877C49.0381 147.744 49.1367 147.596 49.2146 147.437L58.7199 128.28C58.8351 128.029 58.9293 127.746 58.6467 127.558C58.364 127.369 58.1023 127.694 57.9767 127.935L48.4295 147.165L34.3494 155.299C34.0683 155.516 33.8571 155.811 33.7423 156.147C33.6271 156.503 33.7423 156.691 33.9098 156.566L48.262 148.275C48.493 148.162 48.7137 148.029 48.9215 147.877Z" fill="#E0E0E0"/>
<path d="M32.9466 118.69C33.1063 118.492 33.2335 118.269 33.3235 118.031C33.4491 117.675 33.3235 117.487 33.1664 117.612L18.8037 125.903C18.5232 126.119 18.315 126.414 18.207 126.751C18.0814 127.107 18.207 127.295 18.3641 127.17L32.7268 118.879C32.8084 118.827 32.8824 118.763 32.9466 118.69Z" fill="#E0E0E0"/>
<path d="M32.9466 122.742C33.1063 122.544 33.2335 122.321 33.3235 122.083C33.4491 121.727 33.3235 121.549 33.1664 121.664L18.8037 129.955C18.5204 130.172 18.3119 130.472 18.207 130.814C18.0814 131.159 18.207 131.348 18.3641 131.222L32.7268 122.941C32.8057 122.882 32.8792 122.815 32.9466 122.742Z" fill="#E0E0E0"/>
<path d="M32.9466 126.793C33.1114 126.598 33.2391 126.375 33.3235 126.134C33.4491 125.788 33.3235 125.6 33.1664 125.726L18.8037 134.006C18.5229 134.226 18.3149 134.525 18.207 134.865C18.0814 135.22 18.207 135.398 18.3641 135.283L32.7268 126.992C32.8082 126.936 32.882 126.869 32.9466 126.793Z" fill="#E0E0E0"/>
<path d="M33.4071 130.646C33.5202 130.512 33.6153 130.364 33.6897 130.206L43.2056 111.049C43.3102 110.797 43.4149 110.515 43.1218 110.326C42.8287 110.138 42.5879 110.462 42.4623 110.703L32.9465 129.934L18.856 138.068C18.5754 138.283 18.3673 138.579 18.2593 138.916C18.1337 139.272 18.2593 139.46 18.4163 139.334L32.779 131.043C32.9966 130.924 33.2064 130.792 33.4071 130.646Z" fill="#E0E0E0"/>
<path d="M45.2047 94.1743C46.3667 94.7605 46.6808 96.2051 48.8268 94.08C50.7276 92.1751 52.5006 90.1468 54.1343 88.0083C54.4998 87.1421 54.5876 86.1838 54.3855 85.2656C55.0007 86.1345 55.4243 87.1242 55.6283 88.1691C55.8322 89.2141 55.8118 90.2904 55.5685 91.3268C55.0032 90.28 54.6368 89.9031 53.2759 90.8558C51.915 91.8084 49.0885 94.4255 48.3034 96.3726C47.5182 98.3198 46.7122 102.434 43.2681 104.747L45.2047 94.1743Z" fill="#E0E0E0"/>
<path opacity="0.1" d="M45.2047 94.1743C46.3667 94.7605 46.6808 96.2051 48.8268 94.08C50.7276 92.1751 52.5006 90.1468 54.1343 88.0083C54.4998 87.1421 54.5876 86.1838 54.3855 85.2656C55.0007 86.1345 55.4243 87.1242 55.6283 88.1691C55.8322 89.2141 55.8118 90.2904 55.5685 91.3268C55.0032 90.28 54.6368 89.9031 53.2759 90.8558C51.915 91.8084 49.0885 94.4255 48.3034 96.3726C47.5182 98.3198 46.7122 102.434 43.2681 104.747L45.2047 94.1743Z" fill="black"/>
<g opacity="0.1">
<path opacity="0.1" d="M50.743 77.9686C44.3258 78.691 40.5362 77.8011 35.0403 76.0843C29.5444 74.3675 25.3884 78.4083 24.017 83.8519C23.033 87.7357 24.2578 94.5716 27.2413 98.5077C30.2248 102.444 32.8001 103.323 32.8001 103.323L35.8464 94.6867C35.8464 94.6867 32.2452 96.7804 29.3559 94.8752C26.4667 92.9699 24.1217 89.128 24.9697 83.9042C25.8176 78.6805 30.5703 75.6551 35.0403 76.9532C40.0894 78.6902 45.5121 79.0409 50.743 77.9686Z" fill="black"/>
<path opacity="0.1" d="M86.6812 57.2621C93.0983 50.5623 96.8879 45.3071 102.384 37.2255C107.88 29.1439 112.036 28.4006 113.407 32.253C114.391 35.0062 113.166 43.2553 110.183 50.6879C108.698 54.5898 106.836 58.3377 104.624 61.8787L101.578 56.7491C104.317 54.8877 106.545 52.368 108.058 49.4212C110.947 44.187 113.292 37.6757 112.454 33.3731C111.617 29.0706 106.854 31.604 102.384 38.0734C97.8517 45.0134 92.5873 51.4465 86.6812 57.2621Z" fill="black"/>
<path opacity="0.1" d="M68.7173 144.684C69.6719 144.122 70.7509 143.805 71.8578 143.763C71.8578 128.521 72.5488 122.208 73.7422 119.685C74.9356 117.162 75.302 115.55 74.8623 115.205C74.4226 114.859 72.4231 118.858 70.9157 119.172C69.4082 119.486 68.665 118.471 68.665 116.471C68.6876 117.465 68.5019 118.453 68.1196 119.371C67.7374 120.288 67.1672 121.116 66.4457 121.8C64.9382 123.234 62.9283 121.538 62.4886 122.397C62.0489 123.255 62.4258 124.49 63.6192 125.537C64.8126 126.584 65.5035 132.164 65.5035 147.406C66.3968 146.323 67.4569 145.39 68.644 144.642" fill="black"/>
<path opacity="0.1" d="M68.7172 98.5493C68.9371 101.418 68.9894 104.391 68.9999 107.374C69.0103 110.358 68.9371 113.394 68.7172 116.513C68.5079 113.645 68.4555 110.682 68.4451 107.699C68.4346 104.715 68.5393 101.669 68.7172 98.5493Z" fill="black"/>
</g>
<path d="M44.1918 103.693C46.9824 100.063 47.1193 95.4861 44.4974 93.4706C41.8755 91.4551 37.4877 92.7642 34.697 96.3945C31.9063 100.025 31.7695 104.602 34.3914 106.617C37.0133 108.633 41.4011 107.324 44.1918 103.693Z" fill="#EBEBEB"/>
<path d="M313.176 152.41C314.402 152.41 315.396 151.407 315.396 150.169C315.396 148.932 314.402 147.929 313.176 147.929C311.951 147.929 310.957 148.932 310.957 150.169C310.957 151.407 311.951 152.41 313.176 152.41Z" fill="#455A64"/>
<path d="M390.486 217.722L332.805 150.651H313.177V149.698H333.234L391.198 217.104L390.486 217.722Z" fill="#455A64"/>
<path d="M418.447 275.079C437.93 275.079 453.725 259.167 453.725 239.538C453.725 219.91 437.93 203.998 418.447 203.998C398.963 203.998 383.168 219.91 383.168 239.538C383.168 259.167 398.963 275.079 418.447 275.079Z" fill="white"/>
<path d="M418.446 276.052C411.205 276.104 404.111 274.004 398.065 270.019C392.019 266.033 387.293 260.341 384.486 253.666C381.68 246.99 380.919 239.632 382.3 232.523C383.682 225.414 387.144 218.876 392.247 213.738C397.35 208.6 403.864 205.093 410.963 203.662C418.061 202.232 425.425 202.942 432.12 205.702C438.815 208.463 444.539 213.15 448.566 219.168C452.593 225.187 454.742 232.266 454.74 239.507C454.763 249.163 450.954 258.433 444.15 265.284C437.346 272.136 428.102 276.008 418.446 276.052ZM418.446 204.961C411.603 204.91 404.898 206.891 399.183 210.656C393.468 214.42 388.999 219.797 386.344 226.105C383.689 232.412 382.968 239.367 384.271 246.085C385.574 252.803 388.844 258.983 393.664 263.841C398.485 268.698 404.64 272.015 411.348 273.369C418.057 274.723 425.016 274.054 431.344 271.448C437.671 268.841 443.082 264.413 446.89 258.727C450.697 253.04 452.73 246.351 452.731 239.507C452.747 230.388 449.148 221.634 442.721 215.165C436.295 208.695 427.565 205.037 418.446 204.993V204.961Z" fill="#64CF83"/>
<path d="M308.727 131.871C308.729 132.312 308.862 132.742 309.109 133.108C309.355 133.473 309.705 133.757 310.113 133.924C310.521 134.091 310.97 134.133 311.402 134.045C311.834 133.957 312.231 133.743 312.541 133.429C312.851 133.116 313.062 132.718 313.146 132.285C313.23 131.852 313.184 131.404 313.013 130.997C312.842 130.591 312.555 130.244 312.187 130C311.819 129.757 311.387 129.628 310.946 129.63C310.654 129.632 310.364 129.691 310.094 129.804C309.824 129.917 309.579 130.083 309.373 130.291C309.167 130.499 309.004 130.745 308.893 131.017C308.782 131.288 308.726 131.578 308.727 131.871Z" fill="#455A64"/>
<path d="M332.7 132.353H310.947V131.4H332.376L344.613 121.654H385.189V122.606H344.938L332.7 132.353Z" fill="#455A64"/>
<path d="M420.467 157.665C439.951 157.665 455.746 141.753 455.746 122.125C455.746 102.496 439.951 86.5845 420.467 86.5845C400.983 86.5845 385.188 102.496 385.188 122.125C385.188 141.753 400.983 157.665 420.467 157.665Z" fill="white"/>
<path d="M420.467 158.68C413.224 158.734 406.128 156.635 400.08 152.649C394.032 148.664 389.304 142.971 386.497 136.294C383.689 129.617 382.929 122.256 384.312 115.146C385.695 108.036 389.159 101.497 394.264 96.3587C399.37 91.2207 405.887 87.7152 412.988 86.2873C420.089 84.8593 427.455 85.5731 434.15 88.3382C440.845 91.1033 446.567 95.7949 450.591 101.818C454.615 107.841 456.759 114.923 456.751 122.166C456.765 131.815 452.954 141.076 446.153 147.92C439.352 154.764 430.116 158.633 420.467 158.68ZM420.467 87.5892C413.624 87.5374 406.919 89.5193 401.204 93.2836C395.488 97.0479 391.02 102.425 388.365 108.733C385.71 115.04 384.989 121.994 386.292 128.713C387.595 135.431 390.864 141.611 395.685 146.469C400.506 151.326 406.661 154.642 413.369 155.997C420.077 157.351 427.037 156.682 433.364 154.076C439.692 151.469 445.103 147.041 448.911 141.355C452.718 135.668 454.751 128.979 454.751 122.135C454.771 113.015 451.172 104.26 444.745 97.7895C438.318 91.3192 429.587 87.6622 420.467 87.6206V87.5892Z" fill="#64CF83"/>
<path d="M305.387 115.132L304.812 114.378L327.528 96.8327V74.8071H328.47V97.2933L328.282 97.4399L305.387 115.132Z" fill="#455A64"/>
<path d="M302.875 114.755C302.877 115.196 303.01 115.626 303.256 115.991C303.502 116.357 303.851 116.641 304.259 116.808C304.666 116.975 305.114 117.018 305.546 116.931C305.978 116.843 306.374 116.63 306.685 116.318C306.996 116.006 307.207 115.608 307.292 115.176C307.378 114.744 307.333 114.296 307.164 113.889C306.995 113.482 306.709 113.135 306.343 112.89C305.976 112.646 305.545 112.515 305.105 112.515C304.811 112.515 304.52 112.573 304.249 112.686C303.978 112.799 303.732 112.964 303.524 113.172C303.317 113.38 303.153 113.627 303.042 113.899C302.93 114.171 302.874 114.462 302.875 114.755Z" fill="#455A64"/>
<path d="M327.999 74.8072C347.483 74.8072 363.278 58.8953 363.278 39.2669C363.278 19.6385 347.483 3.72656 327.999 3.72656C308.515 3.72656 292.721 19.6385 292.721 39.2669C292.721 58.8953 308.515 74.8072 327.999 74.8072Z" fill="white"/>
<path d="M327.999 75.8128C320.761 75.8647 313.669 73.7654 307.625 69.7814C301.581 65.7974 296.856 60.1081 294.05 53.4351C291.244 46.762 290.483 39.4059 291.863 32.2997C293.243 25.1934 296.703 18.6572 301.804 13.5201C306.904 8.38289 313.415 4.87621 320.511 3.44476C327.607 2.01331 334.969 2.72158 341.662 5.47975C348.355 8.23792 354.078 12.9217 358.105 18.9371C362.133 24.9525 364.283 32.0284 364.283 39.2675C364.305 48.9215 360.498 58.1902 353.696 65.0411C346.894 71.892 337.653 75.7657 327.999 75.8128ZM327.999 4.72169C321.156 4.66985 314.451 6.65177 308.736 10.4161C303.021 14.1803 298.552 19.5574 295.897 25.8651C293.242 32.1727 292.521 39.1268 293.824 45.8452C295.127 52.5636 298.397 58.7435 303.217 63.6011C308.038 68.4586 314.193 71.7749 320.901 73.1292C327.61 74.4835 334.569 73.8148 340.897 71.208C347.224 68.6012 352.635 64.1736 356.443 58.4871C360.25 52.8005 362.283 46.1111 362.284 39.2675C362.306 30.1439 358.709 21.3837 352.282 14.9078C345.856 8.43187 337.123 4.76878 327.999 4.72169Z" fill="#64CF83"/>
<path d="M165.53 115.132L142.447 97.2933V74.8071H143.389V96.8327L166.105 114.378L165.53 115.132Z" fill="#455A64"/>
<path d="M168.042 114.755C168.04 115.196 167.907 115.626 167.661 115.991C167.415 116.357 167.066 116.641 166.658 116.808C166.251 116.975 165.803 117.018 165.371 116.931C164.939 116.843 164.543 116.63 164.232 116.318C163.921 116.006 163.71 115.608 163.625 115.176C163.539 114.744 163.584 114.296 163.753 113.889C163.922 113.482 164.208 113.135 164.575 112.89C164.941 112.646 165.372 112.515 165.812 112.515C166.106 112.515 166.397 112.573 166.668 112.686C166.939 112.799 167.185 112.964 167.393 113.172C167.6 113.38 167.764 113.627 167.875 113.899C167.987 114.171 168.043 114.462 168.042 114.755Z" fill="#455A64"/>
<path d="M142.918 74.8072C162.402 74.8072 178.196 58.8953 178.196 39.2669C178.196 19.6385 162.402 3.72656 142.918 3.72656C123.434 3.72656 107.639 19.6385 107.639 39.2669C107.639 58.8953 123.434 74.8072 142.918 74.8072Z" fill="white"/>
<path d="M142.918 75.8128C135.679 75.8647 128.588 73.7654 122.544 69.7814C116.499 65.7974 111.775 60.1081 108.968 53.4351C106.162 46.762 105.401 39.4059 106.781 32.2997C108.162 25.1934 111.622 18.6572 116.722 13.5201C121.822 8.38289 128.334 4.87621 135.43 3.44476C142.526 2.01331 149.887 2.72158 156.58 5.47975C163.273 8.23792 168.996 12.9217 173.024 18.9371C177.051 24.9525 179.201 32.0284 179.201 39.2675C179.224 48.9215 175.417 58.1902 168.615 65.0411C161.813 71.892 152.572 75.7657 142.918 75.8128ZM142.918 4.72169C136.074 4.66985 129.37 6.65177 123.654 10.4161C117.939 14.1803 113.471 19.5574 110.816 25.8651C108.161 32.1727 107.439 39.1268 108.743 45.8452C110.046 52.5636 113.315 58.7435 118.136 63.6011C122.957 68.4586 129.111 71.7749 135.82 73.1292C142.528 74.4835 149.487 73.8148 155.815 71.208C162.143 68.6012 167.554 64.1736 171.361 58.4871C175.169 52.8005 177.202 46.1111 177.202 39.2675C177.224 30.1439 173.628 21.3837 167.201 14.9078C160.774 8.43187 152.041 4.76878 142.918 4.72169Z" fill="#64CF83"/>
<path d="M162.19 131.871C162.186 132.309 162.052 132.736 161.806 133.098C161.559 133.46 161.211 133.741 160.806 133.906C160.4 134.071 159.954 134.112 159.525 134.024C159.096 133.936 158.702 133.723 158.394 133.412C158.086 133.1 157.877 132.705 157.793 132.275C157.709 131.845 157.754 131.4 157.922 130.996C158.091 130.591 158.375 130.246 158.74 130.003C159.104 129.76 159.533 129.63 159.971 129.63C160.263 129.632 160.553 129.691 160.823 129.804C161.093 129.917 161.338 130.083 161.544 130.291C161.75 130.499 161.913 130.745 162.024 131.017C162.135 131.288 162.191 131.578 162.19 131.871Z" fill="#455A64"/>
<path d="M159.971 132.353H138.217L125.98 122.606H85.7285V121.654H126.315L138.552 131.4H159.971V132.353Z" fill="#455A64"/>
<path d="M50.45 157.665C69.9338 157.665 85.7286 141.753 85.7286 122.125C85.7286 102.496 69.9338 86.5845 50.45 86.5845C30.9662 86.5845 15.1714 102.496 15.1714 122.125C15.1714 141.753 30.9662 157.665 50.45 157.665Z" fill="white"/>
<path d="M50.45 158.68C43.2068 158.734 36.1109 156.635 30.0627 152.649C24.0146 148.664 19.2868 142.971 16.4794 136.294C13.672 129.617 12.9116 122.256 14.2946 115.146C15.6776 108.036 19.1418 101.497 24.2474 96.3587C29.353 91.2207 35.8699 87.7152 42.9711 86.2873C50.0724 84.8593 57.4377 85.5731 64.1326 88.3382C70.8274 91.1033 76.5499 95.7949 80.5738 101.818C84.5977 107.841 86.7417 114.923 86.7336 122.166C86.7476 131.815 82.9366 141.076 76.1357 147.92C69.3348 154.764 60.0984 158.633 50.45 158.68ZM50.45 87.5892C43.6066 87.5374 36.902 89.5193 31.1866 93.2836C25.4712 97.0479 21.0027 102.425 18.3478 108.733C15.693 115.04 14.9714 121.994 16.2747 128.713C17.5779 135.431 20.8473 141.611 25.668 146.469C30.4887 151.326 36.6436 154.642 43.3519 155.997C50.0602 157.351 57.0196 156.682 63.3473 154.076C69.6749 151.469 75.0858 147.041 78.8934 141.355C82.7011 135.668 84.7339 128.979 84.7341 122.135C84.7509 113.016 81.1515 104.262 74.7249 97.7926C68.2984 91.3228 59.569 87.665 50.45 87.6206V87.5892Z" fill="#64CF83"/>
<path d="M157.752 152.41C158.977 152.41 159.971 151.407 159.971 150.169C159.971 148.932 158.977 147.929 157.752 147.929C156.526 147.929 155.532 148.932 155.532 150.169C155.532 151.407 156.526 152.41 157.752 152.41Z" fill="#455A64"/>
<path d="M80.4321 217.722L79.7202 217.104L137.684 149.698H157.752V150.651H138.124L80.4321 217.722Z" fill="#455A64"/>
<path d="M52.4705 275.079C71.9543 275.079 87.7491 259.167 87.7491 239.538C87.7491 219.91 71.9543 203.998 52.4705 203.998C32.9867 203.998 17.1919 219.91 17.1919 239.538C17.1919 259.167 32.9867 275.079 52.4705 275.079Z" fill="white"/>
<path d="M52.7866 277.999C45.1596 278.056 37.6876 275.846 31.3185 271.65C24.9494 267.453 19.9702 261.46 17.0125 254.429C14.0549 247.399 13.2521 239.649 14.706 232.161C16.1598 224.674 19.8049 217.787 25.1787 212.374C30.5526 206.962 37.413 203.267 44.8897 201.76C52.3664 200.252 60.1224 200.999 67.1739 203.906C74.2254 206.813 80.2545 211.749 84.4964 218.088C88.7383 224.427 91.0018 231.883 90.9999 239.51C91.0263 249.678 87.0175 259.442 79.8533 266.658C72.6891 273.873 62.9548 277.952 52.7866 277.999ZM52.7866 203.127C45.5788 203.07 38.5165 205.155 32.4957 209.119C26.475 213.082 21.7671 218.744 18.9693 225.387C16.1716 232.03 15.41 239.354 16.7813 246.431C18.1527 253.507 21.595 260.017 26.6717 265.134C31.7483 270.251 38.2305 273.744 45.2959 275.172C52.3612 276.599 59.6913 275.895 66.3561 273.15C73.021 270.405 78.7203 265.742 82.7309 259.753C86.7416 253.764 88.8828 246.718 88.883 239.51C88.9007 229.908 85.1114 220.69 78.3455 213.877C71.5795 207.063 62.3886 203.209 52.7866 203.16V203.127Z" fill="#64CF83"/>
<path d="M399.29 117H405.439V115.678H400.826V106.818H399.29V117ZM410.289 117.154C412.442 117.154 413.849 115.578 413.849 113.217C413.849 110.84 412.442 109.264 410.289 109.264C408.136 109.264 406.729 110.84 406.729 113.217C406.729 115.578 408.136 117.154 410.289 117.154ZM410.294 115.906C408.887 115.906 408.231 114.678 408.231 113.212C408.231 111.75 408.887 110.507 410.294 110.507C411.691 110.507 412.347 111.75 412.347 113.212C412.347 114.678 411.691 115.906 410.294 115.906ZM421.23 111.228C420.922 110.04 419.992 109.264 418.342 109.264C416.617 109.264 415.394 110.174 415.394 111.526C415.394 112.61 416.05 113.331 417.482 113.649L418.774 113.933C419.51 114.097 419.853 114.425 419.853 114.902C419.853 115.494 419.222 115.956 418.247 115.956C417.358 115.956 416.786 115.573 416.607 114.822L415.17 115.041C415.419 116.393 416.542 117.154 418.257 117.154C420.102 117.154 421.38 116.175 421.38 114.793C421.38 113.714 420.693 113.048 419.291 112.724L418.078 112.446C417.238 112.247 416.875 111.964 416.88 111.447C416.875 110.86 417.512 110.442 418.357 110.442C419.282 110.442 419.709 110.955 419.883 111.467L421.23 111.228ZM428.736 111.228C428.428 110.04 427.498 109.264 425.848 109.264C424.123 109.264 422.9 110.174 422.9 111.526C422.9 112.61 423.556 113.331 424.988 113.649L426.28 113.933C427.016 114.097 427.359 114.425 427.359 114.902C427.359 115.494 426.728 115.956 425.753 115.956C424.863 115.956 424.292 115.573 424.113 114.822L422.676 115.041C422.924 116.393 424.048 117.154 425.763 117.154C427.608 117.154 428.885 116.175 428.885 114.793C428.885 113.714 428.199 113.048 426.797 112.724L425.584 112.446C424.744 112.247 424.381 111.964 424.386 111.447C424.381 110.86 425.017 110.442 425.863 110.442C426.787 110.442 427.215 110.955 427.389 111.467L428.736 111.228ZM437.441 117.154C439.594 117.154 441.001 115.578 441.001 113.217C441.001 110.84 439.594 109.264 437.441 109.264C435.289 109.264 433.882 110.84 433.882 113.217C433.882 115.578 435.289 117.154 437.441 117.154ZM437.446 115.906C436.04 115.906 435.383 114.678 435.383 113.212C435.383 111.75 436.04 110.507 437.446 110.507C438.843 110.507 439.5 111.75 439.5 113.212C439.5 114.678 438.843 115.906 437.446 115.906ZM446.295 109.364H444.649V108.678C444.649 108.001 444.927 107.634 445.653 107.634C445.962 107.634 446.18 107.703 446.32 107.748L446.668 106.545C446.459 106.465 446.026 106.341 445.425 106.341C444.217 106.341 443.158 107.047 443.158 108.479V109.364H441.979V110.557H443.158V117H444.649V110.557H446.295V109.364ZM411.687 135.228C411.379 134.04 410.449 133.264 408.799 133.264C407.074 133.264 405.851 134.174 405.851 135.526C405.851 136.61 406.507 137.331 407.939 137.649L409.231 137.933C409.967 138.097 410.31 138.425 410.31 138.902C410.31 139.494 409.679 139.956 408.704 139.956C407.815 139.956 407.243 139.573 407.064 138.822L405.627 139.041C405.876 140.393 406.999 141.154 408.714 141.154C410.559 141.154 411.837 140.175 411.837 138.793C411.837 137.714 411.15 137.048 409.748 136.724L408.535 136.446C407.695 136.247 407.332 135.964 407.337 135.447C407.332 134.86 407.969 134.442 408.814 134.442C409.739 134.442 410.166 134.955 410.34 135.467L411.687 135.228ZM413.471 141H414.957V136.292C414.957 135.263 415.678 134.547 416.524 134.547C417.349 134.547 417.921 135.094 417.921 135.924V141H419.402V136.133C419.402 135.213 419.964 134.547 420.933 134.547C421.719 134.547 422.365 134.984 422.365 136.018V141H423.852V135.879C423.852 134.134 422.877 133.264 421.495 133.264C420.396 133.264 419.571 133.791 419.203 134.607H419.124C418.791 133.771 418.09 133.264 417.07 133.264C416.061 133.264 415.31 133.766 414.992 134.607H414.898V133.364H413.471V141ZM429.135 141.154C430.801 141.154 431.979 140.334 432.317 139.091L430.91 138.837C430.642 139.558 429.995 139.926 429.15 139.926C427.877 139.926 427.022 139.101 426.983 137.629H432.411V137.102C432.411 134.343 430.761 133.264 429.031 133.264C426.903 133.264 425.501 134.885 425.501 137.232C425.501 139.603 426.883 141.154 429.135 141.154ZM426.987 136.516C427.047 135.432 427.833 134.492 429.041 134.492C430.194 134.492 430.95 135.347 430.955 136.516H426.987ZM435.547 130.818H434.061V141H435.547V130.818ZM439.034 130.818H437.547V141H439.034V130.818Z" fill="#555555"/>
<path d="M302.258 43C305.138 43 306.805 41.2134 306.805 38.2589C306.805 35.3182 305.138 33.5455 302.355 33.5455H299.197V43H302.258ZM300.623 41.7536V34.7919H302.267C304.335 34.7919 305.401 36.0291 305.401 38.2589C305.401 40.4979 304.335 41.7536 302.179 41.7536H300.623ZM308.468 43H309.848V35.9091H308.468V43ZM309.165 34.815C309.641 34.815 310.038 34.4457 310.038 33.9933C310.038 33.5408 309.641 33.1669 309.165 33.1669C308.685 33.1669 308.293 33.5408 308.293 33.9933C308.293 34.4457 308.685 34.815 309.165 34.815ZM313.769 43.157C314.941 43.157 315.602 42.5614 315.865 42.0305H315.92V43H317.268V38.2912C317.268 36.2276 315.643 35.8168 314.517 35.8168C313.233 35.8168 312.051 36.3338 311.59 37.6264L312.887 37.9219C313.09 37.4187 313.607 36.9339 314.535 36.9339C315.426 36.9339 315.883 37.4002 315.883 38.2035V38.2358C315.883 38.739 315.366 38.7298 314.092 38.8775C312.749 39.0344 311.373 39.3853 311.373 40.9964C311.373 42.3906 312.421 43.157 313.769 43.157ZM314.069 42.049C313.289 42.049 312.725 41.6982 312.725 41.0149C312.725 40.2763 313.381 40.0131 314.18 39.907C314.627 39.8469 315.689 39.7269 315.888 39.5284V40.4425C315.888 41.2827 315.218 42.049 314.069 42.049ZM319.107 43H320.487V38.6697C320.487 37.7418 321.203 37.0724 322.181 37.0724C322.467 37.0724 322.791 37.1232 322.901 37.1555V35.8352C322.763 35.8168 322.491 35.8029 322.315 35.8029C321.484 35.8029 320.773 36.2738 320.515 37.0355H320.441V35.9091H319.107V43ZM324.096 43H325.476V38.6697C325.476 37.7418 326.192 37.0724 327.17 37.0724C327.457 37.0724 327.78 37.1232 327.891 37.1555V35.8352C327.752 35.8168 327.48 35.8029 327.304 35.8029C326.473 35.8029 325.762 36.2738 325.504 37.0355H325.43V35.9091H324.096V43ZM330.465 38.7898C330.465 37.6587 331.181 37.0124 332.164 37.0124C333.115 37.0124 333.683 37.6172 333.683 38.6559V43H335.063V38.4897C335.063 36.7216 334.094 35.8168 332.635 35.8168C331.532 35.8168 330.867 36.2969 330.535 37.0632H330.447V33.5455H329.085V43H330.465V38.7898ZM339.892 43.1431C341.891 43.1431 343.198 41.6797 343.198 39.4869C343.198 37.2802 341.891 35.8168 339.892 35.8168C337.893 35.8168 336.587 37.2802 336.587 39.4869C336.587 41.6797 337.893 43.1431 339.892 43.1431ZM339.897 41.9844C338.59 41.9844 337.981 40.8441 337.981 39.4822C337.981 38.125 338.59 36.9709 339.897 36.9709C341.194 36.9709 341.804 38.125 341.804 39.4822C341.804 40.8441 341.194 41.9844 339.897 41.9844ZM347.795 43.1431C349.341 43.1431 350.435 42.3814 350.749 41.2273L349.443 40.9918C349.193 41.6612 348.593 42.0028 347.808 42.0028C346.627 42.0028 345.833 41.2365 345.796 39.87H350.837V39.3807C350.837 36.8185 349.304 35.8168 347.698 35.8168C345.722 35.8168 344.42 37.3217 344.42 39.5007C344.42 41.7028 345.703 43.1431 347.795 43.1431ZM345.8 38.8359C345.856 37.8295 346.585 36.957 347.707 36.957C348.778 36.957 349.48 37.7511 349.484 38.8359H345.8ZM354.432 43.157C355.604 43.157 356.265 42.5614 356.528 42.0305H356.583V43H357.931V38.2912C357.931 36.2276 356.306 35.8168 355.18 35.8168C353.896 35.8168 352.715 36.3338 352.253 37.6264L353.55 37.9219C353.753 37.4187 354.27 36.9339 355.198 36.9339C356.089 36.9339 356.546 37.4002 356.546 38.2035V38.2358C356.546 38.739 356.029 38.7298 354.755 38.8775C353.412 39.0344 352.036 39.3853 352.036 40.9964C352.036 42.3906 353.084 43.157 354.432 43.157ZM354.732 42.049C353.952 42.049 353.389 41.6982 353.389 41.0149C353.389 40.2763 354.044 40.0131 354.843 39.907C355.291 39.8469 356.352 39.7269 356.551 39.5284V40.4425C356.551 41.2827 355.881 42.049 354.732 42.049Z" fill="#555555"/>
<path d="M27.1491 239.092C26.9005 237.537 25.6824 236.628 24.1448 236.628C22.2627 236.628 20.8742 238.038 20.8742 240.364C20.8742 242.69 22.2556 244.099 24.1448 244.099C25.7428 244.099 26.9111 243.098 27.1491 241.66L26.0411 241.656C25.8529 242.587 25.0716 243.098 24.1519 243.098C22.9055 243.098 21.9644 242.143 21.9644 240.364C21.9644 238.599 22.9019 237.629 24.1555 237.629C25.0823 237.629 25.86 238.151 26.0411 239.092H27.1491ZM30.6744 244.11C32.2121 244.11 33.2171 242.984 33.2171 241.298C33.2171 239.6 32.2121 238.474 30.6744 238.474C29.1368 238.474 28.1318 239.6 28.1318 241.298C28.1318 242.984 29.1368 244.11 30.6744 244.11ZM30.678 243.219C29.673 243.219 29.2043 242.342 29.2043 241.294C29.2043 240.25 29.673 239.362 30.678 239.362C31.6759 239.362 32.1446 240.25 32.1446 241.294C32.1446 242.342 31.6759 243.219 30.678 243.219ZM35.464 240.761C35.464 239.891 35.9967 239.394 36.7354 239.394C37.4562 239.394 37.893 239.866 37.893 240.658V244H38.9548V240.531C38.9548 239.181 38.2126 238.474 37.0976 238.474C36.2773 238.474 35.741 238.854 35.4889 239.433H35.4214V238.545H34.4023V244H35.464V240.761ZM40.3788 238.545V244.348C40.3788 244.852 40.1693 245.129 39.665 245.129H39.4946V246.042C39.5692 246.045 39.6366 246.045 39.7112 246.045C40.8405 246.045 41.4406 245.449 41.4406 244.355V238.545H40.3788ZM40.9044 237.704C41.2702 237.704 41.5756 237.42 41.5756 237.072C41.5756 236.724 41.2702 236.436 40.9044 236.436C40.5351 236.436 40.2332 236.724 40.2332 237.072C40.2332 237.42 40.5351 237.704 40.9044 237.704ZM46.3243 241.738C46.3279 242.665 45.6389 243.105 45.0423 243.105C44.3854 243.105 43.9308 242.629 43.9308 241.887V238.545H42.8691V242.015C42.8691 243.368 43.6112 244.071 44.6588 244.071C45.4791 244.071 46.0367 243.638 46.2888 243.055H46.3456V244H47.3896V238.545H46.3243V241.738ZM49.8781 240.761C49.8781 239.891 50.4108 239.394 51.1494 239.394C51.8703 239.394 52.3071 239.866 52.3071 240.658V244H53.3689V240.531C53.3689 239.181 52.6267 238.474 51.5116 238.474C50.6913 238.474 50.1551 238.854 49.903 239.433H49.8355V238.545H48.8163V244H49.8781V240.761ZM57.0905 244.11C58.3795 244.11 59.214 243.336 59.3312 242.274H58.2979C58.1629 242.864 57.7048 243.212 57.0976 243.212C56.1991 243.212 55.6203 242.462 55.6203 241.273C55.6203 240.104 56.2098 239.369 57.0976 239.369C57.7723 239.369 58.1842 239.795 58.2979 240.307H59.3312C59.2176 239.206 58.3192 238.474 57.0798 238.474C55.5422 238.474 54.5479 239.632 54.5479 241.298C54.5479 242.942 55.5067 244.11 57.0905 244.11ZM63.0129 238.545H61.8943V237.239H60.8325V238.545H60.0335V239.398H60.8325V242.619C60.8289 243.609 61.5853 244.089 62.4234 244.071C62.7607 244.067 62.988 244.004 63.1123 243.957L62.9205 243.08C62.8495 243.094 62.7181 243.126 62.5477 243.126C62.2032 243.126 61.8943 243.013 61.8943 242.398V239.398H63.0129V238.545ZM64.1874 244H65.2492V238.545H64.1874V244ZM64.7236 237.704C65.0894 237.704 65.3948 237.42 65.3948 237.072C65.3948 236.724 65.0894 236.436 64.7236 236.436C64.3543 236.436 64.0525 236.724 64.0525 237.072C64.0525 237.42 64.3543 237.704 64.7236 237.704ZM71.3438 238.545H70.2039L68.8261 242.743H68.7693L67.3879 238.545H66.248L68.2295 244H69.3659L71.3438 238.545ZM72.3417 244H73.4035V238.545H72.3417V244ZM72.8779 237.704C73.2437 237.704 73.5491 237.42 73.5491 237.072C73.5491 236.724 73.2437 236.436 72.8779 236.436C72.5086 236.436 72.2068 236.724 72.2068 237.072C72.2068 237.42 72.5086 237.704 72.8779 237.704ZM77.3781 238.545H76.2595V237.239H75.1977V238.545H74.3987V239.398H75.1977V242.619C75.1942 243.609 75.9506 244.089 76.7886 244.071C77.126 244.067 77.3532 244.004 77.4775 243.957L77.2858 243.08C77.2148 243.094 77.0834 243.126 76.9129 243.126C76.5684 243.126 76.2595 243.013 76.2595 242.398V239.398H77.3781V238.545ZM78.5526 244H79.6144V238.545H78.5526V244ZM79.0889 237.704C79.4546 237.704 79.76 237.42 79.76 237.072C79.76 236.724 79.4546 236.436 79.0889 236.436C78.7195 236.436 78.4177 236.724 78.4177 237.072C78.4177 237.42 78.7195 237.704 79.0889 237.704ZM85.1302 239.877C84.9101 239.028 84.246 238.474 83.067 238.474C81.8348 238.474 80.9612 239.124 80.9612 240.09C80.9612 240.864 81.43 241.379 82.4527 241.607L83.376 241.809C83.9015 241.926 84.1466 242.161 84.1466 242.501C84.1466 242.924 83.6956 243.254 82.9996 243.254C82.3639 243.254 81.9555 242.981 81.8277 242.445L80.8014 242.601C80.979 243.567 81.7815 244.11 83.0067 244.11C84.3241 244.11 85.2368 243.411 85.2368 242.423C85.2368 241.653 84.7467 241.177 83.7453 240.946L82.8788 240.747C82.2787 240.605 82.0194 240.403 82.023 240.033C82.0194 239.614 82.474 239.316 83.0777 239.316C83.7382 239.316 84.0436 239.682 84.1679 240.048L85.1302 239.877Z" fill="#555555"/>
<path d="M392.361 243H393.678V239.195H398.029V243H399.35V234.273H398.029V238.065H393.678V234.273H392.361V243ZM403.986 243.132C405.414 243.132 406.424 242.429 406.713 241.364L405.507 241.146C405.277 241.764 404.723 242.08 403.999 242.08C402.908 242.08 402.175 241.372 402.141 240.111H406.794V239.659C406.794 237.294 405.38 236.369 403.897 236.369C402.073 236.369 400.871 237.759 400.871 239.77C400.871 241.803 402.056 243.132 403.986 243.132ZM402.145 239.156C402.196 238.227 402.87 237.422 403.905 237.422C404.894 237.422 405.542 238.155 405.546 239.156H402.145ZM410.113 243.145C411.195 243.145 411.805 242.595 412.048 242.105H412.099V243H413.343V238.653C413.343 236.749 411.843 236.369 410.803 236.369C409.619 236.369 408.528 236.847 408.102 238.04L409.299 238.312C409.487 237.848 409.964 237.401 410.82 237.401C411.643 237.401 412.065 237.831 412.065 238.572V238.602C412.065 239.067 411.587 239.058 410.411 239.195C409.171 239.339 407.901 239.663 407.901 241.151C407.901 242.438 408.869 243.145 410.113 243.145ZM410.39 242.122C409.67 242.122 409.15 241.798 409.15 241.168C409.15 240.486 409.755 240.243 410.492 240.145C410.906 240.089 411.886 239.979 412.069 239.795V240.639C412.069 241.415 411.451 242.122 410.39 242.122ZM417.49 243.128C418.684 243.128 419.152 242.399 419.382 241.982H419.489V243H420.733V234.273H419.459V237.516H419.382C419.152 237.111 418.718 236.369 417.499 236.369C415.918 236.369 414.755 237.618 414.755 239.74C414.755 241.858 415.901 243.128 417.49 243.128ZM417.772 242.041C416.634 242.041 416.042 241.04 416.042 239.727C416.042 238.428 416.621 237.452 417.772 237.452C418.884 237.452 419.48 238.359 419.48 239.727C419.48 241.104 418.871 242.041 417.772 242.041ZM424.457 243.145C425.539 243.145 426.148 242.595 426.391 242.105H426.442V243H427.687V238.653C427.687 236.749 426.187 236.369 425.147 236.369C423.962 236.369 422.871 236.847 422.445 238.04L423.643 238.312C423.83 237.848 424.308 237.401 425.164 237.401C425.987 237.401 426.408 237.831 426.408 238.572V238.602C426.408 239.067 425.931 239.058 424.755 239.195C423.515 239.339 422.245 239.663 422.245 241.151C422.245 242.438 423.212 243.145 424.457 243.145ZM424.734 242.122C424.013 242.122 423.494 241.798 423.494 241.168C423.494 240.486 424.099 240.243 424.836 240.145C425.249 240.089 426.229 239.979 426.413 239.795V240.639C426.413 241.415 425.795 242.122 424.734 242.122ZM432.141 243.132C433.688 243.132 434.689 242.203 434.83 240.929H433.59C433.428 241.636 432.878 242.054 432.15 242.054C431.071 242.054 430.377 241.155 430.377 239.727C430.377 238.325 431.084 237.443 432.15 237.443C432.959 237.443 433.453 237.955 433.59 238.568H434.83C434.694 237.247 433.615 236.369 432.128 236.369C430.283 236.369 429.09 237.759 429.09 239.757C429.09 241.73 430.24 243.132 432.141 243.132ZM437.467 239.114C437.467 238.07 438.127 237.473 439.035 237.473C439.913 237.473 440.437 238.031 440.437 238.99V243H441.711V238.837C441.711 237.205 440.816 236.369 439.469 236.369C438.451 236.369 437.837 236.812 437.531 237.52H437.45V234.273H436.192V243H437.467V239.114ZM446.232 243.132C447.66 243.132 448.67 242.429 448.96 241.364L447.754 241.146C447.523 241.764 446.969 242.08 446.245 242.08C445.154 242.08 444.421 241.372 444.387 240.111H449.04V239.659C449.04 237.294 447.626 236.369 446.143 236.369C444.319 236.369 443.117 237.759 443.117 239.77C443.117 241.803 444.302 243.132 446.232 243.132ZM444.391 239.156C444.442 238.227 445.116 237.422 446.151 237.422C447.14 237.422 447.788 238.155 447.792 239.156H444.391Z" fill="#555555"/>
<path d="M127.296 33L128.097 30.6903H131.506L132.303 33H133.7L130.56 24.2727H129.039L125.898 33H127.296ZM128.48 29.5824L129.767 25.858H129.835L131.122 29.5824H128.48ZM137.51 33.1321C139.057 33.1321 140.058 32.2031 140.199 30.929H138.959C138.797 31.6364 138.247 32.054 137.519 32.054C136.441 32.054 135.746 31.1548 135.746 29.7273C135.746 28.3253 136.453 27.4432 137.519 27.4432C138.328 27.4432 138.823 27.9545 138.959 28.5682H140.199C140.063 27.2472 138.985 26.3693 137.497 26.3693C135.652 26.3693 134.459 27.7585 134.459 29.7571C134.459 31.7301 135.61 33.1321 137.51 33.1321ZM142.836 29.1136C142.836 28.0696 143.496 27.473 144.404 27.473C145.282 27.473 145.806 28.0312 145.806 28.9901V33H147.08V28.8366C147.08 27.2045 146.185 26.3693 144.839 26.3693C143.82 26.3693 143.206 26.8125 142.9 27.5199H142.819V24.2727H141.562V33H142.836V29.1136ZM151.601 33.1321C153.029 33.1321 154.039 32.429 154.329 31.3636L153.123 31.1463C152.893 31.7642 152.339 32.0795 151.614 32.0795C150.523 32.0795 149.79 31.3722 149.756 30.1108H154.41V29.6591C154.41 27.294 152.995 26.3693 151.512 26.3693C149.688 26.3693 148.486 27.7585 148.486 29.7699C148.486 31.8026 149.671 33.1321 151.601 33.1321ZM149.76 29.1562C149.812 28.2273 150.485 27.4219 151.52 27.4219C152.509 27.4219 153.157 28.1548 153.161 29.1562H149.76ZM160.728 28.0526C160.464 27.0341 159.667 26.3693 158.252 26.3693C156.774 26.3693 155.725 27.1491 155.725 28.3082C155.725 29.2372 156.288 29.8551 157.515 30.1278L158.623 30.3707C159.254 30.5114 159.548 30.7926 159.548 31.2017C159.548 31.7088 159.007 32.1051 158.171 32.1051C157.409 32.1051 156.919 31.777 156.765 31.1335L155.534 31.321C155.747 32.4801 156.71 33.1321 158.18 33.1321C159.761 33.1321 160.856 32.2926 160.856 31.108C160.856 30.1832 160.268 29.6122 159.066 29.3352L158.026 29.0966C157.306 28.9261 156.995 28.6832 156.999 28.2401C156.995 27.7372 157.541 27.3793 158.265 27.3793C159.058 27.3793 159.424 27.8182 159.573 28.2571L160.728 28.0526ZM118.5 52.1449C119.582 52.1449 120.191 51.5952 120.434 51.1051H120.485V52H121.73V47.6534C121.73 45.7486 120.23 45.3693 119.19 45.3693C118.005 45.3693 116.914 45.8466 116.488 47.0398L117.686 47.3125C117.873 46.848 118.35 46.4006 119.207 46.4006C120.029 46.4006 120.451 46.831 120.451 47.5724V47.6023C120.451 48.0668 119.974 48.0582 118.798 48.1946C117.558 48.3395 116.288 48.6634 116.288 50.1506C116.288 51.4375 117.255 52.1449 118.5 52.1449ZM118.777 51.1222C118.056 51.1222 117.537 50.7983 117.537 50.1676C117.537 49.4858 118.142 49.2429 118.879 49.1449C119.292 49.0895 120.272 48.9787 120.456 48.7955V49.6392C120.456 50.4148 119.838 51.1222 118.777 51.1222ZM124.701 48.1136C124.701 47.0696 125.34 46.473 126.227 46.473C127.092 46.473 127.616 47.0398 127.616 47.9901V52H128.89V47.8366C128.89 46.2173 127.999 45.3693 126.661 45.3693C125.677 45.3693 125.033 45.8253 124.731 46.5199H124.65V45.4545H123.427V52H124.701V48.1136ZM133.049 52.1278C134.242 52.1278 134.711 51.3991 134.941 50.9815H135.048V52H136.292V43.2727H135.018V46.5156H134.941C134.711 46.1108 134.276 45.3693 133.058 45.3693C131.477 45.3693 130.313 46.6179 130.313 48.7401C130.313 50.858 131.46 52.1278 133.049 52.1278ZM133.33 51.0412C132.192 51.0412 131.6 50.0398 131.6 48.7273C131.6 47.4276 132.18 46.4517 133.33 46.4517C134.442 46.4517 135.039 47.3594 135.039 48.7273C135.039 50.1037 134.43 51.0412 133.33 51.0412ZM141.286 54.4545H142.56V50.9815H142.637C142.867 51.3991 143.336 52.1278 144.529 52.1278C146.114 52.1278 147.265 50.858 147.265 48.7401C147.265 46.6179 146.097 45.3693 144.516 45.3693C143.302 45.3693 142.863 46.1108 142.637 46.5156H142.531V45.4545H141.286V54.4545ZM142.535 48.7273C142.535 47.3594 143.131 46.4517 144.244 46.4517C145.398 46.4517 145.978 47.4276 145.978 48.7273C145.978 50.0398 145.381 51.0412 144.244 51.0412C143.148 51.0412 142.535 50.1037 142.535 48.7273ZM150.597 52.1449C151.68 52.1449 152.289 51.5952 152.532 51.1051H152.583V52H153.827V47.6534C153.827 45.7486 152.327 45.3693 151.288 45.3693C150.103 45.3693 149.012 45.8466 148.586 47.0398L149.783 47.3125C149.971 46.848 150.448 46.4006 151.305 46.4006C152.127 46.4006 152.549 46.831 152.549 47.5724V47.6023C152.549 48.0668 152.072 48.0582 150.896 48.1946C149.656 48.3395 148.386 48.6634 148.386 50.1506C148.386 51.4375 149.353 52.1449 150.597 52.1449ZM150.874 51.1222C150.154 51.1222 149.634 50.7983 149.634 50.1676C149.634 49.4858 150.239 49.2429 150.977 49.1449C151.39 49.0895 152.37 48.9787 152.553 48.7955V49.6392C152.553 50.4148 151.935 51.1222 150.874 51.1222ZM155.525 52H156.799V45.4545H155.525V52ZM156.168 44.4446C156.607 44.4446 156.973 44.1037 156.973 43.6861C156.973 43.2685 156.607 42.9233 156.168 42.9233C155.725 42.9233 155.363 43.2685 155.363 43.6861C155.363 44.1037 155.725 44.4446 156.168 44.4446ZM159.787 48.1136C159.787 47.0696 160.426 46.473 161.312 46.473C162.178 46.473 162.702 47.0398 162.702 47.9901V52H163.976V47.8366C163.976 46.2173 163.085 45.3693 161.747 45.3693C160.763 45.3693 160.119 45.8253 159.817 46.5199H159.736V45.4545H158.513V52H159.787V48.1136ZM170.589 47.0526C170.325 46.0341 169.528 45.3693 168.114 45.3693C166.635 45.3693 165.587 46.1491 165.587 47.3082C165.587 48.2372 166.149 48.8551 167.376 49.1278L168.484 49.3707C169.115 49.5114 169.409 49.7926 169.409 50.2017C169.409 50.7088 168.868 51.1051 168.033 51.1051C167.27 51.1051 166.78 50.777 166.626 50.1335L165.395 50.321C165.608 51.4801 166.571 52.1321 168.041 52.1321C169.622 52.1321 170.717 51.2926 170.717 50.108C170.717 49.1832 170.129 48.6122 168.928 48.3352L167.888 48.0966C167.168 47.9261 166.857 47.6832 166.861 47.2401C166.857 46.7372 167.402 46.3793 168.126 46.3793C168.919 46.3793 169.286 46.8182 169.435 47.2571L170.589 47.0526Z" fill="#555555"/>
<path d="M39.791 108.493H41.2725C41.2278 106.862 39.786 105.679 37.7179 105.679C35.6745 105.679 34.1085 106.847 34.1085 108.602C34.1085 110.019 35.1227 110.849 36.7583 111.292L37.9615 111.62C39.0502 111.908 39.8904 112.266 39.8904 113.171C39.8904 114.165 38.9409 114.822 37.6333 114.822C36.4501 114.822 35.4657 114.295 35.3762 113.186H33.835C33.9345 115.031 35.3613 116.169 37.6433 116.169C40.0346 116.169 41.4118 114.911 41.4118 113.186C41.4118 111.352 39.7761 110.641 38.4835 110.322L37.4892 110.064C36.6937 109.86 35.6348 109.487 35.6397 108.513C35.6397 107.648 36.4302 107.006 37.6831 107.006C38.8514 107.006 39.6816 107.553 39.791 108.493ZM46.3448 116.154C48.4975 116.154 49.9045 114.578 49.9045 112.217C49.9045 109.84 48.4975 108.264 46.3448 108.264C44.1921 108.264 42.7852 109.84 42.7852 112.217C42.7852 114.578 44.1921 116.154 46.3448 116.154ZM46.3498 114.906C44.9428 114.906 44.2866 113.678 44.2866 112.212C44.2866 110.75 44.9428 109.507 46.3498 109.507C47.7468 109.507 48.4031 110.75 48.4031 112.212C48.4031 113.678 47.7468 114.906 46.3498 114.906ZM51.5637 116H53.0502V111.337C53.0502 110.337 53.8208 109.616 54.8748 109.616C55.1831 109.616 55.5311 109.671 55.6504 109.706V108.284C55.5012 108.264 55.2079 108.249 55.019 108.249C54.1241 108.249 53.3585 108.756 53.0801 109.577H53.0005V108.364H51.5637V116ZM59.9545 116.154C61.62 116.154 62.7983 115.334 63.1364 114.091L61.7294 113.837C61.4609 114.558 60.8146 114.926 59.9695 114.926C58.6967 114.926 57.8416 114.101 57.8018 112.629H63.2308V112.102C63.2308 109.343 61.5803 108.264 59.8501 108.264C57.7223 108.264 56.3203 109.885 56.3203 112.232C56.3203 114.603 57.7024 116.154 59.9545 116.154ZM57.8068 111.516C57.8665 110.432 58.652 109.492 59.8601 109.492C61.0135 109.492 61.7692 110.347 61.7741 111.516H57.8068ZM32.809 132.364H31.243V130.534H29.7565V132.364H28.6379V133.557H29.7565V138.066C29.7515 139.453 30.8105 140.124 31.9838 140.099C32.4561 140.094 32.7742 140.005 32.9482 139.94L32.6798 138.712C32.5803 138.732 32.3964 138.777 32.1578 138.777C31.6755 138.777 31.243 138.618 31.243 137.758V133.557H32.809V132.364ZM36.104 135.466C36.104 134.248 36.8746 133.552 37.9335 133.552C38.9577 133.552 39.5692 134.203 39.5692 135.322V140H41.0557V135.143C41.0557 133.239 40.0116 132.264 38.4406 132.264C37.2524 132.264 36.5365 132.781 36.1785 133.607H36.0841V129.818H34.6175V140H36.104V135.466ZM43.0393 140H44.5258V135.337C44.5258 134.337 45.2964 133.616 46.3504 133.616C46.6586 133.616 47.0067 133.671 47.126 133.706V132.284C46.9768 132.264 46.6835 132.249 46.4946 132.249C45.5997 132.249 44.8341 132.756 44.5557 133.577H44.4761V132.364H43.0393V140ZM51.3556 140.154C53.5083 140.154 54.9152 138.578 54.9152 136.217C54.9152 133.84 53.5083 132.264 51.3556 132.264C49.2029 132.264 47.7959 133.84 47.7959 136.217C47.7959 138.578 49.2029 140.154 51.3556 140.154ZM51.3605 138.906C49.9536 138.906 49.2973 137.678 49.2973 136.212C49.2973 134.75 49.9536 133.507 51.3605 133.507C52.7575 133.507 53.4138 134.75 53.4138 136.212C53.4138 137.678 52.7575 138.906 51.3605 138.906ZM58.7968 140.169C60.0596 140.169 60.7705 139.528 61.0539 138.956H61.1135V140H62.5653V134.929C62.5653 132.707 60.8153 132.264 59.6022 132.264C58.2201 132.264 56.9474 132.821 56.4502 134.213L57.8472 134.531C58.066 133.989 58.6228 133.467 59.6221 133.467C60.5816 133.467 61.0738 133.969 61.0738 134.835V134.869C61.0738 135.411 60.517 135.401 59.1448 135.56C57.6981 135.729 56.2165 136.107 56.2165 137.842C56.2165 139.344 57.3451 140.169 58.7968 140.169ZM59.1199 138.976C58.2797 138.976 57.6732 138.598 57.6732 137.862C57.6732 137.067 58.3792 136.783 59.2393 136.669C59.7215 136.604 60.865 136.475 61.0787 136.261V137.246C61.0787 138.151 60.3579 138.976 59.1199 138.976ZM68.1098 132.364H66.5438V130.534H65.0573V132.364H63.9387V133.557H65.0573V138.066C65.0523 139.453 66.1112 140.124 67.2845 140.099C67.7568 140.094 68.075 140.005 68.249 139.94L67.9806 138.712C67.8811 138.732 67.6972 138.777 67.4585 138.777C66.9763 138.777 66.5438 138.618 66.5438 137.758V133.557H68.1098V132.364Z" fill="#555555"/>
</svg>
